SplineFontDB: 3.0
FontName: Bailleul-Bold
FullName: Bailleul Bold
FamilyName: Bailleul Roman
Weight: Bold
Copyright: Copyright (c) 2019 Yomli\nCopyright (c) 1850 Bailleul et Cie\nCopyright (c) 1800 Justus Erich Walbaum
Version: 1
ItalicAngle: 0
UnderlinePosition: -125
UnderlineWidth: 50
Ascent: 800
Descent: 200
InvalidEm: 0
sfntRevision: 0x00013333
LayerCount: 2
Layer: 0 1 "Arri+AOgA-re" 1
Layer: 1 1 "Avant" 0
XUID: [1021 871 2113692927 15650]
StyleMap: 0x0020
FSType: 0
OS2Version: 2
OS2_WeightWidthSlopeOnly: 0
OS2_UseTypoMetrics: 0
CreationTime: 1201742810
ModificationTime: 1551981759
PfmFamily: 17
TTFWeight: 700
TTFWidth: 5
LineGap: 0
VLineGap: 0
Panose: 2 0 8 3 8 0 0 2 0 3
OS2TypoAscent: 721
OS2TypoAOffset: 0
OS2TypoDescent: -220
OS2TypoDOffset: 0
OS2TypoLinegap: 71
OS2WinAscent: 962
OS2WinAOffset: 0
OS2WinDescent: 261
OS2WinDOffset: 0
HheadAscent: 962
HheadAOffset: 0
HheadDescent: -261
HheadDOffset: 0
OS2SubXSize: 204
OS2SubYSize: 204
OS2SubXOff: 0
OS2SubYOff: 286
OS2SupXSize: 204
OS2SupYSize: 204
OS2SupXOff: 0
OS2SupYOff: 286
OS2StrikeYSize: 50
OS2StrikeYPos: 250
OS2Vendor: 'YOM '
OS2CodePages: 60000001.80d40000
OS2UnicodeRanges: 8000002f.40000048.00000000.00000000
Lookup: 1 0 0 "'smcp' Bas-de-casse vers petites capitales dans Latin lookup 0" { "sous-table 'smcp' Bas-de-casse vers petites capitales dans Latin lookup 0"  } ['smcp' ('latn' <'dflt' > ) ]
Lookup: 1 0 0 "'c2sc' Capitales vers petites capitales dans Latin lookup 0" { "sous-table 'c2sc' Capitales vers petites capitales dans Latin lookup 0"  } ['c2sc' ('latn' <'dflt' > ) ]
Lookup: 1 0 0 "'sinf' Indices scientifiques lookups0" { "sous-table 'sinf' Indices scientifiques lookups0"  } ['sinf' ('DFLT' <'dflt' > ) ]
Lookup: 1 0 0 "'numr' Num+AOkA-rateurs lookups0" { "sous-table 'numr' Num+AOkA-rateurs lookups0"  } ['numr' ('DFLT' <'dflt' > ) ]
Lookup: 1 0 0 "'dnom' D+AOkA-nominateurs lookups0" { "sous-table 'dnom' D+AOkA-nominateurs lookups0"  } ['dnom' ('DFLT' <'dflt' > ) ]

StartChar: .notdef
Encoding: 229 -1 0
Width: 432
Flags: W
TeX: 0 0
HStem: 0 33<66 333> 633 33<66 333>
VStem: 33 33<33 633> 333 33<33 633>
LayerCount: 2
Fore
SplineSet
33 0 m 1,0,-1
 33 666 l 1,1,-1
 366 666 l 1,2,-1
 366 0 l 1,3,-1
 33 0 l 1,0,-1
66 33 m 1,4,-1
 333 33 l 1,5,-1
 333 633 l 1,6,-1
 66 633 l 1,7,-1
 66 33 l 1,4,-1
EndSplineSet
EndChar

StartChar: exclam
Encoding: 1 33 4
Width: 296
Flags: W
TeX: 721 6
HStem: -12 162<92.7262 203.274> 707 20G<131 165>
VStem: 67 162<13.7262 124.274 523.281 698.695>
LayerCount: 2
Fore
SplineSet
132 208 m 1,0,-1
 83 562 l 2,1,2
 73 632 73 632 73 648 c 0,3,4
 73 682 73 682 93.5 704.5 c 128,-1,5
 114 727 114 727 148 727 c 128,-1,6
 182 727 182 727 202.5 704.5 c 128,-1,7
 223 682 223 682 223 648 c 0,8,9
 223 632 223 632 213 562 c 2,10,-1
 164 208 l 1,11,-1
 132 208 l 1,0,-1
67 69 m 128,-1,13
 67 103 67 103 90.5 126.5 c 128,-1,14
 114 150 114 150 148 150 c 128,-1,15
 182 150 182 150 205.5 126.5 c 128,-1,16
 229 103 229 103 229 69 c 128,-1,17
 229 35 229 35 205.5 11.5 c 128,-1,18
 182 -12 182 -12 148 -12 c 128,-1,19
 114 -12 114 -12 90.5 11.5 c 128,-1,12
 67 35 67 35 67 69 c 128,-1,13
EndSplineSet
EndChar

StartChar: quotedbl
Encoding: 2 34 5
Width: 481
Flags: W
TeX: 727 -403
HStem: 396 331<124.044 171.956 309.044 356.956>
VStem: 96 104<458.453 719.38> 281 104<458.453 719.38>
LayerCount: 2
Fore
SplineSet
197 625 m 2,0,-1
 176 438 l 2,1,2
 172 396 172 396 148 396 c 128,-1,3
 124 396 124 396 120 438 c 2,4,-1
 99 625 l 2,5,6
 96 648 96 648 96 668 c 0,7,8
 96 727 96 727 148 727 c 128,-1,9
 200 727 200 727 200 668 c 0,10,11
 200 648 200 648 197 625 c 2,0,-1
382 625 m 2,12,-1
 361 438 l 2,13,14
 357 396 357 396 333 396 c 128,-1,15
 309 396 309 396 305 438 c 2,16,-1
 284 625 l 2,17,18
 281 648 281 648 281 668 c 0,19,20
 281 727 281 727 333 727 c 128,-1,21
 385 727 385 727 385 668 c 0,22,23
 385 648 385 648 382 625 c 2,12,-1
EndSplineSet
EndChar

StartChar: numbersign
Encoding: 3 35 6
Width: 556
Flags: W
TeX: 694 0
HStem: 0 21G<89 179.786 281 371.786> 201 84<27 117 217 309 409 499> 409 84<57 147 247 339 439 529> 674 20G<184.214 275 376.214 467>
LayerCount: 2
Fore
SplineSet
281 0 m 1,0,-1
 309 201 l 1,1,-1
 205 201 l 1,2,-1
 177 0 l 1,3,-1
 89 0 l 1,4,-1
 117 201 l 1,5,-1
 27 201 l 1,6,-1
 27 285 l 1,7,-1
 129 285 l 1,8,-1
 147 409 l 1,9,-1
 57 409 l 1,10,-1
 57 493 l 1,11,-1
 159 493 l 1,12,-1
 187 694 l 1,13,-1
 275 694 l 1,14,-1
 247 493 l 1,15,-1
 351 493 l 1,16,-1
 379 694 l 1,17,-1
 467 694 l 1,18,-1
 439 493 l 1,19,-1
 529 493 l 1,20,-1
 529 409 l 1,21,-1
 427 409 l 1,22,-1
 409 285 l 1,23,-1
 499 285 l 1,24,-1
 499 201 l 1,25,-1
 397 201 l 1,26,-1
 369 0 l 1,27,-1
 281 0 l 1,0,-1
321 285 m 1,28,-1
 339 409 l 1,29,-1
 235 409 l 1,30,-1
 217 285 l 1,31,-1
 321 285 l 1,28,-1
EndSplineSet
EndChar

StartChar: dollar
Encoding: 4 36 7
Width: 556
Flags: W
TeX: 800 106
HStem: -12 36<191.553 257 299 371.156> 497 21G<442 482> 670 36<191.131 257>
VStem: 28 34<162 234> 38 104<481 595.568> 257 42<-99 -12 24 266 457 665 706 793> 432 96<109.392 218.6> 448 34<497 549.902>
LayerCount: 2
Fore
SplineSet
299 266 m 1,0,-1
 299 24 l 1,1,2
 357 27 357 27 394.5 55 c 128,-1,3
 432 83 432 83 432 138 c 0,4,5
 432 184 432 184 397.5 212.5 c 128,-1,6
 363 241 363 241 299 266 c 1,0,-1
257 457 m 1,7,-1
 257 670 l 1,8,9
 208 670 208 670 175 641.5 c 128,-1,10
 142 613 142 613 142 565 c 0,11,12
 142 528 142 528 171 504 c 128,-1,13
 200 480 200 480 257 457 c 1,7,-1
257 -99 m 1,14,-1
 257 -12 l 1,15,16
 143 -10 143 -10 36 34 c 1,17,-1
 28 234 l 1,18,-1
 62 234 l 1,19,20
 66 159 66 159 119.5 96 c 128,-1,21
 173 33 173 33 257 24 c 1,22,-1
 257 282 l 1,23,24
 222 295 222 295 203 303 c 128,-1,25
 184 311 184 311 154 326 c 128,-1,26
 124 341 124 341 107 356 c 128,-1,27
 90 371 90 371 72 391.5 c 128,-1,28
 54 412 54 412 46 438.5 c 128,-1,29
 38 465 38 465 38 497 c 0,30,31
 38 595 38 595 103 648.5 c 128,-1,32
 168 702 168 702 257 706 c 1,33,-1
 257 793 l 1,34,-1
 299 793 l 1,35,-1
 299 706 l 1,36,37
 361 703 361 703 474 663 c 1,38,-1
 482 497 l 1,39,-1
 448 497 l 1,40,41
 436 559 436 559 396.5 605 c 128,-1,42
 357 651 357 651 299 665 c 1,43,-1
 299 441 l 1,44,45
 334 428 334 428 353.5 419.5 c 128,-1,46
 373 411 373 411 404.5 395 c 128,-1,47
 436 379 436 379 454 362.5 c 128,-1,48
 472 346 472 346 491 322.5 c 128,-1,49
 510 299 510 299 519 268 c 128,-1,50
 528 237 528 237 528 200 c 0,51,52
 528 114 528 114 463 55 c 128,-1,53
 398 -4 398 -4 299 -12 c 1,54,-1
 299 -99 l 1,55,-1
 257 -99 l 1,14,-1
EndSplineSet
EndChar

StartChar: percent
Encoding: 5 37 8
Width: 1000
Flags: W
TeX: 712 18
HStem: -12 36<692.371 773.629> 298 36<692.371 773.629> 360 36<226.371 307.629> 670 36<226.371 307.629> 702 20G<682.187 750>
VStem: 94 104<443.793 622.207> 336 104<443.793 622.207> 560 104<71.7934 250.207> 802 104<71.7934 250.207>
LayerCount: 2
Fore
SplineSet
664 161 m 128,-1,1
 664 24 664 24 733 24 c 128,-1,2
 802 24 802 24 802 161 c 128,-1,3
 802 298 802 298 733 298 c 128,-1,0
 664 298 664 298 664 161 c 128,-1,1
560 161 m 128,-1,5
 560 237 560 237 608.5 285.5 c 128,-1,6
 657 334 657 334 733 334 c 128,-1,7
 809 334 809 334 857.5 285.5 c 128,-1,8
 906 237 906 237 906 161 c 128,-1,9
 906 85 906 85 857.5 36.5 c 128,-1,10
 809 -12 809 -12 733 -12 c 128,-1,11
 657 -12 657 -12 608.5 36.5 c 128,-1,4
 560 85 560 85 560 161 c 128,-1,5
94 533 m 128,-1,13
 94 609 94 609 142.5 657.5 c 128,-1,14
 191 706 191 706 267 706 c 128,-1,15
 343 706 343 706 391.5 657.5 c 128,-1,16
 440 609 440 609 440 533 c 128,-1,17
 440 457 440 457 391.5 408.5 c 128,-1,18
 343 360 343 360 267 360 c 128,-1,19
 191 360 191 360 142.5 408.5 c 128,-1,12
 94 457 94 457 94 533 c 128,-1,13
198 533 m 128,-1,21
 198 396 198 396 267 396 c 128,-1,22
 336 396 336 396 336 533 c 128,-1,23
 336 670 336 670 267 670 c 128,-1,20
 198 670 198 670 198 533 c 128,-1,21
251 -28 m 1,24,-1
 694 722 l 1,25,-1
 750 722 l 1,26,-1
 307 -28 l 1,27,-1
 251 -28 l 1,24,-1
EndSplineSet
EndChar

StartChar: ampersand
Encoding: 6 38 9
Width: 815
Flags: W
TeX: 721 12
HStem: -12 84<549.5 689.112> -12 54<203 362.761> 433 30<507 592.51 698.011 785> 706 30<362.37 455.81>
VStem: 30 138<164.247 257.649> 205 132<554.847 650.132> 478 78<573.907 690.867> 743 30<98.2394 235.91>
LayerCount: 2
Fore
SplineSet
168 249 m 0,0,1
 168 190 168 190 217 116 c 128,-1,2
 266 42 266 42 327 42 c 0,3,4
 391 42 391 42 437 84 c 1,5,6
 376 174 376 174 264 393 c 1,7,8
 168 344 168 344 168 249 c 0,0,1
337 636 m 0,9,10
 337 593 337 593 385 499 c 1,11,12
 423 520 423 520 450.5 556 c 128,-1,13
 478 592 478 592 478 631 c 0,14,15
 478 706 478 706 407 706 c 0,16,17
 376 706 376 706 356.5 687 c 128,-1,18
 337 668 337 668 337 636 c 0,9,10
205 566 m 0,19,20
 205 648 205 648 265.5 692 c 128,-1,21
 326 736 326 736 412 736 c 0,22,23
 469 736 469 736 512.5 712 c 128,-1,24
 556 688 556 688 556 636 c 0,25,26
 556 609 556 609 540 582.5 c 128,-1,27
 524 556 524 556 500 537.5 c 128,-1,28
 476 519 476 519 449 500.5 c 128,-1,29
 422 482 422 482 401 470 c 1,30,-1
 545 200 l 1,31,32
 573 235 573 235 591 283.5 c 128,-1,33
 609 332 609 332 609 366 c 0,34,35
 609 402 609 402 593.5 417.5 c 128,-1,36
 578 433 578 433 541 433 c 2,37,-1
 507 433 l 1,38,-1
 507 463 l 1,39,-1
 785 463 l 1,40,-1
 785 433 l 1,41,-1
 752 433 l 2,42,43
 711 433 711 433 685 407.5 c 128,-1,44
 659 382 659 382 648 347 c 128,-1,45
 637 312 637 312 614.5 259 c 128,-1,46
 592 206 592 206 564 169 c 1,47,48
 617 72 617 72 672 72 c 0,49,50
 743 72 743 72 743 159 c 0,51,52
 743 196 743 196 730 235 c 1,53,-1
 756 244 l 1,54,55
 773 196 773 196 773 158 c 0,56,57
 773 81 773 81 723.5 34.5 c 128,-1,58
 674 -12 674 -12 594 -12 c 0,59,60
 505 -12 505 -12 454 59 c 1,61,62
 356 -12 356 -12 243 -12 c 0,63,64
 163 -12 163 -12 96.5 38 c 128,-1,65
 30 88 30 88 30 174 c 0,66,67
 30 218 30 218 51.5 257.5 c 128,-1,68
 73 297 73 297 106 324 c 128,-1,69
 139 351 139 351 177.5 378 c 128,-1,70
 216 405 216 405 250 423 c 1,71,72
 224 480 224 480 214.5 507.5 c 128,-1,73
 205 535 205 535 205 566 c 0,19,20
EndSplineSet
EndChar

StartChar: quoteright
Encoding: 212 8217 10
Width: 222
Flags: W
TeX: 727 -403
HStem: 571 156<45.1738 147.219>
VStem: 20 182<594.16 688.681>
LayerCount: 2
Fore
SplineSet
58 396 m 1,0,-1
 45 424 l 1,1,2
 92 445 92 445 121.5 488 c 128,-1,3
 151 531 151 531 148 581 c 1,4,5
 123 571 123 571 97 571 c 0,6,7
 66 571 66 571 43 592 c 128,-1,8
 20 613 20 613 20 646 c 0,9,10
 20 682 20 682 44 704.5 c 128,-1,11
 68 727 68 727 104 727 c 0,12,13
 155 727 155 727 178.5 692 c 128,-1,14
 202 657 202 657 202 605 c 0,15,16
 202 535 202 535 163 481 c 128,-1,17
 124 427 124 427 58 396 c 1,0,-1
EndSplineSet
EndChar

StartChar: parenleft
Encoding: 8 40 11
Width: 444
Flags: W
TeX: 727 261
HStem: 707 20G<331 424.333>
VStem: 90 144<82.8873 383.113>
LayerCount: 2
Fore
SplineSet
411 727 m 1,0,-1
 429 700 l 1,1,2
 234 553 234 553 234 233 c 128,-1,3
 234 -87 234 -87 429 -234 c 1,4,-1
 411 -261 l 1,5,6
 251 -161 251 -161 170.5 -42 c 128,-1,7
 90 77 90 77 90 233 c 128,-1,8
 90 389 90 389 170.5 508 c 128,-1,9
 251 627 251 627 411 727 c 1,0,-1
EndSplineSet
EndChar

StartChar: parenright
Encoding: 9 41 12
Width: 444
Flags: W
TeX: 727 261
HStem: 707 20G<19.6667 113>
VStem: 210 144<82.8873 383.113>
LayerCount: 2
Fore
SplineSet
33 -261 m 1,0,-1
 15 -234 l 1,1,2
 210 -87 210 -87 210 233 c 128,-1,3
 210 553 210 553 15 700 c 1,4,-1
 33 727 l 1,5,6
 193 627 193 627 273.5 508 c 128,-1,7
 354 389 354 389 354 233 c 128,-1,8
 354 77 354 77 273.5 -42 c 128,-1,9
 193 -161 193 -161 33 -261 c 1,0,-1
EndSplineSet
EndChar

StartChar: asterisk
Encoding: 10 42 13
Width: 408
Flags: W
TeX: 715 -391
HStem: 396 120.5<96.7808 170.138 237.862 311.219> 533 114<49.9559 129.517 278.483 358.044> 707 20G<191.5 216.5>
VStem: 75 109.5<411.613 494.196> 144 120<626.508 715.137> 223.5 109.5<411.613 494.196>
LayerCount: 2
Fore
SplineSet
204 530 m 1,0,-1
 203 530 l 1,1,2
 196 507 196 507 191.5 477 c 128,-1,3
 187 447 187 447 184.5 432.5 c 128,-1,4
 182 418 182 418 170.5 407 c 128,-1,5
 159 396 159 396 136 396 c 0,6,7
 116 396 116 396 95.5 412.5 c 128,-1,8
 75 429 75 429 75 453 c 0,9,10
 75 478 75 478 91.5 491 c 128,-1,11
 108 504 108 504 138 516.5 c 128,-1,12
 168 529 168 529 185 544 c 1,13,14
 151 543 151 543 121 538 c 128,-1,15
 91 533 91 533 86 533 c 0,16,17
 35 533 35 533 35 579 c 0,18,19
 35 607 35 607 49.5 627 c 128,-1,20
 64 647 64 647 90 647 c 0,21,22
 111 647 111 647 143.5 611 c 128,-1,23
 176 575 176 575 190 570 c 1,24,25
 188 587 188 587 166 626.5 c 128,-1,26
 144 666 144 666 144 679 c 0,27,28
 144 704 144 704 161.5 715.5 c 128,-1,29
 179 727 179 727 204 727 c 128,-1,30
 229 727 229 727 246.5 715.5 c 128,-1,31
 264 704 264 704 264 679 c 0,32,33
 264 666 264 666 242 626.5 c 128,-1,34
 220 587 220 587 218 570 c 1,35,36
 232 575 232 575 264.5 611 c 128,-1,37
 297 647 297 647 318 647 c 0,38,39
 344 647 344 647 358.5 627 c 128,-1,40
 373 607 373 607 373 579 c 0,41,42
 373 533 373 533 322 533 c 0,43,44
 317 533 317 533 287 538 c 128,-1,45
 257 543 257 543 223 544 c 1,46,47
 240 529 240 529 270 516.5 c 128,-1,48
 300 504 300 504 316.5 491 c 128,-1,49
 333 478 333 478 333 453 c 0,50,51
 333 429 333 429 312.5 412.5 c 128,-1,52
 292 396 292 396 272 396 c 0,53,54
 249 396 249 396 237.5 407 c 128,-1,55
 226 418 226 418 223.5 432.5 c 128,-1,56
 221 447 221 447 216.5 477 c 128,-1,57
 212 507 212 507 204 530 c 1,0,-1
EndSplineSet
EndChar

StartChar: plus
Encoding: 11 43 14
Width: 600
Flags: W
TeX: 502 0
HStem: 0 21G<248 352> 201 104<47 248 352 553>
VStem: 248 104<0 201 305 506>
LayerCount: 2
Fore
SplineSet
248 0 m 1,0,-1
 248 201 l 1,1,-1
 47 201 l 1,2,-1
 47 305 l 1,3,-1
 248 305 l 1,4,-1
 248 506 l 1,5,-1
 352 506 l 1,6,-1
 352 305 l 1,7,-1
 553 305 l 1,8,-1
 553 201 l 1,9,-1
 352 201 l 1,10,-1
 352 0 l 1,11,-1
 248 0 l 1,0,-1
EndSplineSet
EndChar

StartChar: comma
Encoding: 12 44 15
Width: 278
Flags: W
TeX: 132 192
HStem: -6 156<73.1738 175.219>
VStem: 48 182<17.1602 111.681>
LayerCount: 2
Fore
SplineSet
86 -181 m 1,0,-1
 73 -153 l 1,1,2
 120 -132 120 -132 149.5 -89 c 128,-1,3
 179 -46 179 -46 176 4 c 1,4,5
 151 -6 151 -6 125 -6 c 0,6,7
 94 -6 94 -6 71 15 c 128,-1,8
 48 36 48 36 48 69 c 0,9,10
 48 105 48 105 72 127.5 c 128,-1,11
 96 150 96 150 132 150 c 0,12,13
 183 150 183 150 206.5 115 c 128,-1,14
 230 80 230 80 230 28 c 0,15,16
 230 -42 230 -42 191 -96 c 128,-1,17
 152 -150 152 -150 86 -181 c 1,0,-1
EndSplineSet
EndChar

StartChar: hyphen
Encoding: 13 45 16
Width: 407
Flags: W
TeX: 266 -206
HStem: 188 96<34 373>
LayerCount: 2
Fore
SplineSet
34 188 m 1,0,-1
 34 284 l 1,1,-1
 373 284 l 1,2,-1
 373 188 l 1,3,-1
 34 188 l 1,0,-1
EndSplineSet
EndChar

StartChar: period
Encoding: 14 46 17
Width: 278
Flags: W
TeX: 132 6
HStem: -12 162<83.7262 194.274>
VStem: 58 162<13.7262 124.274>
LayerCount: 2
Fore
SplineSet
58 69 m 128,-1,1
 58 103 58 103 81.5 126.5 c 128,-1,2
 105 150 105 150 139 150 c 128,-1,3
 173 150 173 150 196.5 126.5 c 128,-1,4
 220 103 220 103 220 69 c 128,-1,5
 220 35 220 35 196.5 11.5 c 128,-1,6
 173 -12 173 -12 139 -12 c 128,-1,7
 105 -12 105 -12 81.5 11.5 c 128,-1,0
 58 35 58 35 58 69 c 128,-1,1
EndSplineSet
EndChar

StartChar: slash
Encoding: 15 47 18
Width: 389
Flags: W
TeX: 727 12
HStem: 707 20G<270.612 384>
LayerCount: 2
Fore
SplineSet
5 -12 m 1,0,-1
 278 727 l 1,1,-1
 384 727 l 1,2,-1
 111 -12 l 1,3,-1
 5 -12 l 1,0,-1
EndSplineSet
EndChar

StartChar: zero
Encoding: 16 48 19
Width: 556
Flags: W
TeX: 706 12
HStem: -12 30<236.027 319.973> 676 30<236.027 319.973>
VStem: 40 156<189.292 504.708> 360 156<189.292 504.708>
LayerCount: 2
Fore
SplineSet
40 347 m 128,-1,1
 40 409 40 409 52.5 468.5 c 128,-1,2
 65 528 65 528 91.5 583.5 c 128,-1,3
 118 639 118 639 166 672.5 c 128,-1,4
 214 706 214 706 278 706 c 128,-1,5
 342 706 342 706 390 672.5 c 128,-1,6
 438 639 438 639 464.5 583.5 c 128,-1,7
 491 528 491 528 503.5 468.5 c 128,-1,8
 516 409 516 409 516 347 c 128,-1,9
 516 285 516 285 503.5 225.5 c 128,-1,10
 491 166 491 166 464.5 110.5 c 128,-1,11
 438 55 438 55 390 21.5 c 128,-1,12
 342 -12 342 -12 278 -12 c 128,-1,13
 214 -12 214 -12 166 21.5 c 128,-1,14
 118 55 118 55 91.5 110.5 c 128,-1,15
 65 166 65 166 52.5 225.5 c 128,-1,0
 40 285 40 285 40 347 c 128,-1,1
196 347 m 128,-1,17
 196 148 196 148 210 83 c 128,-1,18
 224 18 224 18 278 18 c 128,-1,19
 332 18 332 18 346 83 c 128,-1,20
 360 148 360 148 360 347 c 128,-1,21
 360 546 360 546 346 611 c 128,-1,22
 332 676 332 676 278 676 c 128,-1,23
 224 676 224 676 210 611 c 128,-1,16
 196 546 196 546 196 347 c 128,-1,17
EndSplineSet
Substitution2: "sous-table 'sinf' Indices scientifiques lookups0" zero.inferior
Substitution2: "sous-table 'numr' Num+AOkA-rateurs lookups0" zero.numerator
Substitution2: "sous-table 'dnom' D+AOkA-nominateurs lookups0" zero.denominator
Substitution2: "sous-table 'subs' Indice lookups0" zero.subscript
Substitution2: "sous-table 'sups' Exposant lookups0" zero.superior
EndChar

StartChar: one
Encoding: 17 49 20
Width: 556
Flags: W
TeX: 715 0
HStem: 0 30<123 222 372 465>
VStem: 222 150<30 557>
LayerCount: 2
Fore
SplineSet
123 0 m 1,0,-1
 123 30 l 1,1,-1
 222 30 l 1,2,-1
 222 557 l 1,3,4
 191 527 191 527 133 486 c 1,5,-1
 117 512 l 1,6,7
 171 552 171 552 234 611 c 128,-1,8
 297 670 297 670 325 706 c 1,9,-1
 372 706 l 1,10,-1
 372 30 l 1,11,-1
 465 30 l 1,12,-1
 465 0 l 1,13,-1
 123 0 l 1,0,-1
EndSplineSet
Substitution2: "sous-table 'sinf' Indices scientifiques lookups0" one.inferior
Substitution2: "sous-table 'numr' Num+AOkA-rateurs lookups0" one.numerator
Substitution2: "sous-table 'dnom' D+AOkA-nominateurs lookups0" one.denominator
Substitution2: "sous-table 'subs' Indice lookups0" one.subscript
Substitution2: "sous-table 'sups' Exposant lookups0" one.superior
EndChar

StartChar: two
Encoding: 18 50 21
Width: 580
Flags: W
TeX: 706 0
HStem: 0 115<137 446> 429 144<99.0681 190.404> 656 50<159.028 312.624>
VStem: 56 34<550.974 613.366> 375 144<429.836 584.86>
LayerCount: 2
Fore
SplineSet
90 571 m 5,0,1
 91 550 91 550 99 551 c 0,2,3
 101 555 101 555 126 567 c 0,4,5
 139 573 139 573 154 573 c 0,6,7
 210 573 210 573 210 505 c 0,8,9
 210 467 210 467 191 448 c 128,-1,10
 172 429 172 429 142 429 c 0,11,12
 99 429 99 429 77 461 c 0,13,14
 49 497 49 497 56 542 c 0,15,16
 60 633 60 633 128 670 c 0,17,18
 194 706 194 706 300 706 c 0,19,20
 397 706 397 706 458 653 c 128,-1,21
 519 600 519 600 519 512 c 0,22,23
 519 452 519 452 474.5 394 c 128,-1,24
 430 336 430 336 365 291 c 0,25,26
 200 179 200 179 137 115 c 1,27,-1
 362 115 l 2,28,29
 422 115 422 115 457 142 c 128,-1,30
 492 169 492 169 507 207 c 1,31,-1
 533 199 l 1,32,-1
 446 0 l 1,33,-1
 15 0 l 1,34,-1
 12 29 l 1,35,-1
 170 170 l 2,36,37
 214 210 214 210 242 238 c 0,38,39
 268 264 268 264 304 307.5 c 128,-1,40
 340 351 340 351 357.5 395.5 c 128,-1,41
 375 440 375 440 375 487 c 0,42,43
 375 559 375 559 340 607.5 c 128,-1,44
 305 656 305 656 235 656 c 128,-1,45
 165 656 165 656 129 635 c 0,46,47
 94 614 94 614 90 571 c 5,0,1
EndSplineSet
Substitution2: "sous-table 'sinf' Indices scientifiques lookups0" two.inferior
Substitution2: "sous-table 'numr' Num+AOkA-rateurs lookups0" two.numerator
Substitution2: "sous-table 'dnom' D+AOkA-nominateurs lookups0" two.denominator
Substitution2: "sous-table 'subs' Indice lookups0" two.subscript
Substitution2: "sous-table 'sups' Exposant lookups0" two.superior
EndChar

StartChar: three
Encoding: 19 51 22
Width: 571
Flags: W
TeX: 694 12
HStem: -9 29<152.342 296.52> 354 30<142 264.764> 669 29<179.48 294.314>
VStem: 26 99<59.322 134.5> 70 93<568.5 634.198> 332 148<477.457 613.707> 370 160<112.409 268.529>
LayerCount: 2
Fore
SplineSet
302 377 m 1,0,1
 404 367 404 367 467 315.5 c 128,-1,2
 530 264 530 264 530 193 c 0,3,4
 530 111 530 111 452.5 51 c 128,-1,5
 375 -9 375 -9 246 -9 c 0,6,7
 148 -9 148 -9 87 27 c 128,-1,8
 26 63 26 63 26 119 c 0,9,10
 26 150 26 150 46 168.5 c 128,-1,11
 66 187 66 187 99 187 c 0,12,13
 129 187 129 187 150 171 c 128,-1,14
 171 155 171 155 171 131 c 0,15,16
 171 108 171 108 148 93 c 128,-1,17
 125 78 125 78 125 66 c 0,18,19
 125 43 125 43 159.5 31.5 c 128,-1,20
 194 20 194 20 232 20 c 0,21,22
 298 20 298 20 334 64.5 c 128,-1,23
 370 109 370 109 370 192 c 0,24,25
 370 273 370 273 333.5 313.5 c 128,-1,26
 297 354 297 354 215 354 c 2,27,-1
 142 354 l 1,28,-1
 142 384 l 1,29,-1
 196 384 l 2,30,31
 332 384 332 384 332 546 c 0,32,33
 332 615 332 615 309 642 c 128,-1,34
 286 669 286 669 240 669 c 0,35,36
 207 669 207 669 185 658 c 128,-1,37
 163 647 163 647 163 630 c 0,38,39
 163 621 163 621 177 605.5 c 128,-1,40
 191 590 191 590 191 571 c 0,41,42
 191 547 191 547 174 534.5 c 128,-1,43
 157 522 157 522 134 522 c 0,44,45
 107 522 107 522 88.5 539 c 128,-1,46
 70 556 70 556 70 581 c 0,47,48
 70 626 70 626 124 662 c 128,-1,49
 178 698 178 698 265 698 c 0,50,51
 362 698 362 698 421 652.5 c 128,-1,52
 480 607 480 607 480 544 c 0,53,54
 480 490 480 490 432.5 446 c 128,-1,55
 385 402 385 402 302 383 c 1,56,-1
 302 377 l 1,0,1
EndSplineSet
Substitution2: "sous-table 'sinf' Indices scientifiques lookups0" three.inferior
Substitution2: "sous-table 'numr' Num+AOkA-rateurs lookups0" three.numerator
Substitution2: "sous-table 'dnom' D+AOkA-nominateurs lookups0" three.denominator
Substitution2: "sous-table 'subs' Indice lookups0" three.subscript
Substitution2: "sous-table 'sups' Exposant lookups0" three.superior
EndChar

StartChar: four
Encoding: 20 52 23
Width: 556
Flags: W
TeX: 715 0
HStem: 0 21G<268 418> 212 36<75 268 418 486>
VStem: 268 150<0 212 248 528> 486 30<120 212 248 334>
LayerCount: 2
Fore
SplineSet
268 248 m 1,0,-1
 268 528 l 1,1,-1
 266 528 l 1,2,-1
 75 248 l 1,3,-1
 268 248 l 1,0,-1
268 0 m 1,4,-1
 268 212 l 1,5,-1
 27 212 l 1,6,-1
 27 241 l 1,7,-1
 342 706 l 1,8,-1
 418 706 l 1,9,-1
 418 248 l 1,10,-1
 486 248 l 1,11,-1
 486 334 l 1,12,-1
 516 334 l 1,13,-1
 516 120 l 1,14,-1
 486 120 l 1,15,-1
 486 212 l 1,16,-1
 418 212 l 1,17,-1
 418 0 l 1,18,-1
 268 0 l 1,4,-1
EndSplineSet
Substitution2: "sous-table 'sinf' Indices scientifiques lookups0" four.inferior
Substitution2: "sous-table 'numr' Num+AOkA-rateurs lookups0" four.numerator
Substitution2: "sous-table 'dnom' D+AOkA-nominateurs lookups0" four.denominator
Substitution2: "sous-table 'subs' Indice lookups0" four.subscript
Substitution2: "sous-table 'sups' Exposant lookups0" four.superior
EndChar

StartChar: five
Encoding: 21 53 24
Width: 556
Flags: W
TeX: 762 12
HStem: -12 48<153.975 292.661> 406 54<188.566 294.338> 562 132<139 366.537>
VStem: 30 31<153.47 184.806> 337 156<124.332 342.992>
LayerCount: 2
Fore
SplineSet
81 296 m 1,0,-1
 120 694 l 1,1,-1
 325 694 l 2,2,3
 359 694 359 694 374 696 c 128,-1,4
 389 698 389 698 407 712 c 128,-1,5
 425 726 425 726 436 755 c 1,6,-1
 463 744 l 1,7,8
 449 707 449 707 440 684 c 128,-1,9
 431 661 431 661 417.5 639.5 c 128,-1,10
 404 618 404 618 396.5 607 c 128,-1,11
 389 596 389 596 370.5 586 c 128,-1,12
 352 576 352 576 340.5 572 c 128,-1,13
 329 568 329 568 301 565 c 128,-1,14
 273 562 273 562 252.5 562 c 128,-1,15
 232 562 232 562 189 562 c 2,16,-1
 139 562 l 1,17,-1
 120 386 l 1,18,-1
 122 384 l 1,19,20
 183 460 183 460 288 460 c 0,21,22
 382 460 382 460 437.5 395.5 c 128,-1,23
 493 331 493 331 493 235 c 0,24,25
 493 126 493 126 425.5 57 c 128,-1,26
 358 -12 358 -12 251 -12 c 0,27,28
 167 -12 167 -12 108 41 c 128,-1,29
 49 94 49 94 30 183 c 1,30,-1
 61 191 l 1,31,32
 83 123 83 123 124 79.5 c 128,-1,33
 165 36 165 36 224 36 c 0,34,35
 262 36 262 36 286 52.5 c 128,-1,36
 310 69 310 69 320.5 100.5 c 128,-1,37
 331 132 331 132 334 160 c 128,-1,38
 337 188 337 188 337 229 c 0,39,40
 337 265 337 265 333.5 291 c 128,-1,41
 330 317 330 317 320 346 c 128,-1,42
 310 375 310 375 286.5 390.5 c 128,-1,43
 263 406 263 406 227 406 c 0,44,45
 183 406 183 406 150.5 372 c 128,-1,46
 118 338 118 338 111 293 c 1,47,-1
 81 296 l 1,0,-1
EndSplineSet
Substitution2: "sous-table 'sinf' Indices scientifiques lookups0" five.inferior
Substitution2: "sous-table 'numr' Num+AOkA-rateurs lookups0" five.numerator
Substitution2: "sous-table 'dnom' D+AOkA-nominateurs lookups0" five.denominator
Substitution2: "sous-table 'subs' Indice lookups0" five.subscript
Substitution2: "sous-table 'sups' Exposant lookups0" five.superior
EndChar

StartChar: six
Encoding: 22 54 25
Width: 556
Flags: W
TeX: 706 12
HStem: -12 30<242.408 320.035> 414 42<233.466 329.811> 676 30<271.723 369.201>
VStem: 47 150<175.056 375.473 404 482.359> 366 150<124.783 341.914> 385 101<549.934 650.079>
LayerCount: 2
Fore
SplineSet
516 232 m 0,0,1
 516 128 516 128 453.5 58 c 128,-1,2
 391 -12 391 -12 289 -12 c 0,3,4
 221 -12 221 -12 171.5 19 c 128,-1,5
 122 50 122 50 96 102.5 c 128,-1,6
 70 155 70 155 58.5 213 c 128,-1,7
 47 271 47 271 47 336 c 0,8,9
 47 404 47 404 63 467.5 c 128,-1,10
 79 531 79 531 110.5 585.5 c 128,-1,11
 142 640 142 640 197 673 c 128,-1,12
 252 706 252 706 323 706 c 0,13,14
 391 706 391 706 438.5 674 c 128,-1,15
 486 642 486 642 486 581 c 0,16,17
 486 519 486 519 429 519 c 0,18,19
 401 519 401 519 386.5 533.5 c 128,-1,20
 372 548 372 548 372 571 c 0,21,22
 372 584 372 584 378.5 605 c 128,-1,23
 385 626 385 626 385 635 c 0,24,25
 385 657 385 657 366 666.5 c 128,-1,26
 347 676 347 676 324 676 c 0,27,28
 197 676 197 676 197 404 c 1,29,-1
 199 404 l 1,30,31
 239 456 239 456 314 456 c 0,32,33
 409 456 409 456 462.5 392.5 c 128,-1,34
 516 329 516 329 516 232 c 0,0,1
197 216 m 0,35,36
 197 18 197 18 281 18 c 0,37,38
 366 18 366 18 366 216 c 0,39,40
 366 251 366 251 365 273.5 c 128,-1,41
 364 296 364 296 359.5 325.5 c 128,-1,42
 355 355 355 355 346.5 372 c 128,-1,43
 338 389 338 389 321.5 401.5 c 128,-1,44
 305 414 305 414 281 414 c 0,45,46
 261 414 261 414 246.5 406.5 c 128,-1,47
 232 399 232 399 223 383 c 128,-1,48
 214 367 214 367 208.5 350.5 c 128,-1,49
 203 334 203 334 200.5 308.5 c 128,-1,50
 198 283 198 283 197.5 264 c 128,-1,51
 197 245 197 245 197 216 c 0,35,36
EndSplineSet
Substitution2: "sous-table 'sinf' Indices scientifiques lookups0" six.inferior
Substitution2: "sous-table 'numr' Num+AOkA-rateurs lookups0" six.numerator
Substitution2: "sous-table 'dnom' D+AOkA-nominateurs lookups0" six.denominator
Substitution2: "sous-table 'subs' Indice lookups0" six.subscript
Substitution2: "sous-table 'sups' Exposant lookups0" six.superior
EndChar

StartChar: seven
Encoding: 23 55 26
Width: 556
Flags: W
TeX: 694 0
HStem: 0 21G<157 329.5> 568 126<102 426>
VStem: 157 166<0 94.8625>
LayerCount: 2
Fore
SplineSet
47 484 m 1,0,-1
 102 694 l 1,1,-1
 516 694 l 1,2,3
 426 507 426 507 381 360 c 128,-1,4
 336 213 336 213 323 0 c 1,5,-1
 157 0 l 1,6,7
 170 75 170 75 195 147 c 128,-1,8
 220 219 220 219 266 303 c 128,-1,9
 312 387 312 387 338 429 c 128,-1,10
 364 471 364 471 426 568 c 1,11,-1
 102 568 l 1,12,-1
 76 475 l 1,13,-1
 47 484 l 1,0,-1
EndSplineSet
Substitution2: "sous-table 'sinf' Indices scientifiques lookups0" seven.inferior
Substitution2: "sous-table 'numr' Num+AOkA-rateurs lookups0" seven.numerator
Substitution2: "sous-table 'dnom' D+AOkA-nominateurs lookups0" seven.denominator
Substitution2: "sous-table 'subs' Indice lookups0" seven.subscript
Substitution2: "sous-table 'sups' Exposant lookups0" seven.superior
EndChar

StartChar: eight
Encoding: 24 56 27
Width: 556
Flags: W
TeX: 706 12
HStem: -12 30<215.829 341.357> 676 30<217.858 338.694>
VStem: 43 104<93.2096 261.239> 67 104<514.902 602.556> 395 96<477.363 622.674> 409 104<112.153 224.722>
LayerCount: 2
Fore
SplineSet
491 548 m 0,0,1
 491 503 491 503 461.5 467 c 128,-1,2
 432 431 432 431 389 411 c 1,3,4
 459 375 459 375 486 325.5 c 128,-1,5
 513 276 513 276 513 210 c 0,6,7
 513 110 513 110 442.5 49 c 128,-1,8
 372 -12 372 -12 279 -12 c 0,9,10
 184 -12 184 -12 113.5 39 c 128,-1,11
 43 90 43 90 43 182 c 0,12,13
 43 287 43 287 169 351 c 1,14,15
 67 405 67 405 67 519 c 0,16,17
 67 601 67 601 133 653.5 c 128,-1,18
 199 706 199 706 283 706 c 0,19,20
 334 706 334 706 379.5 690.5 c 128,-1,21
 425 675 425 675 458 638 c 128,-1,22
 491 601 491 601 491 548 c 0,0,1
409 151 m 0,23,24
 409 183 409 183 397 208.5 c 128,-1,25
 385 234 385 234 360 252.5 c 128,-1,26
 335 271 335 271 314.5 282 c 128,-1,27
 294 293 294 293 257.5 309 c 128,-1,28
 221 325 221 325 206 332 c 1,29,30
 147 265 147 265 147 176 c 0,31,32
 147 112 147 112 180.5 65 c 128,-1,33
 214 18 214 18 275 18 c 0,34,35
 335 18 335 18 372 54 c 128,-1,36
 409 90 409 90 409 151 c 0,23,24
395 530 m 0,37,38
 395 676 395 676 276 676 c 0,39,40
 231 676 231 676 201 648.5 c 128,-1,41
 171 621 171 621 171 575 c 0,42,43
 171 548 171 548 184 526.5 c 128,-1,44
 197 505 197 505 220.5 490.5 c 128,-1,45
 244 476 244 476 266 466 c 128,-1,46
 288 456 288 456 317.5 445 c 128,-1,47
 347 434 347 434 362 426 c 1,48,49
 395 467 395 467 395 530 c 0,37,38
EndSplineSet
Substitution2: "sous-table 'sinf' Indices scientifiques lookups0" eight.inferior
Substitution2: "sous-table 'numr' Num+AOkA-rateurs lookups0" eight.numerator
Substitution2: "sous-table 'dnom' D+AOkA-nominateurs lookups0" eight.denominator
Substitution2: "sous-table 'subs' Indice lookups0" eight.subscript
Substitution2: "sous-table 'sups' Exposant lookups0" eight.superior
EndChar

StartChar: nine
Encoding: 25 57 28
Width: 556
Flags: W
TeX: 706 12
HStem: -12 30<186.799 284.277> 238 42<226.189 322.534> 676 30<235.965 313.592>
VStem: 40 150<352.086 569.217> 70 101<43.9211 144.066> 359 150<211.641 290 318.527 518.944>
LayerCount: 2
Fore
SplineSet
40 462 m 0,0,1
 40 566 40 566 102.5 636 c 128,-1,2
 165 706 165 706 267 706 c 0,3,4
 335 706 335 706 384.5 675 c 128,-1,5
 434 644 434 644 460 591.5 c 128,-1,6
 486 539 486 539 497.5 481 c 128,-1,7
 509 423 509 423 509 358 c 0,8,9
 509 290 509 290 493 226.5 c 128,-1,10
 477 163 477 163 445.5 108.5 c 128,-1,11
 414 54 414 54 359 21 c 128,-1,12
 304 -12 304 -12 233 -12 c 0,13,14
 165 -12 165 -12 117.5 20 c 128,-1,15
 70 52 70 52 70 113 c 0,16,17
 70 175 70 175 127 175 c 0,18,19
 155 175 155 175 169.5 160.5 c 128,-1,20
 184 146 184 146 184 123 c 0,21,22
 184 110 184 110 177.5 89 c 128,-1,23
 171 68 171 68 171 59 c 0,24,25
 171 37 171 37 190 27.5 c 128,-1,26
 209 18 209 18 232 18 c 0,27,28
 359 18 359 18 359 290 c 1,29,-1
 357 290 l 1,30,31
 317 238 317 238 242 238 c 0,32,33
 147 238 147 238 93.5 301.5 c 128,-1,34
 40 365 40 365 40 462 c 0,0,1
359 478 m 0,35,36
 359 676 359 676 275 676 c 0,37,38
 190 676 190 676 190 478 c 0,39,40
 190 443 190 443 191 420.5 c 128,-1,41
 192 398 192 398 196.5 368.5 c 128,-1,42
 201 339 201 339 209.5 322 c 128,-1,43
 218 305 218 305 234.5 292.5 c 128,-1,44
 251 280 251 280 275 280 c 0,45,46
 295 280 295 280 309.5 287.5 c 128,-1,47
 324 295 324 295 333 311 c 128,-1,48
 342 327 342 327 347.5 343.5 c 128,-1,49
 353 360 353 360 355.5 385.5 c 128,-1,50
 358 411 358 411 358.5 430 c 128,-1,51
 359 449 359 449 359 478 c 0,35,36
EndSplineSet
Substitution2: "sous-table 'sinf' Indices scientifiques lookups0" nine.inferior
Substitution2: "sous-table 'numr' Num+AOkA-rateurs lookups0" nine.numerator
Substitution2: "sous-table 'dnom' D+AOkA-nominateurs lookups0" nine.denominator
Substitution2: "sous-table 'subs' Indice lookups0" nine.subscript
Substitution2: "sous-table 'sups' Exposant lookups0" nine.superior
EndChar

StartChar: colon
Encoding: 26 58 29
Width: 278
Flags: W
TeX: 461 6
HStem: -12 162<83.7262 194.274> 334 162<83.7262 194.274>
VStem: 58 162<13.7262 124.274 359.726 470.274>
LayerCount: 2
Fore
SplineSet
58 415 m 128,-1,1
 58 449 58 449 81.5 472.5 c 128,-1,2
 105 496 105 496 139 496 c 128,-1,3
 173 496 173 496 196.5 472.5 c 128,-1,4
 220 449 220 449 220 415 c 128,-1,5
 220 381 220 381 196.5 357.5 c 128,-1,6
 173 334 173 334 139 334 c 128,-1,7
 105 334 105 334 81.5 357.5 c 128,-1,0
 58 381 58 381 58 415 c 128,-1,1
58 69 m 128,-1,9
 58 103 58 103 81.5 126.5 c 128,-1,10
 105 150 105 150 139 150 c 128,-1,11
 173 150 173 150 196.5 126.5 c 128,-1,12
 220 103 220 103 220 69 c 128,-1,13
 220 35 220 35 196.5 11.5 c 128,-1,14
 173 -12 173 -12 139 -12 c 128,-1,15
 105 -12 105 -12 81.5 11.5 c 128,-1,8
 58 35 58 35 58 69 c 128,-1,9
EndSplineSet
EndChar

StartChar: semicolon
Encoding: 27 59 30
Width: 278
Flags: W
TeX: 461 192
HStem: -6 156<73.1738 175.219> 334 162<83.7262 194.274>
VStem: 48 182<17.1602 111.681> 58 162<359.726 470.274>
LayerCount: 2
Fore
SplineSet
86 -181 m 1,0,-1
 73 -153 l 1,1,2
 120 -132 120 -132 149.5 -89 c 128,-1,3
 179 -46 179 -46 176 4 c 1,4,5
 151 -6 151 -6 125 -6 c 0,6,7
 94 -6 94 -6 71 15 c 128,-1,8
 48 36 48 36 48 69 c 0,9,10
 48 105 48 105 72 127.5 c 128,-1,11
 96 150 96 150 132 150 c 0,12,13
 183 150 183 150 206.5 115 c 128,-1,14
 230 80 230 80 230 28 c 0,15,16
 230 -42 230 -42 191 -96 c 128,-1,17
 152 -150 152 -150 86 -181 c 1,0,-1
58 415 m 128,-1,19
 58 449 58 449 81.5 472.5 c 128,-1,20
 105 496 105 496 139 496 c 128,-1,21
 173 496 173 496 196.5 472.5 c 128,-1,22
 220 449 220 449 220 415 c 128,-1,23
 220 381 220 381 196.5 357.5 c 128,-1,24
 173 334 173 334 139 334 c 128,-1,25
 105 334 105 334 81.5 357.5 c 128,-1,18
 58 381 58 381 58 415 c 128,-1,19
EndSplineSet
EndChar

StartChar: less
Encoding: 28 60 31
Width: 600
Flags: W
TeX: 514 12
LayerCount: 2
Fore
SplineSet
553 514 m 1,0,-1
 553 412 l 1,1,-1
 181 253 l 1,2,-1
 553 94 l 1,3,-1
 553 -8 l 1,4,-1
 47 210 l 1,5,-1
 47 296 l 1,6,-1
 553 514 l 1,0,-1
EndSplineSet
EndChar

StartChar: equal
Encoding: 29 61 32
Width: 600
Flags: W
TeX: 384 -118
HStem: 97 104<47 553> 305 104<47 553>
LayerCount: 2
Fore
SplineSet
47 305 m 1,0,-1
 47 409 l 1,1,-1
 553 409 l 1,2,-1
 553 305 l 1,3,-1
 47 305 l 1,0,-1
47 97 m 1,4,-1
 47 201 l 1,5,-1
 553 201 l 1,6,-1
 553 97 l 1,7,-1
 47 97 l 1,4,-1
EndSplineSet
EndChar

StartChar: greater
Encoding: 30 62 33
Width: 600
Flags: W
TeX: 514 12
LayerCount: 2
Fore
SplineSet
47 -8 m 1,0,-1
 47 94 l 1,1,-1
 419 253 l 1,2,-1
 47 412 l 1,3,-1
 47 514 l 1,4,-1
 553 296 l 1,5,-1
 553 210 l 1,6,-1
 47 -8 l 1,0,-1
EndSplineSet
EndChar

StartChar: question
Encoding: 31 63 34
Width: 481
Flags: W
TeX: 721 6
HStem: -12 162<167.726 278.274> 697 30<194.322 280.913>
VStem: 72 110<571.487 665.185> 142 162<13.7262 124.274> 201 36<208 298.71> 319 138<429.375 631.996>
LayerCount: 2
Fore
SplineSet
201 208 m 1,0,-1
 201 242 l 2,1,2
 201 272 201 272 207.5 293.5 c 128,-1,3
 214 315 214 315 224.5 328 c 128,-1,4
 235 341 235 341 247.5 352 c 128,-1,5
 260 363 260 363 272.5 376.5 c 128,-1,6
 285 390 285 390 295.5 408 c 128,-1,7
 306 426 306 426 312.5 457.5 c 128,-1,8
 319 489 319 489 319 531 c 0,9,10
 319 568 319 568 317.5 588.5 c 128,-1,11
 316 609 316 609 308.5 638.5 c 128,-1,12
 301 668 301 668 282 682.5 c 128,-1,13
 263 697 263 697 233 697 c 0,14,15
 211 697 211 697 196.5 686.5 c 128,-1,16
 182 676 182 676 182 657 c 0,17,18
 182 648 182 648 187 625 c 128,-1,19
 192 602 192 602 192 591 c 0,20,21
 192 562 192 562 176 546.5 c 128,-1,22
 160 531 160 531 132 531 c 128,-1,23
 104 531 104 531 88 551 c 128,-1,24
 72 571 72 571 72 602 c 0,25,26
 72 660 72 660 126.5 693.5 c 128,-1,27
 181 727 181 727 242 727 c 0,28,29
 457 727 457 727 457 526 c 0,30,31
 457 476 457 476 440.5 440 c 128,-1,32
 424 404 424 404 400 386 c 128,-1,33
 376 368 376 368 347 353 c 128,-1,34
 318 338 318 338 294 327.5 c 128,-1,35
 270 317 270 317 253.5 297.5 c 128,-1,36
 237 278 237 278 237 251 c 2,37,-1
 237 208 l 1,38,-1
 201 208 l 1,0,-1
142 69 m 128,-1,40
 142 103 142 103 165.5 126.5 c 128,-1,41
 189 150 189 150 223 150 c 128,-1,42
 257 150 257 150 280.5 126.5 c 128,-1,43
 304 103 304 103 304 69 c 128,-1,44
 304 35 304 35 280.5 11.5 c 128,-1,45
 257 -12 257 -12 223 -12 c 128,-1,46
 189 -12 189 -12 165.5 11.5 c 128,-1,39
 142 35 142 35 142 69 c 128,-1,40
EndSplineSet
EndChar

StartChar: at
Encoding: 32 64 35
Width: 800
Flags: W
TeX: 727 12
HStem: -12 72<317.727 555.389> 157 60<299.5 420.756> 157 48<556.425 631.829> 491 60<414.234 501.646> 655 72<312.251 537.178>
VStem: 30 114<229.031 474.625> 248 90<233.796 401.43> 510 44<243 423> 698 72<300.814 503.789>
LayerCount: 2
Fore
SplineSet
338 306 m 0,0,1
 338 266 338 266 354 241.5 c 128,-1,2
 370 217 370 217 392 217 c 0,3,4
 432 217 432 217 471 279 c 128,-1,5
 510 341 510 341 510 423 c 0,6,7
 510 491 510 491 468 491 c 0,8,9
 425 491 425 491 381.5 436 c 128,-1,10
 338 381 338 381 338 306 c 0,0,1
533 499 m 1,11,-1
 543 535 l 1,12,-1
 622 535 l 1,13,-1
 561 285 l 2,14,15
 554 260 554 260 554 243 c 0,16,17
 554 205 554 205 589 205 c 0,18,19
 629 205 629 205 663.5 273 c 128,-1,20
 698 341 698 341 698 410 c 0,21,22
 698 505 698 505 620.5 580 c 128,-1,23
 543 655 543 655 420 655 c 0,24,25
 380 655 380 655 342 644.5 c 128,-1,26
 304 634 304 634 267.5 609.5 c 128,-1,27
 231 585 231 585 204 549.5 c 128,-1,28
 177 514 177 514 160.5 460 c 128,-1,29
 144 406 144 406 144 341 c 0,30,31
 144 219 144 219 228.5 139.5 c 128,-1,32
 313 60 313 60 430 60 c 0,33,34
 542 60 542 60 642 111 c 1,35,-1
 654 53 l 1,36,37
 533 -12 533 -12 431 -12 c 0,38,39
 351 -12 351 -12 282.5 11 c 128,-1,40
 214 34 214 34 168.5 71 c 128,-1,41
 123 108 123 108 91 155 c 128,-1,42
 59 202 59 202 44.5 249 c 128,-1,43
 30 296 30 296 30 341 c 0,44,45
 30 510 30 510 144 618.5 c 128,-1,46
 258 727 258 727 420 727 c 0,47,48
 568 727 568 727 669 636.5 c 128,-1,49
 770 546 770 546 770 411 c 0,50,51
 770 320 770 320 715 238.5 c 128,-1,52
 660 157 660 157 573 157 c 0,53,54
 544 157 544 157 525 163.5 c 128,-1,55
 506 170 506 170 496.5 184.5 c 128,-1,56
 487 199 487 199 484 207 c 128,-1,57
 481 215 481 215 476 234 c 1,58,-1
 474 234 l 1,59,60
 466 214 466 214 430 185.5 c 128,-1,61
 394 157 394 157 351 157 c 0,62,63
 248 157 248 157 248 288 c 0,64,65
 248 330 248 330 261 375 c 128,-1,66
 274 420 274 420 298.5 460 c 128,-1,67
 323 500 323 500 364 525.5 c 128,-1,68
 405 551 405 551 455 551 c 0,69,70
 517 551 517 551 531 499 c 1,71,-1
 533 499 l 1,11,-1
EndSplineSet
EndChar

StartChar: A
Encoding: 33 65 36
Width: 741
Flags: W
TeX: 727 0
HStem: 0 30<22 99 137 236 361 462 636 719> 236 30<218 380> 695 20G<339.759 390.387>
LayerCount: 2
Fore
SplineSet
22 0 m 1,0,-1
 22 30 l 1,1,-1
 99 30 l 1,2,-1
 347 715 l 1,3,-1
 383 715 l 1,4,-1
 636 30 l 1,5,-1
 719 30 l 1,6,-1
 719 0 l 1,7,-1
 361 0 l 1,8,-1
 361 30 l 1,9,-1
 462 30 l 1,10,-1
 391 236 l 1,11,-1
 208 236 l 1,12,-1
 137 30 l 1,13,-1
 236 30 l 1,14,-1
 236 0 l 1,15,-1
 22 0 l 1,0,-1
380 266 m 1,16,-1
 300 497 l 1,17,-1
 298 497 l 1,18,-1
 218 266 l 1,19,-1
 380 266 l 1,16,-1
EndSplineSet
Substitution2: "sous-table 'c2sc' Capitales vers petites capitales dans Latin lookup 0" a.sc
EndChar

StartChar: B
Encoding: 34 66 37
Width: 722
Flags: W
TeX: 715 0
HStem: 0 30<30 126 282 426.272> 375 30<282 418.642> 685 30<30 126 282 417.834>
VStem: 126 156<30 375 405 685> 470 162<482.892 643.935> 509 168<104.882 286.233>
LayerCount: 2
Fore
SplineSet
282 375 m 1,0,-1
 282 30 l 1,1,-1
 339 30 l 2,2,3
 426 30 426 30 467.5 71 c 128,-1,4
 509 112 509 112 509 211 c 0,5,6
 509 299 509 299 475 337 c 128,-1,7
 441 375 441 375 356 375 c 2,8,-1
 282 375 l 1,0,-1
282 685 m 1,9,-1
 282 405 l 1,10,-1
 346 405 l 2,11,12
 413 405 413 405 441.5 437 c 128,-1,13
 470 469 470 469 470 544 c 0,14,15
 470 620 470 620 442 652.5 c 128,-1,16
 414 685 414 685 340 685 c 2,17,-1
 282 685 l 1,9,-1
30 0 m 1,18,-1
 30 30 l 1,19,-1
 126 30 l 1,20,-1
 126 685 l 1,21,-1
 30 685 l 1,22,-1
 30 715 l 1,23,-1
 408 715 l 2,24,25
 514 715 514 715 573 683.5 c 128,-1,26
 632 652 632 652 632 568 c 0,27,28
 632 488 632 488 577.5 445.5 c 128,-1,29
 523 403 523 403 440 397 c 1,30,-1
 440 395 l 1,31,32
 504 393 504 393 555.5 373 c 128,-1,33
 607 353 607 353 642 307 c 128,-1,34
 677 261 677 261 677 196 c 0,35,36
 677 108 677 108 614.5 54 c 128,-1,37
 552 0 552 0 429 0 c 2,38,-1
 30 0 l 1,18,-1
EndSplineSet
Substitution2: "sous-table 'c2sc' Capitales vers petites capitales dans Latin lookup 0" b.sc
EndChar

StartChar: C
Encoding: 35 67 38
Width: 758
Flags: W
TeX: 727 12
HStem: -12 30<358.965 513.964> 697 30<367.577 519.074>
VStem: 60 168<221.9 490.091> 671 30<174.469 248 466 535.547>
LayerCount: 2
Fore
SplineSet
701 669 m 1,0,-1
 701 466 l 1,1,-1
 671 466 l 1,2,3
 664 560 664 560 598 628.5 c 128,-1,4
 532 697 532 697 446 697 c 0,5,6
 228 697 228 697 228 358 c 0,7,8
 228 325 228 325 229 299 c 128,-1,9
 230 273 230 273 235 236 c 128,-1,10
 240 199 240 199 248.5 171 c 128,-1,11
 257 143 257 143 272.5 113 c 128,-1,12
 288 83 288 83 310 63 c 128,-1,13
 332 43 332 43 365 30.5 c 128,-1,14
 398 18 398 18 439 18 c 0,15,16
 526 18 526 18 596 87 c 128,-1,17
 666 156 666 156 676 248 c 1,18,-1
 706 248 l 1,19,-1
 706 46 l 1,20,21
 566 -12 566 -12 435 -12 c 0,22,23
 265 -12 265 -12 162.5 91 c 128,-1,24
 60 194 60 194 60 358 c 0,25,26
 60 521 60 521 162.5 624 c 128,-1,27
 265 727 265 727 435 727 c 0,28,29
 550 727 550 727 701 669 c 1,0,-1
EndSplineSet
Substitution2: "sous-table 'c2sc' Capitales vers petites capitales dans Latin lookup 0" c.sc
EndChar

StartChar: D
Encoding: 36 68 39
Width: 870
Flags: W
TeX: 715 0
HStem: 0 30<30 126 282 482.836> 685 30<30 126 282 490.192>
VStem: 126 156<30 685> 634 176<203.264 510.343>
LayerCount: 2
Fore
SplineSet
282 685 m 1,0,-1
 282 30 l 1,1,-1
 339 30 l 2,2,3
 377 30 377 30 401.5 31.5 c 128,-1,4
 426 33 426 33 460 39.5 c 128,-1,5
 494 46 494 46 516 58.5 c 128,-1,6
 538 71 538 71 562.5 95 c 128,-1,7
 587 119 587 119 601 153.5 c 128,-1,8
 615 188 615 188 624.5 239.5 c 128,-1,9
 634 291 634 291 634 357 c 128,-1,10
 634 423 634 423 625 475 c 128,-1,11
 616 527 616 527 602 561 c 128,-1,12
 588 595 588 595 565.5 619.5 c 128,-1,13
 543 644 543 644 523 656.5 c 128,-1,14
 503 669 503 669 474 675.5 c 128,-1,15
 445 682 445 682 425.5 683.5 c 128,-1,16
 406 685 406 685 377 685 c 2,17,-1
 282 685 l 1,0,-1
30 0 m 1,18,-1
 30 30 l 1,19,-1
 126 30 l 1,20,-1
 126 685 l 1,21,-1
 30 685 l 1,22,-1
 30 715 l 1,23,-1
 417 715 l 2,24,25
 606 715 606 715 708 632.5 c 128,-1,26
 810 550 810 550 810 357 c 0,27,28
 810 258 810 258 782.5 187.5 c 128,-1,29
 755 117 755 117 701.5 76.5 c 128,-1,30
 648 36 648 36 578.5 18 c 128,-1,31
 509 0 509 0 417 0 c 2,32,-1
 30 0 l 1,18,-1
EndSplineSet
Substitution2: "sous-table 'c2sc' Capitales vers petites capitales dans Latin lookup 0" d.sc
EndChar

StartChar: E
Encoding: 37 69 40
Width: 722
Flags: W
TeX: 715 0
HStem: 0 30<30 126 282 490.404> 350 30<282 369.012> 489 21G<610 648> 685 30<30 126 282 470.759>
VStem: 126 156<30 350 380 685> 447 30<199 280.947 451.686 525> 618 30<489 550.729> 646 30<175.743 241>
LayerCount: 2
Fore
SplineSet
30 0 m 1,0,-1
 30 30 l 1,1,-1
 126 30 l 1,2,-1
 126 685 l 1,3,-1
 30 685 l 1,4,-1
 30 715 l 1,5,-1
 648 715 l 1,6,-1
 648 489 l 1,7,-1
 618 489 l 1,8,9
 602 598 602 598 535.5 641.5 c 128,-1,10
 469 685 469 685 354 685 c 2,11,-1
 282 685 l 1,12,-1
 282 380 l 1,13,14
 447 380 447 380 447 525 c 1,15,-1
 477 525 l 1,16,-1
 477 199 l 1,17,-1
 447 199 l 1,18,19
 447 283 447 283 406 316.5 c 128,-1,20
 365 350 365 350 282 350 c 1,21,-1
 282 30 l 1,22,-1
 387 30 l 2,23,24
 433 30 433 30 473 40 c 128,-1,25
 513 50 513 50 551 72.5 c 128,-1,26
 589 95 589 95 614 138 c 128,-1,27
 639 181 639 181 646 241 c 1,28,-1
 676 241 l 1,29,-1
 676 0 l 1,30,-1
 30 0 l 1,0,-1
EndSplineSet
Substitution2: "sous-table 'c2sc' Capitales vers petites capitales dans Latin lookup 0" e.sc
EndChar

StartChar: F
Encoding: 38 70 41
Width: 667
Flags: W
TeX: 715 0
HStem: 0 30<18 114 270 372> 338 30<270 388.534> 489 21G<611 649> 685 30<18 114 270 471.759>
VStem: 114 156<30 338 368 685> 459 30<187 275.257 430.743 519> 619 30<489 550.729>
LayerCount: 2
Fore
SplineSet
649 715 m 1,0,-1
 649 489 l 1,1,-1
 619 489 l 1,2,3
 603 598 603 598 536.5 641.5 c 128,-1,4
 470 685 470 685 355 685 c 2,5,-1
 270 685 l 1,6,-1
 270 368 l 1,7,8
 319 368 319 368 348 372 c 128,-1,9
 377 376 377 376 405.5 390.5 c 128,-1,10
 434 405 434 405 446.5 436.5 c 128,-1,11
 459 468 459 468 459 519 c 1,12,-1
 489 519 l 1,13,-1
 489 187 l 1,14,-1
 459 187 l 1,15,16
 459 238 459 238 446.5 269.5 c 128,-1,17
 434 301 434 301 405.5 315.5 c 128,-1,18
 377 330 377 330 348 334 c 128,-1,19
 319 338 319 338 270 338 c 1,20,-1
 270 30 l 1,21,-1
 372 30 l 1,22,-1
 372 0 l 1,23,-1
 18 0 l 1,24,-1
 18 30 l 1,25,-1
 114 30 l 1,26,-1
 114 685 l 1,27,-1
 18 685 l 1,28,-1
 18 715 l 1,29,-1
 649 715 l 1,0,-1
EndSplineSet
Substitution2: "sous-table 'c2sc' Capitales vers petites capitales dans Latin lookup 0" f.sc
EndChar

StartChar: G
Encoding: 39 71 42
Width: 852
Flags: W
TeX: 727 12
HStem: -12 30<359.146 528.845> 323 30<517 605 761 849> 495 21G<689.5 726> 697 30<383.062 558.777>
VStem: 60 168<221.002 488.739> 605 156<69.875 323> 696 30<495 553.368>
LayerCount: 2
Fore
SplineSet
517 323 m 1,0,-1
 517 353 l 1,1,-1
 849 353 l 1,2,-1
 849 323 l 1,3,-1
 761 323 l 1,4,-1
 761 72 l 1,5,6
 576 -12 576 -12 436 -12 c 0,7,8
 267 -12 267 -12 163.5 89.5 c 128,-1,9
 60 191 60 191 60 361 c 0,10,11
 60 526 60 526 176 626.5 c 128,-1,12
 292 727 292 727 462 727 c 0,13,14
 579 727 579 727 726 677 c 1,15,-1
 726 495 l 1,16,-1
 696 495 l 1,17,18
 683 586 683 586 624 641.5 c 128,-1,19
 565 697 565 697 475 697 c 0,20,21
 403 697 403 697 352.5 669.5 c 128,-1,22
 302 642 302 642 276 592.5 c 128,-1,23
 250 543 250 543 239 486.5 c 128,-1,24
 228 430 228 430 228 358 c 0,25,26
 228 325 228 325 229 299 c 128,-1,27
 230 273 230 273 235 236 c 128,-1,28
 240 199 240 199 248.5 171 c 128,-1,29
 257 143 257 143 272.5 113 c 128,-1,30
 288 83 288 83 309.5 63 c 128,-1,31
 331 43 331 43 364 30.5 c 128,-1,32
 397 18 397 18 438 18 c 0,33,34
 514 18 514 18 559.5 48 c 128,-1,35
 605 78 605 78 605 140 c 2,36,-1
 605 323 l 1,37,-1
 517 323 l 1,0,-1
EndSplineSet
Substitution2: "sous-table 'c2sc' Capitales vers petites capitales dans Latin lookup 0" g.sc
EndChar

StartChar: H
Encoding: 40 72 43
Width: 852
Flags: W
TeX: 715 0
HStem: 0 30<30 126 282 378 474 570 726 822> 350 30<282 570> 685 30<30 126 282 378 474 570 726 822>
VStem: 126 156<30 350 380 685> 570 156<30 350 380 685>
LayerCount: 2
Fore
SplineSet
30 0 m 1,0,-1
 30 30 l 1,1,-1
 126 30 l 1,2,-1
 126 685 l 1,3,-1
 30 685 l 1,4,-1
 30 715 l 1,5,-1
 378 715 l 1,6,-1
 378 685 l 1,7,-1
 282 685 l 1,8,-1
 282 380 l 1,9,-1
 570 380 l 1,10,-1
 570 685 l 1,11,-1
 474 685 l 1,12,-1
 474 715 l 1,13,-1
 822 715 l 1,14,-1
 822 685 l 1,15,-1
 726 685 l 1,16,-1
 726 30 l 1,17,-1
 822 30 l 1,18,-1
 822 0 l 1,19,-1
 474 0 l 1,20,-1
 474 30 l 1,21,-1
 570 30 l 1,22,-1
 570 350 l 1,23,-1
 282 350 l 1,24,-1
 282 30 l 1,25,-1
 378 30 l 1,26,-1
 378 0 l 1,27,-1
 30 0 l 1,0,-1
EndSplineSet
Substitution2: "sous-table 'c2sc' Capitales vers petites capitales dans Latin lookup 0" h.sc
EndChar

StartChar: I
Encoding: 41 73 44
Width: 408
Flags: W
TeX: 715 0
HStem: 0 30<30 126 282 378> 685 30<30 126 282 378>
VStem: 126 156<30 685>
LayerCount: 2
Fore
SplineSet
30 0 m 1,0,-1
 30 30 l 1,1,-1
 126 30 l 1,2,-1
 126 685 l 1,3,-1
 30 685 l 1,4,-1
 30 715 l 1,5,-1
 378 715 l 1,6,-1
 378 685 l 1,7,-1
 282 685 l 1,8,-1
 282 30 l 1,9,-1
 378 30 l 1,10,-1
 378 0 l 1,11,-1
 30 0 l 1,0,-1
EndSplineSet
Substitution2: "sous-table 'c2sc' Capitales vers petites capitales dans Latin lookup 0" i.sc
EndChar

StartChar: J
Encoding: 42 74 45
Width: 519
Flags: W
TeX: 715 12
HStem: -12 30<99.2145 205.071> 685 30<141 237 393 489>
VStem: -4 97<43.2908 130.5> 237 156<69.9062 685>
LayerCount: 2
Fore
SplineSet
141 685 m 1,0,-1
 141 715 l 1,1,-1
 489 715 l 1,2,-1
 489 685 l 1,3,-1
 393 685 l 1,4,-1
 393 172 l 2,5,6
 393 84 393 84 347 36 c 128,-1,7
 301 -12 301 -12 182 -12 c 0,8,9
 103 -12 103 -12 49.5 17 c 128,-1,10
 -4 46 -4 46 -4 116 c 0,11,12
 -4 145 -4 145 13.5 168 c 128,-1,13
 31 191 31 191 69 191 c 0,14,15
 101 191 101 191 117.5 172 c 128,-1,16
 134 153 134 153 134 123 c 128,-1,17
 134 93 134 93 113.5 75.5 c 128,-1,18
 93 58 93 58 93 47 c 0,19,20
 93 34 93 34 109 26 c 128,-1,21
 125 18 125 18 145 18 c 0,22,23
 194 18 194 18 215.5 40.5 c 128,-1,24
 237 63 237 63 237 116 c 2,25,-1
 237 685 l 1,26,-1
 141 685 l 1,0,-1
EndSplineSet
Substitution2: "sous-table 'c2sc' Capitales vers petites capitales dans Latin lookup 0" j.sc
EndChar

StartChar: K
Encoding: 43 75 46
Width: 796
Flags: W
TeX: 715 0
HStem: 0 30<30 126 282 378 445 535 724 796> 362 30<282 337> 685 30<30 126 282 378 461 565 609 713>
VStem: 126 156<30 362 392 685>
LayerCount: 2
Fore
SplineSet
30 0 m 1,0,-1
 30 30 l 1,1,-1
 126 30 l 1,2,-1
 126 685 l 1,3,-1
 30 685 l 1,4,-1
 30 715 l 1,5,-1
 378 715 l 1,6,-1
 378 685 l 1,7,-1
 282 685 l 1,8,-1
 282 392 l 1,9,-1
 337 392 l 1,10,-1
 565 685 l 1,11,-1
 461 685 l 1,12,-1
 461 715 l 1,13,-1
 713 715 l 1,14,-1
 713 685 l 1,15,-1
 609 685 l 1,16,-1
 444 478 l 1,17,-1
 724 30 l 1,18,-1
 796 30 l 1,19,-1
 796 0 l 1,20,-1
 445 0 l 1,21,-1
 445 30 l 1,22,-1
 535 30 l 1,23,-1
 338 362 l 1,24,-1
 282 362 l 1,25,-1
 282 30 l 1,26,-1
 378 30 l 1,27,-1
 378 0 l 1,28,-1
 30 0 l 1,0,-1
EndSplineSet
Substitution2: "sous-table 'c2sc' Capitales vers petites capitales dans Latin lookup 0" k.sc
EndChar

StartChar: L
Encoding: 44 76 47
Width: 722
Flags: W
TeX: 715 0
HStem: 0 30<30 126 282 501.167> 685 30<30 126 282 378>
VStem: 126 156<30 685> 658 30<181.533 250>
LayerCount: 2
Fore
SplineSet
30 0 m 1,0,-1
 30 30 l 1,1,-1
 126 30 l 1,2,-1
 126 685 l 1,3,-1
 30 685 l 1,4,-1
 30 715 l 1,5,-1
 378 715 l 1,6,-1
 378 685 l 1,7,-1
 282 685 l 1,8,-1
 282 30 l 1,9,-1
 399 30 l 2,10,11
 445 30 445 30 485 40 c 128,-1,12
 525 50 525 50 563 73.5 c 128,-1,13
 601 97 601 97 626 142 c 128,-1,14
 651 187 651 187 658 250 c 1,15,-1
 688 250 l 1,16,-1
 688 0 l 1,17,-1
 30 0 l 1,0,-1
EndSplineSet
Substitution2: "sous-table 'c2sc' Capitales vers petites capitales dans Latin lookup 0" l.sc
EndChar

StartChar: M
Encoding: 45 77 48
Width: 981
Flags: W
TeX: 715 12
HStem: 0 30<18 118 148 259 600 707 863 963> 685 30<18 118 863 963>
VStem: 118 30<30 631> 707 156<30 631>
LayerCount: 2
Fore
SplineSet
18 0 m 1,0,-1
 18 30 l 1,1,-1
 118 30 l 1,2,-1
 118 685 l 1,3,-1
 18 685 l 1,4,-1
 18 715 l 1,5,-1
 291 715 l 1,6,-1
 487 197 l 1,7,-1
 702 715 l 1,8,-1
 963 715 l 1,9,-1
 963 685 l 1,10,-1
 863 685 l 1,11,-1
 863 30 l 1,12,-1
 963 30 l 1,13,-1
 963 0 l 1,14,-1
 600 0 l 1,15,-1
 600 30 l 1,16,-1
 707 30 l 1,17,-1
 707 631 l 1,18,-1
 705 631 l 1,19,-1
 439 -18 l 1,20,-1
 405 -18 l 1,21,-1
 150 631 l 1,22,-1
 148 631 l 1,23,-1
 148 30 l 1,24,-1
 259 30 l 1,25,-1
 259 0 l 1,26,-1
 18 0 l 1,0,-1
EndSplineSet
Substitution2: "sous-table 'c2sc' Capitales vers petites capitales dans Latin lookup 0" m.sc
EndChar

StartChar: N
Encoding: 46 78 49
Width: 833
Flags: W
TeX: 715 12
HStem: 0 30<25 125 155 265> 685 30<25 125 567 678 708 808>
VStem: 125 30<30 649> 678 30<243 685>
LayerCount: 2
Fore
SplineSet
25 0 m 1,0,-1
 25 30 l 1,1,-1
 125 30 l 1,2,-1
 125 685 l 1,3,-1
 25 685 l 1,4,-1
 25 715 l 1,5,-1
 312 715 l 1,6,-1
 676 243 l 1,7,-1
 678 243 l 1,8,-1
 678 685 l 1,9,-1
 567 685 l 1,10,-1
 567 715 l 1,11,-1
 808 715 l 1,12,-1
 808 685 l 1,13,-1
 708 685 l 1,14,-1
 708 -12 l 1,15,-1
 684 -18 l 1,16,-1
 157 649 l 1,17,-1
 155 649 l 1,18,-1
 155 30 l 1,19,-1
 265 30 l 1,20,-1
 265 0 l 1,21,-1
 25 0 l 1,0,-1
EndSplineSet
Substitution2: "sous-table 'c2sc' Capitales vers petites capitales dans Latin lookup 0" n.sc
EndChar

StartChar: O
Encoding: 47 79 50
Width: 870
Flags: W
TeX: 727 12
HStem: -12 30<358.343 511.657> 697 30<358.343 511.657>
VStem: 60 176<221.9 493.399> 634 176<221.9 493.399>
LayerCount: 2
Fore
SplineSet
60 358 m 0,0,1
 60 521 60 521 162.5 624 c 128,-1,2
 265 727 265 727 435 727 c 128,-1,3
 605 727 605 727 707.5 624 c 128,-1,4
 810 521 810 521 810 358 c 0,5,6
 810 194 810 194 707.5 91 c 128,-1,7
 605 -12 605 -12 435 -12 c 128,-1,8
 265 -12 265 -12 162.5 91 c 128,-1,9
 60 194 60 194 60 358 c 0,0,1
236 358 m 0,10,11
 236 319 236 319 238 288 c 128,-1,12
 240 257 240 257 246 214.5 c 128,-1,13
 252 172 252 172 265.5 140 c 128,-1,14
 279 108 279 108 300 78.5 c 128,-1,15
 321 49 321 49 355.5 33.5 c 128,-1,16
 390 18 390 18 435 18 c 128,-1,17
 480 18 480 18 514.5 33.5 c 128,-1,18
 549 49 549 49 570 78.5 c 128,-1,19
 591 108 591 108 604.5 140 c 128,-1,20
 618 172 618 172 624 214.5 c 128,-1,21
 630 257 630 257 632 288 c 128,-1,22
 634 319 634 319 634 358 c 0,23,24
 634 396 634 396 632 427 c 128,-1,25
 630 458 630 458 624 500.5 c 128,-1,26
 618 543 618 543 604.5 575 c 128,-1,27
 591 607 591 607 570 636.5 c 128,-1,28
 549 666 549 666 514.5 681.5 c 128,-1,29
 480 697 480 697 435 697 c 128,-1,30
 390 697 390 697 355.5 681.5 c 128,-1,31
 321 666 321 666 300 636.5 c 128,-1,32
 279 607 279 607 265.5 575 c 128,-1,33
 252 543 252 543 246 500.5 c 128,-1,34
 240 458 240 458 238 427 c 128,-1,35
 236 396 236 396 236 358 c 0,10,11
EndSplineSet
Substitution2: "sous-table 'c2sc' Capitales vers petites capitales dans Latin lookup 0" o.sc
EndChar

StartChar: P
Encoding: 48 80 51
Width: 722
Flags: W
TeX: 715 0
HStem: 0 30<30 126 282 395> 323 30<282 453.492> 685 30<30 126 282 453.492>
VStem: 126 156<30 323 353 685> 516 176<425.346 618.167>
LayerCount: 2
Fore
SplineSet
282 685 m 1,0,-1
 282 353 l 1,1,-1
 369 353 l 2,2,3
 453 353 453 353 484.5 390 c 128,-1,4
 516 427 516 427 516 519 c 128,-1,5
 516 611 516 611 484.5 648 c 128,-1,6
 453 685 453 685 369 685 c 2,7,-1
 282 685 l 1,0,-1
30 0 m 1,8,-1
 30 30 l 1,9,-1
 126 30 l 1,10,-1
 126 685 l 1,11,-1
 30 685 l 1,12,-1
 30 715 l 1,13,-1
 423 715 l 2,14,15
 451 715 451 715 466.5 714.5 c 128,-1,16
 482 714 482 714 514 710.5 c 128,-1,17
 546 707 546 707 566.5 700 c 128,-1,18
 587 693 587 693 613 678.5 c 128,-1,19
 639 664 639 664 654.5 644 c 128,-1,20
 670 624 670 624 681 592 c 128,-1,21
 692 560 692 560 692 519 c 0,22,23
 692 469 692 469 674 432 c 128,-1,24
 656 395 656 395 629 374.5 c 128,-1,25
 602 354 602 354 561.5 342 c 128,-1,26
 521 330 521 330 484.5 326.5 c 128,-1,27
 448 323 448 323 402 323 c 2,28,-1
 282 323 l 1,29,-1
 282 30 l 1,30,-1
 395 30 l 1,31,-1
 395 0 l 1,32,-1
 30 0 l 1,8,-1
EndSplineSet
Substitution2: "sous-table 'c2sc' Capitales vers petites capitales dans Latin lookup 0" p.sc
EndChar

StartChar: Q
Encoding: 49 81 52
Width: 870
Flags: W
TeX: 727 191
HStem: -197 104<637.764 751.908> -58 88<339.461 488.621> 695 32<355.473 514.527>
VStem: 60 178<237.414 492.041> 632 178<234.193 491.791>
LayerCount: 2
Fore
SplineSet
241.5 463 m 128,-1,1
 238 420 238 420 238 354 c 128,-1,2
 238 288 238 288 245 236 c 128,-1,3
 252 184 252 184 271 133.5 c 128,-1,4
 290 83 290 83 331.5 56.5 c 128,-1,5
 373 30 373 30 435 30 c 128,-1,6
 497 30 497 30 538.5 56.5 c 128,-1,7
 580 83 580 83 599 133.5 c 128,-1,8
 618 184 618 184 625 236 c 128,-1,9
 632 288 632 288 632 354 c 128,-1,10
 632 420 632 420 628.5 463 c 128,-1,11
 625 506 625 506 612.5 552.5 c 128,-1,12
 600 599 600 599 579.5 628 c 128,-1,13
 559 657 559 657 522 676 c 128,-1,14
 485 695 485 695 435 695 c 128,-1,15
 385 695 385 695 348 676 c 128,-1,16
 311 657 311 657 290.5 628 c 128,-1,17
 270 599 270 599 257.5 552.5 c 128,-1,0
 245 506 245 506 241.5 463 c 128,-1,1
309 16 m 1,18,19
 228 40 228 40 173 93 c 0,20,21
 119 145 119 145 97 196 c 0,22,23
 60 286 60 286 60 358 c 0,24,25
 60 429 60 429 82 492.5 c 128,-1,26
 104 556 104 556 148 609.5 c 128,-1,27
 192 663 192 663 266 695 c 128,-1,28
 340 727 340 727 435 727 c 128,-1,29
 530 727 530 727 604 695 c 128,-1,30
 678 663 678 663 722 609 c 128,-1,31
 766 555 766 555 788 492 c 128,-1,32
 810 429 810 429 810 360.5 c 128,-1,33
 810 292 810 292 786 228 c 0,34,35
 724 60 724 60 546 11 c 1,36,37
 568 2 568 2 584 -19 c 0,38,39
 637 -93 637 -93 710 -93 c 128,-1,40
 783 -93 783 -93 823 -39 c 1,41,-1
 850 -39 l 1,42,43
 799 -197 799 -197 667 -197 c 0,44,45
 588 -197 588 -197 511 -101 c 0,46,47
 479 -59 479 -59 413 -58 c 0,48,49
 312 -58 312 -58 246 -139 c 1,50,-1
 216 -139 l 1,51,52
 236 -54 236 -54 306 14 c 0,53,54
 307 15 307 15 309 16 c 1,18,19
EndSplineSet
Substitution2: "sous-table 'c2sc' Capitales vers petites capitales dans Latin lookup 0" q.sc
EndChar

StartChar: R
Encoding: 50 82 53
Width: 758
Flags: W
TeX: 715 0
HStem: 0 30<30 126 282 395 686.414 744> 350 30<282 418.455> 685 30<30 126 282 411.547>
VStem: 126 156<30 350 380 684> 467 162<467.599 638.948> 492.5 162<60.2803 283.014>
LayerCount: 2
Fore
SplineSet
282 684 m 1,0,-1
 282 380 l 1,1,-1
 345 380 l 2,2,3
 412 380 412 380 439.5 410.5 c 128,-1,4
 467 441 467 441 467 532 c 0,5,6
 467 625 467 625 436 654.5 c 128,-1,7
 405 684 405 684 322 684 c 2,8,-1
 282 684 l 1,0,-1
395 0 m 1,9,-1
 30 0 l 1,10,-1
 30 30 l 1,11,-1
 126 30 l 1,12,-1
 126 685 l 1,13,-1
 30 685 l 1,14,-1
 30 715 l 1,15,-1
 362 715 l 2,16,17
 392 715 392 715 411.5 714.5 c 128,-1,18
 431 714 431 714 462 710.5 c 128,-1,19
 493 707 493 707 513 701.5 c 128,-1,20
 533 696 533 696 557 684 c 128,-1,21
 581 672 581 672 595.5 655.5 c 128,-1,22
 610 639 610 639 619.5 613.5 c 128,-1,23
 629 588 629 588 629 556 c 0,24,25
 629 476 629 476 579 433.5 c 128,-1,26
 529 391 529 391 443 371 c 1,27,-1
 443 369 l 1,28,29
 555 360 555 360 604.5 319 c 128,-1,30
 654 278 654 278 654 171 c 0,31,32
 654 143 654 143 654.5 128 c 128,-1,33
 655 113 655 113 659.5 90.5 c 128,-1,34
 664 68 664 68 673 57 c 128,-1,35
 682 46 682 46 700 37 c 128,-1,36
 718 28 718 28 744 28 c 1,37,-1
 744 0 l 1,38,-1
 638 0 l 2,39,40
 608 0 608 0 584 7 c 128,-1,41
 560 14 560 14 545 23.5 c 128,-1,42
 530 33 530 33 519.5 51 c 128,-1,43
 509 69 509 69 503.5 83 c 128,-1,44
 498 97 498 97 495.5 122 c 128,-1,45
 493 147 493 147 492.5 161 c 128,-1,46
 492 175 492 175 492 202 c 0,47,48
 492 250 492 250 481.5 280.5 c 128,-1,49
 471 311 471 311 449 325.5 c 128,-1,50
 427 340 427 340 403.5 345 c 128,-1,51
 380 350 380 350 344 350 c 2,52,-1
 282 350 l 1,53,-1
 282 30 l 1,54,-1
 395 30 l 1,55,-1
 395 0 l 1,9,-1
EndSplineSet
Substitution2: "sous-table 'c2sc' Capitales vers petites capitales dans Latin lookup 0" r.sc
EndChar

StartChar: S
Encoding: 51 83 54
Width: 593
Flags: W
TeX: 727 12
HStem: -12 36<211.615 386.465> 691 36<209.126 353.443>
VStem: 46 35<164.348 241> 57 104<477.5 609.969> 451 96<113.095 244.5> 467 34<512 566.094>
LayerCount: 2
Fore
SplineSet
55 35 m 1,0,-1
 46 241 l 1,1,-1
 81 241 l 1,2,3
 85 158 85 158 145.5 91 c 128,-1,4
 206 24 206 24 297 24 c 0,5,6
 363 24 363 24 407 53 c 128,-1,7
 451 82 451 82 451 142 c 0,8,9
 451 190 451 190 410.5 223 c 128,-1,10
 370 256 370 256 312 277.5 c 128,-1,11
 254 299 254 299 196 323.5 c 128,-1,12
 138 348 138 348 97.5 395.5 c 128,-1,13
 57 443 57 443 57 512 c 0,14,15
 57 584 57 584 93.5 634.5 c 128,-1,16
 130 685 130 685 181.5 706 c 128,-1,17
 233 727 233 727 291 727 c 0,18,19
 375 727 375 727 493 683 c 1,20,-1
 501 512 l 1,21,-1
 467 512 l 1,22,23
 452 589 452 589 400 640 c 128,-1,24
 348 691 348 691 274 691 c 0,25,26
 225 691 225 691 193 660.5 c 128,-1,27
 161 630 161 630 161 582 c 0,28,29
 161 539 161 539 201 510 c 128,-1,30
 241 481 241 481 297.5 460.5 c 128,-1,31
 354 440 354 440 410.5 414 c 128,-1,32
 467 388 467 388 507 335.5 c 128,-1,33
 547 283 547 283 547 206 c 0,34,35
 547 110 547 110 472.5 49 c 128,-1,36
 398 -12 398 -12 288 -12 c 0,37,38
 164 -12 164 -12 55 35 c 1,0,-1
EndSplineSet
Substitution2: "sous-table 'c2sc' Capitales vers petites capitales dans Latin lookup 0" s.sc
EndChar

StartChar: T
Encoding: 52 84 55
Width: 758
Flags: W
TeX: 715 0
HStem: 0 30<205 301 457 553> 685 30<177.388 301 457 580.612>
VStem: 30 30<473 556.205> 301 156<30 685> 698 30<473 556.205>
CounterMasks: 1 38
LayerCount: 2
Fore
SplineSet
205 0 m 1,0,-1
 205 30 l 1,1,-1
 301 30 l 1,2,-1
 301 685 l 1,3,-1
 264 685 l 2,4,5
 162 685 162 685 112 622.5 c 128,-1,6
 62 560 62 560 60 473 c 1,7,-1
 30 473 l 1,8,-1
 30 715 l 1,9,-1
 728 715 l 1,10,-1
 728 473 l 1,11,-1
 698 473 l 1,12,13
 696 560 696 560 646 622.5 c 128,-1,14
 596 685 596 685 494 685 c 2,15,-1
 457 685 l 1,16,-1
 457 30 l 1,17,-1
 553 30 l 1,18,-1
 553 0 l 1,19,-1
 205 0 l 1,0,-1
EndSplineSet
Substitution2: "sous-table 'c2sc' Capitales vers petites capitales dans Latin lookup 0" t.sc
EndChar

StartChar: U
Encoding: 53 85 56
Width: 796
Flags: W
TeX: 715 6
HStem: -12 36<353.103 549.251> 685 30<18 114 270 379 545 650 686 784>
VStem: 114 156<90.8521 685> 650 36<110.148 685>
LayerCount: 2
Fore
SplineSet
18 685 m 1,0,-1
 18 715 l 1,1,-1
 379 715 l 1,2,-1
 379 685 l 1,3,-1
 270 685 l 1,4,-1
 270 178 l 2,5,6
 270 97 270 97 319 60.5 c 128,-1,7
 368 24 368 24 449 24 c 0,8,9
 537 24 537 24 593.5 64.5 c 128,-1,10
 650 105 650 105 650 198 c 2,11,-1
 650 685 l 1,12,-1
 545 685 l 1,13,-1
 545 715 l 1,14,-1
 784 715 l 1,15,-1
 784 685 l 1,16,-1
 686 685 l 1,17,-1
 686 204 l 2,18,19
 686 154 686 154 672 116 c 128,-1,20
 658 78 658 78 634 54 c 128,-1,21
 610 30 610 30 574.5 15 c 128,-1,22
 539 0 539 0 500 -6 c 128,-1,23
 461 -12 461 -12 413 -12 c 0,24,25
 258 -12 258 -12 186 28.5 c 128,-1,26
 114 69 114 69 114 184 c 2,27,-1
 114 685 l 1,28,-1
 18 685 l 1,0,-1
EndSplineSet
Substitution2: "sous-table 'c2sc' Capitales vers petites capitales dans Latin lookup 0" u.sc
EndChar

StartChar: V
Encoding: 54 86 57
Width: 704
Flags: W
TeX: 715 12
HStem: 685 30<5 84 260 363 484 583 623 699>
LayerCount: 2
Fore
SplineSet
333 -12 m 1,0,-1
 84 685 l 1,1,-1
 5 685 l 1,2,-1
 5 715 l 1,3,-1
 363 715 l 1,4,-1
 363 685 l 1,5,-1
 260 685 l 1,6,-1
 417 217 l 1,7,-1
 419 217 l 1,8,-1
 583 685 l 1,9,-1
 484 685 l 1,10,-1
 484 715 l 1,11,-1
 699 715 l 1,12,-1
 699 685 l 1,13,-1
 623 685 l 1,14,-1
 365 -12 l 1,15,-1
 333 -12 l 1,0,-1
EndSplineSet
Substitution2: "sous-table 'c2sc' Capitales vers petites capitales dans Latin lookup 0" v.sc
EndChar

StartChar: W
Encoding: 55 87 58
Width: 1130
Flags: W
TeX: 715 12
HStem: 685 30<9 81 250 346 451 547 724 820 925 1021 1052 1121>
LayerCount: 2
Fore
SplineSet
318 -12 m 1,0,-1
 81 685 l 1,1,-1
 9 685 l 1,2,-1
 9 715 l 1,3,-1
 346 715 l 1,4,-1
 346 685 l 1,5,-1
 250 685 l 1,6,-1
 398 227 l 1,7,-1
 400 227 l 1,8,-1
 547 685 l 1,9,-1
 451 685 l 1,10,-1
 451 715 l 1,11,-1
 820 715 l 1,12,-1
 820 685 l 1,13,-1
 724 685 l 1,14,-1
 872 227 l 1,15,-1
 874 227 l 1,16,-1
 1021 685 l 1,17,-1
 925 685 l 1,18,-1
 925 715 l 1,19,-1
 1121 715 l 1,20,-1
 1121 685 l 1,21,-1
 1052 685 l 1,22,-1
 826 -12 l 1,23,-1
 790 -12 l 1,24,-1
 567 661 l 1,25,-1
 565 661 l 1,26,-1
 355 -12 l 1,27,-1
 318 -12 l 1,0,-1
EndSplineSet
Substitution2: "sous-table 'c2sc' Capitales vers petites capitales dans Latin lookup 0" w.sc
EndChar

StartChar: X
Encoding: 56 88 59
Width: 741
Flags: W
TeX: 715 0
HStem: 0 30<23 107 145 241 367 469 652 730> 685 30<11 83 270 374 449 545 585 675>
LayerCount: 2
Fore
SplineSet
23 0 m 1,0,-1
 23 30 l 1,1,-1
 107 30 l 1,2,-1
 300 318 l 1,3,-1
 83 685 l 1,4,-1
 11 685 l 1,5,-1
 11 715 l 1,6,-1
 374 715 l 1,7,-1
 374 685 l 1,8,-1
 270 685 l 1,9,-1
 398 465 l 1,10,-1
 545 685 l 1,11,-1
 449 685 l 1,12,-1
 449 715 l 1,13,-1
 675 715 l 1,14,-1
 675 685 l 1,15,-1
 585 685 l 1,16,-1
 416 434 l 1,17,-1
 652 30 l 1,18,-1
 730 30 l 1,19,-1
 730 0 l 1,20,-1
 367 0 l 1,21,-1
 367 30 l 1,22,-1
 469 30 l 1,23,-1
 318 287 l 1,24,-1
 145 30 l 1,25,-1
 241 30 l 1,26,-1
 241 0 l 1,27,-1
 23 0 l 1,0,-1
EndSplineSet
Substitution2: "sous-table 'c2sc' Capitales vers petites capitales dans Latin lookup 0" x.sc
EndChar

StartChar: Y
Encoding: 57 89 60
Width: 722
Flags: W
TeX: 715 0
HStem: 0 30<176 283 439 546> 685 30<3 81 266 380 495 599 641 719>
VStem: 283 156<30 358>
LayerCount: 2
Fore
SplineSet
176 0 m 1,0,-1
 176 30 l 1,1,-1
 283 30 l 1,2,-1
 283 358 l 1,3,-1
 81 685 l 1,4,-1
 3 685 l 1,5,-1
 3 715 l 1,6,-1
 380 715 l 1,7,-1
 380 685 l 1,8,-1
 266 685 l 1,9,-1
 435 406 l 1,10,-1
 599 685 l 1,11,-1
 495 685 l 1,12,-1
 495 715 l 1,13,-1
 719 715 l 1,14,-1
 719 685 l 1,15,-1
 641 685 l 1,16,-1
 439 358 l 1,17,-1
 439 30 l 1,18,-1
 546 30 l 1,19,-1
 546 0 l 1,20,-1
 176 0 l 1,0,-1
EndSplineSet
Substitution2: "sous-table 'c2sc' Capitales vers petites capitales dans Latin lookup 0" y.sc
EndChar

StartChar: Z
Encoding: 58 90 61
Width: 667
Flags: W
TeX: 715 0
HStem: 0 30<207 451.368> 685 30<256.562 460>
VStem: 69 30<484 548.336> 609 30<181.109 244>
LayerCount: 2
Fore
SplineSet
99 484 m 1,0,-1
 69 484 l 1,1,-1
 69 715 l 1,2,-1
 661 715 l 1,3,-1
 207 30 l 1,4,-1
 343 30 l 2,5,6
 408 30 408 30 461.5 48 c 128,-1,7
 515 66 515 66 557.5 116 c 128,-1,8
 600 166 600 166 609 244 c 1,9,-1
 639 244 l 1,10,-1
 639 0 l 1,11,-1
 6 0 l 1,12,-1
 460 685 l 1,13,-1
 362 685 l 2,14,15
 318 685 318 685 277 675.5 c 128,-1,16
 236 666 236 666 196 644.5 c 128,-1,17
 156 623 156 623 130 581.5 c 128,-1,18
 104 540 104 540 99 484 c 1,0,-1
EndSplineSet
Substitution2: "sous-table 'c2sc' Capitales vers petites capitales dans Latin lookup 0" z.sc
EndChar

StartChar: bracketleft
Encoding: 59 91 62
Width: 408
Flags: W
TeX: 715 249
HStem: -249 36<256 384> 679 36<256 384>
VStem: 130 126<-213 679>
LayerCount: 2
Fore
SplineSet
130 -249 m 1,0,-1
 130 715 l 1,1,-1
 384 715 l 1,2,-1
 384 679 l 1,3,-1
 256 679 l 1,4,-1
 256 -213 l 1,5,-1
 384 -213 l 1,6,-1
 384 -249 l 1,7,-1
 130 -249 l 1,0,-1
EndSplineSet
EndChar

StartChar: backslash
Encoding: 60 92 63
Width: 389
Flags: W
TeX: 727 12
HStem: 707 20G<5 118.388>
LayerCount: 2
Fore
SplineSet
278 -12 m 1,0,-1
 5 727 l 1,1,-1
 111 727 l 1,2,-1
 384 -12 l 1,3,-1
 278 -12 l 1,0,-1
EndSplineSet
EndChar

StartChar: bracketright
Encoding: 61 93 64
Width: 408
Flags: W
TeX: 715 249
HStem: -249 36<24 152> 679 36<24 152>
VStem: 152 126<-213 679>
LayerCount: 2
Fore
SplineSet
278 715 m 1,0,-1
 278 -249 l 1,1,-1
 24 -249 l 1,2,-1
 24 -213 l 1,3,-1
 152 -213 l 1,4,-1
 152 679 l 1,5,-1
 24 679 l 1,6,-1
 24 715 l 1,7,-1
 278 715 l 1,0,-1
EndSplineSet
EndChar

StartChar: asciicircum
Encoding: 62 94 65
Width: 556
Flags: W
TeX: 694 -329
HStem: 674 20G<222.301 333.699>
LayerCount: 2
Fore
SplineSet
55 329 m 1,0,-1
 232 694 l 1,1,-1
 324 694 l 1,2,-1
 501 329 l 1,3,-1
 397 329 l 1,4,-1
 278 590 l 1,5,-1
 158 329 l 1,6,-1
 55 329 l 1,0,-1
EndSplineSet
EndChar

StartChar: underscore
Encoding: 63 95 66
Width: 500
Flags: W
TeX: -75 125
HStem: -125 50<0 500>
LayerCount: 2
Fore
SplineSet
0 -125 m 1,0,-1
 0 -75 l 1,1,-1
 500 -75 l 1,2,-1
 500 -125 l 1,3,-1
 0 -125 l 1,0,-1
EndSplineSet
EndChar

StartChar: quoteleft
Encoding: 211 8216 67
Width: 222
Flags: W
TeX: 727 -403
HStem: 396 156<74.7815 176.826> 707 20G<131 173.286>
VStem: 20 182<434.319 528.84>
LayerCount: 2
Fore
SplineSet
164 727 m 1,0,-1
 177 699 l 1,1,2
 130 678 130 678 100.5 635 c 128,-1,3
 71 592 71 592 74 542 c 1,4,5
 99 552 99 552 125 552 c 0,6,7
 156 552 156 552 179 531 c 128,-1,8
 202 510 202 510 202 477 c 0,9,10
 202 441 202 441 178 418.5 c 128,-1,11
 154 396 154 396 118 396 c 0,12,13
 67 396 67 396 43.5 431 c 128,-1,14
 20 466 20 466 20 518 c 0,15,16
 20 588 20 588 59 642 c 128,-1,17
 98 696 98 696 164 727 c 1,0,-1
EndSplineSet
EndChar

StartChar: a
Encoding: 65 97 68
Width: 593
Flags: W
TeX: 502 12
HStem: -12 48<161 309.607> 0 30<518.307 574> 339 141.5<110.339 177.589> 472 30<214.87 334.292>
VStem: 45 144<56.9958 225.766> 79 113<352.923 449.27> 359 144<79.9729 301 322.75 437.645>
LayerCount: 2
Fore
SplineSet
503 351 m 2,0,-1
 503 114 l 2,1,2
 503 64 503 64 516.5 47 c 128,-1,3
 530 30 530 30 574 30 c 1,4,-1
 574 0 l 1,5,6
 500 -6 500 -6 462 -6 c 0,7,8
 414 -6 414 -6 391.5 9 c 128,-1,9
 369 24 369 24 362 66 c 1,10,-1
 360 66 l 1,11,12
 333 -12 333 -12 198 -12 c 0,13,14
 124 -12 124 -12 84.5 30.5 c 128,-1,15
 45 73 45 73 45 147 c 0,16,17
 45 176 45 176 52.5 198.5 c 128,-1,18
 60 221 60 221 73.5 235 c 128,-1,19
 87 249 87 249 106.5 260 c 128,-1,20
 126 271 126 271 149.5 277 c 128,-1,21
 173 283 173 283 200.5 289.5 c 128,-1,22
 228 296 228 296 259 301 c 0,23,24
 319 314 319 314 359 331 c 1,25,-1
 359 393 l 2,26,27
 359 432 359 432 340.5 452 c 128,-1,28
 322 472 322 472 271 472 c 0,29,30
 233 472 233 472 215.5 458.5 c 128,-1,31
 198 445 198 445 195.5 425.5 c 128,-1,32
 193 406 193 406 192 386 c 128,-1,33
 191 366 191 366 178 352.5 c 128,-1,34
 165 339 165 339 134 339 c 0,35,36
 79 339 79 339 79 393 c 0,37,38
 79 424 79 424 98 446.5 c 128,-1,39
 117 469 117 469 148 480.5 c 128,-1,40
 179 492 179 492 209 497 c 128,-1,41
 239 502 239 502 269 502 c 0,42,43
 314 502 314 502 345 499.5 c 128,-1,44
 376 497 376 497 408.5 488 c 128,-1,45
 441 479 441 479 460 463 c 128,-1,46
 479 447 479 447 491 419 c 128,-1,47
 503 391 503 391 503 351 c 2,0,-1
359 215 m 2,48,-1
 359 301 l 1,49,-1
 273 270 l 2,50,51
 229 255 229 255 209 225.5 c 128,-1,52
 189 196 189 196 189 132 c 0,53,54
 189 36 189 36 263 36 c 0,55,56
 290 36 290 36 309.5 50 c 128,-1,57
 329 64 329 64 338 81.5 c 128,-1,58
 347 99 347 99 352.5 127.5 c 128,-1,59
 358 156 358 156 358.5 173 c 128,-1,60
 359 190 359 190 359 215 c 2,48,-1
EndSplineSet
Substitution2: "sous-table 'smcp' Bas-de-casse vers petites capitales dans Latin lookup 0" a.sc
EndChar

StartChar: b
Encoding: 66 98 69
Width: 630
Flags: W
TeX: 715 12
HStem: -12 42<267.308 382.272> 0 21G<72 216> 460 42<271.162 386.583> 685 30<0 71.7422>
VStem: 72 144<0 64 81.0435 403.966 427 685> 429 156<136.051 361.44>
LayerCount: 2
Fore
SplineSet
213 245 m 0,0,1
 213 201 213 201 216 170 c 128,-1,2
 219 139 219 139 229 103.5 c 128,-1,3
 239 68 239 68 263.5 49 c 128,-1,4
 288 30 288 30 325 30 c 0,5,6
 381 30 381 30 405 81.5 c 128,-1,7
 429 133 429 133 429 245 c 0,8,9
 429 288 429 288 428 314 c 128,-1,10
 427 340 427 340 421 371 c 128,-1,11
 415 402 415 402 404.5 419 c 128,-1,12
 394 436 394 436 374 448 c 128,-1,13
 354 460 354 460 325 460 c 0,14,15
 295 460 295 460 273 444.5 c 128,-1,16
 251 429 251 429 240 408 c 128,-1,17
 229 387 229 387 222.5 355 c 128,-1,18
 216 323 216 323 214.5 299 c 128,-1,19
 213 275 213 275 213 245 c 0,0,1
72 0 m 1,20,-1
 72 685 l 1,21,-1
 0 685 l 1,22,-1
 0 715 l 1,23,-1
 62 715 l 2,24,25
 140 715 140 715 216 721 c 1,26,-1
 216 427 l 1,27,-1
 218 427 l 1,28,29
 259 502 259 502 361 502 c 0,30,31
 466 502 466 502 525.5 427.5 c 128,-1,32
 585 353 585 353 585 245 c 0,33,34
 585 140 585 140 517.5 64 c 128,-1,35
 450 -12 450 -12 348 -12 c 0,36,37
 306 -12 306 -12 270.5 7 c 128,-1,38
 235 26 235 26 218 64 c 1,39,-1
 216 64 l 1,40,-1
 216 0 l 1,41,-1
 72 0 l 1,20,-1
EndSplineSet
Substitution2: "sous-table 'smcp' Bas-de-casse vers petites capitales dans Latin lookup 0" b.sc
EndChar

StartChar: c
Encoding: 67 99 70
Width: 556
Flags: W
TeX: 502 12
HStem: -12 42<261.359 404.874> 472 30<249.621 347.829>
VStem: 45 156<131.088 355.687> 366 132<338.146 442.862> 488 27<133.352 151.111>
LayerCount: 2
Fore
SplineSet
488 160 m 1,0,-1
 515 148 l 1,1,2
 463 -12 463 -12 305 -12 c 0,3,4
 188 -12 188 -12 116.5 58 c 128,-1,5
 45 128 45 128 45 245 c 0,6,7
 45 357 45 357 118 429.5 c 128,-1,8
 191 502 191 502 305 502 c 0,9,10
 339 502 339 502 369 497 c 128,-1,11
 399 492 399 492 430 479 c 128,-1,12
 461 466 461 466 479.5 439 c 128,-1,13
 498 412 498 412 498 373 c 0,14,15
 498 317 498 317 439 317 c 0,16,17
 398 317 398 317 382 337.5 c 128,-1,18
 366 358 366 358 366 401 c 0,19,20
 366 472 366 472 305 472 c 0,21,22
 280 472 280 472 261.5 464.5 c 128,-1,23
 243 457 243 457 232 438.5 c 128,-1,24
 221 420 221 420 214 403.5 c 128,-1,25
 207 387 207 387 204.5 355 c 128,-1,26
 202 323 202 323 201.5 303.5 c 128,-1,27
 201 284 201 284 201 245 c 0,28,29
 201 218 201 218 202.5 196.5 c 128,-1,30
 204 175 204 175 208 148.5 c 128,-1,31
 212 122 212 122 221.5 102.5 c 128,-1,32
 231 83 231 83 245 65.5 c 128,-1,33
 259 48 259 48 281.5 39 c 128,-1,34
 304 30 304 30 334 30 c 0,35,36
 439 30 439 30 488 160 c 1,0,-1
EndSplineSet
Substitution2: "sous-table 'smcp' Bas-de-casse vers petites capitales dans Latin lookup 0" c.sc
EndChar

StartChar: d
Encoding: 68 100 71
Width: 648
Flags: W
TeX: 715 12
HStem: -12 42<243.977 356.343> 0 30<554 626> 460 42<239.871 359.571> 685 30<338 409.742>
VStem: 45 152<120.43 361.44> 410 144<30 58 81.0435 403.966 430 685>
LayerCount: 2
Fore
SplineSet
410 -6 m 1,0,-1
 410 58 l 1,1,-1
 408 58 l 1,2,3
 365 -12 365 -12 261 -12 c 0,4,5
 153 -12 153 -12 99 60.5 c 128,-1,6
 45 133 45 133 45 245 c 0,7,8
 45 353 45 353 104.5 427.5 c 128,-1,9
 164 502 164 502 269 502 c 0,10,11
 375 502 375 502 408 430 c 1,12,-1
 410 430 l 1,13,-1
 410 685 l 1,14,-1
 338 685 l 1,15,-1
 338 715 l 1,16,-1
 400 715 l 2,17,18
 478 715 478 715 554 721 c 1,19,-1
 554 30 l 1,20,-1
 626 30 l 1,21,-1
 626 0 l 1,22,23
 477 -2 477 -2 410 -6 c 1,0,-1
413 245 m 0,24,25
 413 275 413 275 411.5 299 c 128,-1,26
 410 323 410 323 403.5 355 c 128,-1,27
 397 387 397 387 386 408 c 128,-1,28
 375 429 375 429 353 444.5 c 128,-1,29
 331 460 331 460 301 460 c 0,30,31
 272 460 272 460 252 448 c 128,-1,32
 232 436 232 436 221.5 419 c 128,-1,33
 211 402 211 402 205 371 c 128,-1,34
 199 340 199 340 198 314 c 128,-1,35
 197 288 197 288 197 245 c 0,36,37
 197 133 197 133 221 81.5 c 128,-1,38
 245 30 245 30 301 30 c 0,39,40
 338 30 338 30 362.5 49 c 128,-1,41
 387 68 387 68 397 103.5 c 128,-1,42
 407 139 407 139 410 170 c 128,-1,43
 413 201 413 201 413 245 c 0,24,25
EndSplineSet
Substitution2: "sous-table 'smcp' Bas-de-casse vers petites capitales dans Latin lookup 0" d.sc
EndChar

StartChar: e
Encoding: 69 101 72
Width: 574
Flags: W
TeX: 502 12
HStem: -12 42<262.585 410.271> 270 30<201 381> 472 30<249.952 345.126>
VStem: 45 156<131.771 270 300 355.687> 381 156<300 378.946>
LayerCount: 2
Fore
SplineSet
537 270 m 1,0,-1
 201 270 l 1,1,-1
 201 227 l 2,2,3
 201 30 201 30 331 30 c 0,4,5
 446 30 446 30 501 150 c 1,6,-1
 528 138 l 1,7,8
 468 -12 468 -12 305 -12 c 0,9,10
 188 -12 188 -12 116.5 58 c 128,-1,11
 45 128 45 128 45 245 c 0,12,13
 45 357 45 357 118 429.5 c 128,-1,14
 191 502 191 502 305 502 c 0,15,16
 406 502 406 502 471.5 440 c 128,-1,17
 537 378 537 378 537 270 c 1,0,-1
201 300 m 1,18,-1
 381 300 l 1,19,-1
 381 346 l 2,20,21
 381 472 381 472 299 472 c 0,22,23
 280 472 280 472 264.5 465 c 128,-1,24
 249 458 249 458 239.5 450 c 128,-1,25
 230 442 230 442 222.5 424 c 128,-1,26
 215 406 215 406 211.5 395.5 c 128,-1,27
 208 385 208 385 205.5 361.5 c 128,-1,28
 203 338 203 338 202.5 330.5 c 128,-1,29
 202 323 202 323 201 300 c 1,18,-1
EndSplineSet
Substitution2: "sous-table 'smcp' Bas-de-casse vers petites capitales dans Latin lookup 0" e.sc
EndChar

StartChar: f
Encoding: 70 102 73
Width: 352
Flags: W
TeX: 727 0
HStem: 0 30<15 87 231 314> 460 30<15 87 231 314> 549 158.5<334.391 419.695> 697 30<244.61 307.967>
VStem: 87 144<30 460 490 647.551> 323 126<561.25 678.203>
LayerCount: 2
Fore
SplineSet
15 0 m 5,0,-1
 15 30 l 5,1,-1
 87 30 l 5,2,-1
 87 460 l 5,3,-1
 15 460 l 5,4,-1
 15 490 l 5,5,-1
 87 490 l 5,6,-1
 87 551 l 2,7,8
 87 727 87 727 287 727 c 0,9,10
 308 727 308 727 332.5 722.5 c 128,-1,11
 357 718 357 718 385 707.5 c 128,-1,12
 413 697 413 697 431 674 c 128,-1,13
 449 651 449 651 449 619 c 0,14,15
 449 549 449 549 387 549 c 0,16,17
 323 549 323 549 323 613 c 0,18,19
 323 633 323 633 322 643.5 c 128,-1,20
 321 654 321 654 317.5 669 c 128,-1,21
 314 684 314 684 304.5 690.5 c 128,-1,22
 295 697 295 697 280 697 c 0,23,24
 250 697 250 697 240.5 677 c 128,-1,25
 231 657 231 657 231 622 c 2,26,-1
 231 490 l 5,27,-1
 314 490 l 5,28,-1
 314 460 l 5,29,-1
 231 460 l 5,30,-1
 231 30 l 5,31,-1
 314 30 l 5,32,-1
 314 0 l 5,33,-1
 15 0 l 5,0,-1
EndSplineSet
Substitution2: "sous-table 'smcp' Bas-de-casse vers petites capitales dans Latin lookup 0" f.sc
EndChar

StartChar: g
Encoding: 71 103 74
Width: 610
Flags: W
TeX: 502 220
HStem: -220 30<188.267 388.089> -4 129<155.514 426.219> 190 30<249.129 326.93> 454 48<467.767 539> 472 30<249.179 326.757>
VStem: 38 90<-151.459 -36.431> 51 60<101 192.69> 95 126<267.095 421.638> 355 126<265.767 439.647> 461 84<-116.087 -4.5> 503 96<393.862 453.803>
LayerCount: 2
Fore
SplineSet
461 -86 m 0,0,1
 461 -57 461 -57 443 -38.5 c 128,-1,2
 425 -20 425 -20 392 -13 c 128,-1,3
 359 -6 359 -6 337.5 -4.5 c 128,-1,4
 316 -3 316 -3 284 -3 c 128,-1,5
 252 -3 252 -3 234 -4 c 128,-1,6
 216 -5 216 -5 192.5 -10 c 128,-1,7
 169 -15 169 -15 157 -24.5 c 128,-1,8
 145 -34 145 -34 136.5 -52 c 128,-1,9
 128 -70 128 -70 128 -96 c 0,10,11
 128 -143 128 -143 170 -166.5 c 128,-1,12
 212 -190 212 -190 276 -190 c 0,13,14
 461 -190 461 -190 461 -86 c 0,0,1
288 220 m 128,-1,16
 312 220 312 220 326.5 232.5 c 128,-1,17
 341 245 341 245 346.5 268.5 c 128,-1,18
 352 292 352 292 353.5 307 c 128,-1,19
 355 322 355 322 355 346 c 128,-1,20
 355 370 355 370 353.5 385 c 128,-1,21
 352 400 352 400 346.5 423.5 c 128,-1,22
 341 447 341 447 326.5 459.5 c 128,-1,23
 312 472 312 472 288 472 c 128,-1,24
 264 472 264 472 249.5 459.5 c 128,-1,25
 235 447 235 447 229.5 423.5 c 128,-1,26
 224 400 224 400 222.5 385 c 128,-1,27
 221 370 221 370 221 346 c 128,-1,28
 221 322 221 322 222.5 307 c 128,-1,29
 224 292 224 292 229.5 268.5 c 128,-1,30
 235 245 235 245 249.5 232.5 c 128,-1,15
 264 220 264 220 288 220 c 128,-1,16
197 125 m 2,31,-1
 320 121 l 2,32,33
 361 120 361 120 384.5 118 c 128,-1,34
 408 116 408 116 443 107.5 c 128,-1,35
 478 99 478 99 497 85 c 128,-1,36
 516 71 516 71 530.5 43 c 128,-1,37
 545 15 545 15 545 -24 c 0,38,39
 545 -125 545 -125 468.5 -172.5 c 128,-1,40
 392 -220 392 -220 273 -220 c 0,41,42
 251 -220 251 -220 227 -218 c 128,-1,43
 203 -216 203 -216 167.5 -208.5 c 128,-1,44
 132 -201 132 -201 105 -188.5 c 128,-1,45
 78 -176 78 -176 58 -151.5 c 128,-1,46
 38 -127 38 -127 38 -95 c 0,47,48
 38 -51 38 -51 72.5 -25 c 128,-1,49
 107 1 107 1 154 7 c 1,50,-1
 154 9 l 1,51,52
 107 13 107 13 79 45 c 128,-1,53
 51 77 51 77 51 125 c 0,54,55
 51 165 51 165 75.5 196.5 c 128,-1,56
 100 228 100 228 139 243 c 1,57,58
 95 281 95 281 95 337 c 0,59,60
 95 418 95 418 152 460 c 128,-1,61
 209 502 209 502 294 502 c 0,62,63
 387 502 387 502 440 450 c 1,64,65
 446 458 446 458 454.5 467 c 128,-1,66
 463 476 463 476 472 484 c 128,-1,67
 481 492 481 492 494.5 497 c 128,-1,68
 508 502 508 502 524 502 c 0,69,70
 554 502 554 502 576.5 480 c 128,-1,71
 599 458 599 458 599 426 c 0,72,73
 599 405 599 405 585.5 393.5 c 128,-1,74
 572 382 572 382 552 382 c 0,75,76
 535 382 535 382 524.5 387 c 128,-1,77
 514 392 514 392 509.5 402 c 128,-1,78
 505 412 505 412 504 419 c 128,-1,79
 503 426 503 426 503 438 c 0,80,81
 503 454 503 454 490 454 c 0,82,83
 482 454 482 454 459 431 c 1,84,85
 481 389 481 389 481 345 c 0,86,87
 481 269 481 269 422.5 229.5 c 128,-1,88
 364 190 364 190 285 190 c 0,89,90
 213 190 213 190 163 225 c 1,91,92
 135 212 135 212 123 201.5 c 128,-1,93
 111 191 111 191 111 175 c 0,94,95
 111 127 111 127 197 125 c 2,31,-1
EndSplineSet
Substitution2: "sous-table 'smcp' Bas-de-casse vers petites capitales dans Latin lookup 0" g.sc
EndChar

StartChar: h
Encoding: 72 104 75
Width: 667
Flags: W
TeX: 715 0
HStem: 0 30<23 95 239 311 356 428 572 644> 454 48<303.207 405.446> 685 30<23 94.625>
VStem: 95 144<30 398.931 422 685> 428 144<30 429.75>
LayerCount: 2
Fore
SplineSet
23 0 m 1,0,-1
 23 30 l 1,1,-1
 95 30 l 1,2,-1
 95 685 l 1,3,-1
 23 685 l 1,4,-1
 23 715 l 1,5,-1
 85 715 l 2,6,7
 162 715 162 715 239 721 c 1,8,-1
 239 422 l 1,9,-1
 241 422 l 1,10,11
 292 502 292 502 400 502 c 0,12,13
 479 502 479 502 525.5 460 c 128,-1,14
 572 418 572 418 572 337 c 2,15,-1
 572 30 l 1,16,-1
 644 30 l 1,17,-1
 644 0 l 1,18,-1
 356 0 l 1,19,-1
 356 30 l 1,20,-1
 428 30 l 1,21,-1
 428 357 l 2,22,23
 428 454 428 454 350 454 c 0,24,25
 306 454 306 454 272.5 415.5 c 128,-1,26
 239 377 239 377 239 316 c 2,27,-1
 239 30 l 1,28,-1
 311 30 l 1,29,-1
 311 0 l 1,30,-1
 23 0 l 1,0,-1
EndSplineSet
Substitution2: "sous-table 'smcp' Bas-de-casse vers petites capitales dans Latin lookup 0" h.sc
EndChar

StartChar: i
Encoding: 73 105 76
Width: 334
Flags: W
TeX: 706 0
HStem: 0 30<23 95 239 311> 460 30<23 94.625> 571 156<113.446 220.554>
VStem: 95 144<30 460 594.721 703.279>
LayerCount: 2
Fore
SplineSet
23 0 m 5,0,-1
 23 30 l 5,1,-1
 95 30 l 5,2,-1
 95 460 l 5,3,-1
 23 460 l 5,4,-1
 23 490 l 5,5,-1
 85 490 l 6,6,7
 162 490 162 490 239 496 c 5,8,-1
 239 30 l 5,9,-1
 311 30 l 5,10,-1
 311 0 l 5,11,-1
 23 0 l 5,0,-1
89 649 m 128,-1,13
 89 681 89 681 112 704 c 128,-1,14
 135 727 135 727 167 727 c 128,-1,15
 199 727 199 727 222 704 c 128,-1,16
 245 681 245 681 245 649 c 128,-1,17
 245 617 245 617 222 594 c 128,-1,18
 199 571 199 571 167 571 c 128,-1,19
 135 571 135 571 112 594 c 128,-1,12
 89 617 89 617 89 649 c 128,-1,13
EndSplineSet
Substitution2: "sous-table 'smcp' Bas-de-casse vers petites capitales dans Latin lookup 0" i.sc
EndChar

StartChar: j
Encoding: 74 106 77
Width: 334
Flags: W
TeX: 706 220
HStem: -220 30<0 56.012> 460 30<23 94.625> 571 156<113.446 220.554>
VStem: 95 144<-116.611 460 594.721 703.279>
LayerCount: 2
Fore
SplineSet
0 -220 m 1,0,-1
 0 -190 l 1,1,2
 95 -190 95 -190 95 -83 c 2,3,-1
 95 460 l 1,4,-1
 23 460 l 1,5,-1
 23 490 l 1,6,-1
 85 490 l 2,7,8
 162 490 162 490 239 496 c 1,9,-1
 239 23 l 2,10,11
 239 -21 239 -21 235.5 -50.5 c 128,-1,12
 232 -80 232 -80 218.5 -113.5 c 128,-1,13
 205 -147 205 -147 180 -167 c 128,-1,14
 155 -187 155 -187 110 -202 c 128,-1,15
 65 -217 65 -217 0 -220 c 1,0,-1
89 649 m 128,-1,17
 89 681 89 681 112 704 c 128,-1,18
 135 727 135 727 167 727 c 128,-1,19
 199 727 199 727 222 704 c 128,-1,20
 245 681 245 681 245 649 c 128,-1,21
 245 617 245 617 222 594 c 128,-1,22
 199 571 199 571 167 571 c 128,-1,23
 135 571 135 571 112 594 c 128,-1,16
 89 617 89 617 89 649 c 128,-1,17
EndSplineSet
Substitution2: "sous-table 'smcp' Bas-de-casse vers petites capitales dans Latin lookup 0" j.sc
EndChar

StartChar: k
Encoding: 75 107 78
Width: 648
Flags: W
TeX: 715 0
HStem: 0 30<23 95 239 311 358 424 593 641> 236 30<239 285> 460 30<336 414 456 540> 685 30<23 94.625>
VStem: 95 144<30 236 266 685>
LayerCount: 2
Fore
SplineSet
23 0 m 1,0,-1
 23 30 l 1,1,-1
 95 30 l 1,2,-1
 95 685 l 1,3,-1
 23 685 l 1,4,-1
 23 715 l 1,5,-1
 85 715 l 2,6,7
 162 715 162 715 239 721 c 1,8,-1
 239 266 l 1,9,-1
 298 266 l 1,10,-1
 414 460 l 1,11,-1
 336 460 l 1,12,-1
 336 490 l 1,13,-1
 540 490 l 1,14,-1
 540 460 l 1,15,-1
 456 460 l 1,16,-1
 383 341 l 1,17,-1
 593 30 l 1,18,-1
 641 30 l 1,19,-1
 641 0 l 1,20,-1
 358 0 l 1,21,-1
 358 30 l 1,22,-1
 424 30 l 1,23,-1
 285 236 l 1,24,-1
 239 236 l 1,25,-1
 239 30 l 1,26,-1
 311 30 l 1,27,-1
 311 0 l 1,28,-1
 23 0 l 1,0,-1
EndSplineSet
Substitution2: "sous-table 'smcp' Bas-de-casse vers petites capitales dans Latin lookup 0" k.sc
EndChar

StartChar: l
Encoding: 76 108 79
Width: 334
Flags: W
TeX: 715 0
HStem: 0 30<23 95 239 311> 685 30<23 94.625>
VStem: 95 144<30 685>
LayerCount: 2
Fore
SplineSet
23 0 m 5,0,-1
 23 30 l 5,1,-1
 95 30 l 5,2,-1
 95 685 l 5,3,-1
 23 685 l 5,4,-1
 23 715 l 5,5,-1
 85 715 l 6,6,7
 162 715 162 715 239 721 c 5,8,-1
 239 30 l 5,9,-1
 311 30 l 5,10,-1
 311 0 l 5,11,-1
 23 0 l 5,0,-1
EndSplineSet
Substitution2: "sous-table 'smcp' Bas-de-casse vers petites capitales dans Latin lookup 0" l.sc
EndChar

StartChar: m
Encoding: 77 109 80
Width: 1000
Flags: W
TeX: 502 0
HStem: 0 30<23 95 239 311 356 428 572 644 689 761 905 977> 454 48<301.213 410.735 636.53 743.694> 460 30<23 94.625>
VStem: 95 144<30 399.284 420 460> 428 144<30 399.284> 761 144<30 436.602>
CounterMasks: 1 1c
LayerCount: 2
Fore
SplineSet
23 0 m 1,0,-1
 23 30 l 1,1,-1
 95 30 l 1,2,-1
 95 460 l 1,3,-1
 23 460 l 1,4,-1
 23 490 l 1,5,-1
 85 490 l 2,6,7
 162 490 162 490 239 496 c 1,8,-1
 239 420 l 1,9,-1
 241 420 l 1,10,11
 287 502 287 502 400 502 c 0,12,13
 467 502 467 502 507.5 480.5 c 128,-1,14
 548 459 548 459 565 407 c 1,15,-1
 567 407 l 1,16,17
 589 457 589 457 635 479.5 c 128,-1,18
 681 502 681 502 733 502 c 0,19,20
 816 502 816 502 860.5 465 c 128,-1,21
 905 428 905 428 905 337 c 2,22,-1
 905 30 l 1,23,-1
 977 30 l 1,24,-1
 977 0 l 1,25,-1
 689 0 l 1,26,-1
 689 30 l 1,27,-1
 761 30 l 1,28,-1
 761 363 l 2,29,30
 761 418 761 418 740.5 436 c 128,-1,31
 720 454 720 454 683 454 c 0,32,33
 633 454 633 454 602.5 413 c 128,-1,34
 572 372 572 372 572 294 c 2,35,-1
 572 30 l 1,36,-1
 644 30 l 1,37,-1
 644 0 l 1,38,-1
 356 0 l 1,39,-1
 356 30 l 1,40,-1
 428 30 l 1,41,-1
 428 363 l 2,42,43
 428 418 428 418 407.5 436 c 128,-1,44
 387 454 387 454 350 454 c 0,45,46
 300 454 300 454 269.5 413 c 128,-1,47
 239 372 239 372 239 294 c 2,48,-1
 239 30 l 1,49,-1
 311 30 l 1,50,-1
 311 0 l 1,51,-1
 23 0 l 1,0,-1
EndSplineSet
Substitution2: "sous-table 'smcp' Bas-de-casse vers petites capitales dans Latin lookup 0" m.sc
EndChar

StartChar: n
Encoding: 78 110 81
Width: 667
Flags: W
TeX: 502 0
HStem: 0 30<23 95 239 311 356 428 572 644> 454 48<303.207 405.446> 460 30<23 94.625>
VStem: 95 144<30 398.931 422 460> 428 144<30 429.75>
LayerCount: 2
Fore
SplineSet
23 0 m 1,0,-1
 23 30 l 1,1,-1
 95 30 l 1,2,-1
 95 460 l 1,3,-1
 23 460 l 1,4,-1
 23 490 l 1,5,-1
 85 490 l 2,6,7
 162 490 162 490 239 496 c 1,8,-1
 239 422 l 1,9,-1
 241 422 l 1,10,11
 292 502 292 502 400 502 c 0,12,13
 479 502 479 502 525.5 460 c 128,-1,14
 572 418 572 418 572 337 c 2,15,-1
 572 30 l 1,16,-1
 644 30 l 1,17,-1
 644 0 l 1,18,-1
 356 0 l 1,19,-1
 356 30 l 1,20,-1
 428 30 l 1,21,-1
 428 357 l 2,22,23
 428 454 428 454 350 454 c 0,24,25
 306 454 306 454 272.5 415.5 c 128,-1,26
 239 377 239 377 239 316 c 2,27,-1
 239 30 l 1,28,-1
 311 30 l 1,29,-1
 311 0 l 1,30,-1
 23 0 l 1,0,-1
EndSplineSet
Substitution2: "sous-table 'smcp' Bas-de-casse vers petites capitales dans Latin lookup 0" n.sc
EndChar

StartChar: o
Encoding: 79 111 82
Width: 610
Flags: W
TeX: 502 12
HStem: -12 30<249.012 360.379> 472 30<249.621 360.379>
VStem: 45 156<131.088 355.687> 409 156<134.313 355.687>
LayerCount: 2
Fore
SplineSet
409 245 m 128,-1,1
 409 284 409 284 408.5 303.5 c 128,-1,2
 408 323 408 323 405.5 355 c 128,-1,3
 403 387 403 387 396 403.5 c 128,-1,4
 389 420 389 420 378 438.5 c 128,-1,5
 367 457 367 457 348.5 464.5 c 128,-1,6
 330 472 330 472 305 472 c 128,-1,7
 280 472 280 472 261.5 464.5 c 128,-1,8
 243 457 243 457 232 438.5 c 128,-1,9
 221 420 221 420 214 403.5 c 128,-1,10
 207 387 207 387 204.5 355 c 128,-1,11
 202 323 202 323 201.5 303.5 c 128,-1,12
 201 284 201 284 201 245 c 128,-1,13
 201 206 201 206 201.5 186.5 c 128,-1,14
 202 167 202 167 204.5 135 c 128,-1,15
 207 103 207 103 214 86.5 c 128,-1,16
 221 70 221 70 232 51.5 c 128,-1,17
 243 33 243 33 261.5 25.5 c 128,-1,18
 280 18 280 18 305 18 c 128,-1,19
 330 18 330 18 348.5 25.5 c 128,-1,20
 367 33 367 33 378 51.5 c 128,-1,21
 389 70 389 70 396 86.5 c 128,-1,22
 403 103 403 103 405.5 135 c 128,-1,23
 408 167 408 167 408.5 186.5 c 128,-1,0
 409 206 409 206 409 245 c 128,-1,1
565 245 m 128,-1,25
 565 133 565 133 492 60.5 c 128,-1,26
 419 -12 419 -12 305 -12 c 0,27,28
 188 -12 188 -12 116.5 58 c 128,-1,29
 45 128 45 128 45 245 c 0,30,31
 45 357 45 357 118 429.5 c 128,-1,32
 191 502 191 502 305 502 c 128,-1,33
 419 502 419 502 492 429.5 c 128,-1,24
 565 357 565 357 565 245 c 128,-1,25
EndSplineSet
Substitution2: "sous-table 'smcp' Bas-de-casse vers petites capitales dans Latin lookup 0" o.sc
EndChar

StartChar: p
Encoding: 80 112 83
Width: 648
Flags: W
TeX: 502 220
HStem: -220 30<18 90 234 306> -12 36<291.348 405.054> 460 30<18 89.7422> 466 36<296.139 405.054>
VStem: 90 144<-190 53 77.6877 397.875 421 460> 447 156<128.56 361.44>
LayerCount: 2
Fore
SplineSet
18 -220 m 1,0,-1
 18 -190 l 1,1,-1
 90 -190 l 1,2,-1
 90 460 l 1,3,-1
 18 460 l 1,4,-1
 18 490 l 1,5,-1
 80 490 l 2,6,7
 158 490 158 490 234 496 c 1,8,-1
 234 421 l 1,9,-1
 236 421 l 1,10,11
 276 502 276 502 379 502 c 0,12,13
 484 502 484 502 543.5 427.5 c 128,-1,14
 603 353 603 353 603 245 c 128,-1,15
 603 137 603 137 543.5 62.5 c 128,-1,16
 484 -12 484 -12 379 -12 c 0,17,18
 281 -12 281 -12 236 53 c 1,19,-1
 234 53 l 1,20,-1
 234 -190 l 1,21,-1
 306 -190 l 1,22,-1
 306 -220 l 1,23,-1
 18 -220 l 1,0,-1
447 245 m 128,-1,25
 447 284 447 284 446.5 303 c 128,-1,26
 446 322 446 322 443.5 353 c 128,-1,27
 441 384 441 384 434.5 400 c 128,-1,28
 428 416 428 416 417.5 433.5 c 128,-1,29
 407 451 407 451 389 458.5 c 128,-1,30
 371 466 371 466 347 466 c 0,31,32
 327 466 327 466 309 457 c 128,-1,33
 291 448 291 448 272.5 426 c 128,-1,34
 254 404 254 404 242.5 357.5 c 128,-1,35
 231 311 231 311 231 245 c 0,36,37
 231 190 231 190 237 149.5 c 128,-1,38
 243 109 243 109 252.5 85.5 c 128,-1,39
 262 62 262 62 277.5 47.5 c 128,-1,40
 293 33 293 33 309 28.5 c 128,-1,41
 325 24 325 24 347 24 c 0,42,43
 371 24 371 24 389 31.5 c 128,-1,44
 407 39 407 39 417.5 56.5 c 128,-1,45
 428 74 428 74 434.5 90 c 128,-1,46
 441 106 441 106 443.5 137 c 128,-1,47
 446 168 446 168 446.5 187 c 128,-1,24
 447 206 447 206 447 245 c 128,-1,25
EndSplineSet
Substitution2: "sous-table 'smcp' Bas-de-casse vers petites capitales dans Latin lookup 0" p.sc
EndChar

StartChar: q
Encoding: 81 113 84
Width: 648
Flags: W
TeX: 502 220
HStem: -220 30<342 414 558 630> -12 36<242.946 356.652> 466 36<242.946 351.861> 470 20G<414 558>
VStem: 45 156<128.56 361.44> 414 144<-190 53 77.6877 397.875 421 490>
LayerCount: 2
Fore
SplineSet
201 245 m 128,-1,1
 201 206 201 206 201.5 187 c 128,-1,2
 202 168 202 168 204.5 137 c 128,-1,3
 207 106 207 106 213.5 90 c 128,-1,4
 220 74 220 74 230.5 56.5 c 128,-1,5
 241 39 241 39 259 31.5 c 128,-1,6
 277 24 277 24 301 24 c 0,7,8
 323 24 323 24 339 28.5 c 128,-1,9
 355 33 355 33 370.5 47.5 c 128,-1,10
 386 62 386 62 395.5 85.5 c 128,-1,11
 405 109 405 109 411 149.5 c 128,-1,12
 417 190 417 190 417 245 c 0,13,14
 417 311 417 311 405.5 357.5 c 128,-1,15
 394 404 394 404 375.5 426 c 128,-1,16
 357 448 357 448 339 457 c 128,-1,17
 321 466 321 466 301 466 c 0,18,19
 277 466 277 466 259 458.5 c 128,-1,20
 241 451 241 451 230.5 433.5 c 128,-1,21
 220 416 220 416 213.5 400 c 128,-1,22
 207 384 207 384 204.5 353 c 128,-1,23
 202 322 202 322 201.5 303 c 128,-1,0
 201 284 201 284 201 245 c 128,-1,1
342 -220 m 1,24,-1
 342 -190 l 1,25,-1
 414 -190 l 1,26,-1
 414 53 l 1,27,-1
 412 53 l 1,28,29
 367 -12 367 -12 269 -12 c 0,30,31
 164 -12 164 -12 104.5 62.5 c 128,-1,32
 45 137 45 137 45 245 c 128,-1,33
 45 353 45 353 104.5 427.5 c 128,-1,34
 164 502 164 502 269 502 c 0,35,36
 372 502 372 502 412 421 c 1,37,-1
 414 421 l 1,38,-1
 414 490 l 1,39,-1
 558 490 l 1,40,-1
 558 -190 l 1,41,-1
 630 -190 l 1,42,-1
 630 -220 l 1,43,-1
 342 -220 l 1,24,-1
EndSplineSet
Substitution2: "sous-table 'smcp' Bas-de-casse vers petites capitales dans Latin lookup 0" q.sc
EndChar

StartChar: r
Encoding: 82 114 85
Width: 463
Flags: W
TeX: 502 0
HStem: 0 30<23 95 239 311> 454 48<294.022 375.998> 460 30<23 94.625>
VStem: 95 144<30 386.17 415 460> 337 126<348.44 453.562>
LayerCount: 2
Fore
SplineSet
23 0 m 1,0,-1
 23 30 l 1,1,-1
 95 30 l 1,2,-1
 95 460 l 1,3,-1
 23 460 l 1,4,-1
 23 490 l 1,5,-1
 85 490 l 2,6,7
 162 490 162 490 239 496 c 1,8,-1
 239 415 l 1,9,-1
 241 415 l 1,10,11
 256 454 256 454 290.5 478 c 128,-1,12
 325 502 325 502 367 502 c 0,13,14
 413 502 413 502 438 473.5 c 128,-1,15
 463 445 463 445 463 401 c 0,16,17
 463 334 463 334 398 334 c 0,18,19
 369 334 369 334 353 348 c 128,-1,20
 337 362 337 362 337 387 c 0,21,22
 337 403 337 403 338 415.5 c 128,-1,23
 339 428 339 428 339 434 c 0,24,25
 339 454 339 454 320 454 c 0,26,27
 281 454 281 454 260 384 c 128,-1,28
 239 314 239 314 239 241 c 2,29,-1
 239 30 l 1,30,-1
 311 30 l 1,31,-1
 311 0 l 1,32,-1
 23 0 l 1,0,-1
EndSplineSet
Substitution2: "sous-table 'smcp' Bas-de-casse vers petites capitales dans Latin lookup 0" r.sc
EndChar

StartChar: s
Encoding: 83 115 86
Width: 463
Flags: W
TeX: 502 12
HStem: -12 30<160.502 288.767> 472 30<168.212 276.895>
VStem: 43 30<114.868 185> 50 96<321 430.892> 324 96<76.4695 186> 351 30<341 394>
LayerCount: 2
Fore
SplineSet
43 23 m 1,0,-1
 43 185 l 1,1,-1
 73 185 l 1,2,3
 76 115 76 115 117.5 66.5 c 128,-1,4
 159 18 159 18 223 18 c 0,5,6
 266 18 266 18 295 36 c 128,-1,7
 324 54 324 54 324 90 c 0,8,9
 324 121 324 121 296 141.5 c 128,-1,10
 268 162 268 162 227.5 175.5 c 128,-1,11
 187 189 187 189 146.5 206 c 128,-1,12
 106 223 106 223 78 258.5 c 128,-1,13
 50 294 50 294 50 348 c 0,14,15
 50 422 50 422 99.5 462 c 128,-1,16
 149 502 149 502 226 502 c 0,17,18
 298 502 298 502 381 470 c 1,19,-1
 381 341 l 1,20,-1
 351 341 l 1,21,22
 346 395 346 395 308.5 433.5 c 128,-1,23
 271 472 271 472 219 472 c 0,24,25
 187 472 187 472 166.5 456 c 128,-1,26
 146 440 146 440 146 410 c 0,27,28
 146 382 146 382 174 364 c 128,-1,29
 202 346 202 346 242.5 333 c 128,-1,30
 283 320 283 320 323.5 303 c 128,-1,31
 364 286 364 286 392 249.5 c 128,-1,32
 420 213 420 213 420 159 c 0,33,34
 420 80 420 80 360 34 c 128,-1,35
 300 -12 300 -12 219 -12 c 0,36,37
 143 -12 143 -12 43 23 c 1,0,-1
EndSplineSet
Substitution2: "sous-table 'smcp' Bas-de-casse vers petites capitales dans Latin lookup 0" s.sc
EndChar

StartChar: t
Encoding: 84 116 87
Width: 389
Flags: W
TeX: 623 12
HStem: -12 42<212 328.664> 460 30<23 95 239 340>
VStem: 95 144<38.5801 460 490 579>
LayerCount: 2
Fore
SplineSet
95 490 m 1,0,-1
 95 579 l 1,1,-1
 239 628 l 1,2,-1
 239 490 l 1,3,-1
 340 490 l 1,4,-1
 340 460 l 1,5,-1
 239 460 l 1,6,-1
 239 110 l 2,7,8
 239 86 239 86 240.5 73 c 128,-1,9
 242 60 242 60 254 45 c 128,-1,10
 266 30 266 30 290 30 c 0,11,12
 325 30 325 30 359 62 c 1,13,-1
 377 43 l 1,14,15
 324 -12 324 -12 223 -12 c 0,16,17
 201 -12 201 -12 186 -10 c 128,-1,18
 171 -8 171 -8 152 -0.5 c 128,-1,19
 133 7 133 7 122 20 c 128,-1,20
 111 33 111 33 103 58.5 c 128,-1,21
 95 84 95 84 95 119 c 2,22,-1
 95 460 l 1,23,-1
 23 460 l 1,24,-1
 23 490 l 1,25,-1
 95 490 l 1,0,-1
EndSplineSet
Substitution2: "sous-table 'smcp' Bas-de-casse vers petites capitales dans Latin lookup 0" t.sc
EndChar

StartChar: u
Encoding: 85 117 88
Width: 667
Flags: W
TeX: 490 12
HStem: -12 48<256.018 359.707> 0 30<572 644> 460 30<23 94.625 356 427.742>
VStem: 95 144<53.3984 460> 428 144<30 70 90.7158 460>
LayerCount: 2
Fore
SplineSet
572 496 m 1,0,-1
 572 30 l 1,1,-1
 644 30 l 1,2,-1
 644 0 l 1,3,4
 495 -2 495 -2 428 -6 c 1,5,-1
 428 70 l 1,6,-1
 426 70 l 1,7,8
 401 30 401 30 358.5 9 c 128,-1,9
 316 -12 316 -12 267 -12 c 0,10,11
 184 -12 184 -12 139.5 25 c 128,-1,12
 95 62 95 62 95 153 c 2,13,-1
 95 460 l 1,14,-1
 23 460 l 1,15,-1
 23 490 l 1,16,-1
 85 490 l 2,17,18
 162 490 162 490 239 496 c 1,19,-1
 239 123 l 2,20,21
 239 71 239 71 259.5 53.5 c 128,-1,22
 280 36 280 36 317 36 c 0,23,24
 367 36 367 36 397.5 77 c 128,-1,25
 428 118 428 118 428 196 c 2,26,-1
 428 460 l 1,27,-1
 356 460 l 1,28,-1
 356 490 l 1,29,-1
 418 490 l 2,30,31
 496 490 496 490 572 496 c 1,0,-1
EndSplineSet
Substitution2: "sous-table 'smcp' Bas-de-casse vers petites capitales dans Latin lookup 0" u.sc
EndChar

StartChar: v
Encoding: 86 118 89
Width: 574
Flags: W
TeX: 490 6
HStem: 460 30<2 62 225 293 406 474 512 572>
LayerCount: 2
Fore
SplineSet
274 -12 m 1,0,-1
 62 460 l 1,1,-1
 2 460 l 1,2,-1
 2 490 l 1,3,-1
 293 490 l 1,4,-1
 293 460 l 1,5,-1
 225 460 l 1,6,-1
 347 167 l 1,7,-1
 474 460 l 1,8,-1
 406 460 l 1,9,-1
 406 490 l 1,10,-1
 572 490 l 1,11,-1
 572 460 l 1,12,-1
 512 460 l 1,13,-1
 300 -12 l 1,14,-1
 274 -12 l 1,0,-1
EndSplineSet
Substitution2: "sous-table 'smcp' Bas-de-casse vers petites capitales dans Latin lookup 0" v.sc
EndChar

StartChar: w
Encoding: 87 119 90
Width: 889
Flags: W
TeX: 490 8
HStem: 460 30<1 73 222 300 349 427 579 657 706 778 816 888>
LayerCount: 2
Fore
SplineSet
249 -12 m 1,0,-1
 73 460 l 1,1,-1
 1 460 l 1,2,-1
 1 490 l 1,3,-1
 300 490 l 1,4,-1
 300 460 l 1,5,-1
 222 460 l 1,6,-1
 319 179 l 1,7,-1
 321 179 l 1,8,-1
 427 460 l 1,9,-1
 349 460 l 1,10,-1
 349 490 l 1,11,-1
 657 490 l 1,12,-1
 657 460 l 1,13,-1
 579 460 l 1,14,-1
 674 179 l 1,15,-1
 676 179 l 1,16,-1
 778 460 l 1,17,-1
 706 460 l 1,18,-1
 706 490 l 1,19,-1
 888 490 l 1,20,-1
 888 460 l 1,21,-1
 816 460 l 1,22,-1
 636 -12 l 1,23,-1
 604 -12 l 1,24,-1
 444 418 l 1,25,-1
 279 -12 l 1,26,-1
 249 -12 l 1,0,-1
EndSplineSet
Substitution2: "sous-table 'smcp' Bas-de-casse vers petites capitales dans Latin lookup 0" w.sc
EndChar

StartChar: x
Encoding: 88 120 91
Width: 610
Flags: W
TeX: 490 0
HStem: 0 30<25 97 142 220 290 362 530 595> 460 30<15 93 259 325 373 439 484 550>
LayerCount: 2
Fore
SplineSet
25 0 m 1,0,-1
 25 30 l 1,1,-1
 97 30 l 1,2,-1
 245 216 l 1,3,-1
 93 460 l 1,4,-1
 15 460 l 1,5,-1
 15 490 l 1,6,-1
 325 490 l 1,7,-1
 325 460 l 1,8,-1
 259 460 l 1,9,-1
 339 334 l 1,10,-1
 439 460 l 1,11,-1
 373 460 l 1,12,-1
 373 490 l 1,13,-1
 550 490 l 1,14,-1
 550 460 l 1,15,-1
 484 460 l 1,16,-1
 358 302 l 1,17,-1
 530 30 l 1,18,-1
 595 30 l 1,19,-1
 595 0 l 1,20,-1
 290 0 l 1,21,-1
 290 30 l 1,22,-1
 362 30 l 1,23,-1
 265 185 l 1,24,-1
 142 30 l 1,25,-1
 220 30 l 1,26,-1
 220 0 l 1,27,-1
 25 0 l 1,0,-1
EndSplineSet
Substitution2: "sous-table 'smcp' Bas-de-casse vers petites capitales dans Latin lookup 0" x.sc
EndChar

StartChar: y
Encoding: 89 121 92
Width: 574
Flags: W
TeX: 490 220
HStem: -220 42<106.5 206.85> 460 30<4 76 235 307 394 466 504 570>
VStem: 21 119<-177.203 -81.0948>
LayerCount: 2
Fore
SplineSet
355 162 m 1,0,-1
 466 460 l 1,1,-1
 394 460 l 1,2,-1
 394 490 l 1,3,-1
 570 490 l 1,4,-1
 570 460 l 1,5,-1
 504 460 l 1,6,-1
 311 -37 l 2,7,8
 302 -62 302 -62 297 -74 c 128,-1,9
 292 -86 292 -86 281 -109 c 128,-1,10
 270 -132 270 -132 261 -144.5 c 128,-1,11
 252 -157 252 -157 237.5 -173.5 c 128,-1,12
 223 -190 223 -190 208 -198.5 c 128,-1,13
 193 -207 193 -207 172.5 -213.5 c 128,-1,14
 152 -220 152 -220 129 -220 c 0,15,16
 84 -220 84 -220 52.5 -192 c 128,-1,17
 21 -164 21 -164 21 -118 c 0,18,19
 21 -85 21 -85 37.5 -61 c 128,-1,20
 54 -37 54 -37 86 -37 c 0,21,22
 147 -37 147 -37 147 -100 c 0,23,24
 147 -114 147 -114 143.5 -127.5 c 128,-1,25
 140 -141 140 -141 140 -148 c 0,26,27
 140 -178 140 -178 168 -178 c 0,28,29
 198 -178 198 -178 228.5 -132 c 128,-1,30
 259 -86 259 -86 280 -22 c 1,31,-1
 76 460 l 1,32,-1
 4 460 l 1,33,-1
 4 490 l 1,34,-1
 307 490 l 1,35,-1
 307 460 l 1,36,-1
 235 460 l 1,37,-1
 355 162 l 1,0,-1
EndSplineSet
Substitution2: "sous-table 'smcp' Bas-de-casse vers petites capitales dans Latin lookup 0" y.sc
EndChar

StartChar: z
Encoding: 90 122 93
Width: 500
Flags: W
TeX: 490 0
HStem: 0 30<202 346.699> 460 30<161.266 299>
VStem: 63 30<321 389.984> 437 30<119.624 190>
LayerCount: 2
Fore
SplineSet
63 321 m 1,0,-1
 63 490 l 1,1,-1
 474 490 l 1,2,-1
 202 30 l 1,3,-1
 259 30 l 2,4,5
 348 30 348 30 391.5 74 c 128,-1,6
 435 118 435 118 437 190 c 1,7,-1
 467 190 l 1,8,-1
 467 0 l 1,9,-1
 26 0 l 1,10,-1
 299 460 l 1,11,-1
 229 460 l 2,12,13
 167 460 167 460 130 422 c 128,-1,14
 93 384 93 384 93 321 c 1,15,-1
 63 321 l 1,0,-1
EndSplineSet
Substitution2: "sous-table 'smcp' Bas-de-casse vers petites capitales dans Latin lookup 0" z.sc
EndChar

StartChar: braceleft
Encoding: 91 123 94
Width: 408
Flags: W
TeX: 715 249
HStem: -249 12<312.863 326> 703 12<312.744 326>
VStem: 127 126<-190.478 189.118 276.882 656.478>
LayerCount: 2
Fore
SplineSet
127 -93 m 2,0,-1
 127 106 l 2,1,2
 127 162 127 162 111.5 190 c 128,-1,3
 96 218 96 218 51 233 c 1,4,5
 96 248 96 248 111.5 276 c 128,-1,6
 127 304 127 304 127 360 c 2,7,-1
 127 559 l 2,8,9
 127 653 127 653 172.5 684 c 128,-1,10
 218 715 218 715 326 715 c 1,11,-1
 326 703 l 1,12,13
 286 690 286 690 269.5 657.5 c 128,-1,14
 253 625 253 625 253 565 c 2,15,-1
 253 377 l 2,16,17
 253 313 253 313 237 280.5 c 128,-1,18
 221 248 221 248 172 234 c 1,19,-1
 172 232 l 1,20,21
 221 218 221 218 237 185.5 c 128,-1,22
 253 153 253 153 253 89 c 2,23,-1
 253 -99 l 2,24,25
 253 -159 253 -159 269.5 -191.5 c 128,-1,26
 286 -224 286 -224 326 -237 c 1,27,-1
 326 -249 l 1,28,29
 219 -249 219 -249 173 -218 c 128,-1,30
 127 -187 127 -187 127 -93 c 2,0,-1
EndSplineSet
EndChar

StartChar: bar
Encoding: 92 124 95
Width: 222
Flags: W
TeX: 786 214
VStem: 59 104<-214 786>
LayerCount: 2
Fore
SplineSet
59 -214 m 1,0,-1
 59 786 l 1,1,-1
 163 786 l 1,2,-1
 163 -214 l 1,3,-1
 59 -214 l 1,0,-1
EndSplineSet
EndChar

StartChar: braceright
Encoding: 93 125 96
Width: 408
Flags: W
TeX: 715 249
HStem: -249 12<82 95.2559> 703 12<82 95.1367>
VStem: 155 126<-190.478 189.118 276.882 656.478>
LayerCount: 2
Fore
SplineSet
281 559 m 2,0,-1
 281 360 l 2,1,2
 281 304 281 304 296.5 276 c 128,-1,3
 312 248 312 248 357 233 c 1,4,5
 312 218 312 218 296.5 190 c 128,-1,6
 281 162 281 162 281 106 c 2,7,-1
 281 -93 l 2,8,9
 281 -187 281 -187 235.5 -218 c 128,-1,10
 190 -249 190 -249 82 -249 c 1,11,-1
 82 -237 l 1,12,13
 122 -224 122 -224 138.5 -191.5 c 128,-1,14
 155 -159 155 -159 155 -99 c 2,15,-1
 155 89 l 2,16,17
 155 153 155 153 171 185.5 c 128,-1,18
 187 218 187 218 236 232 c 1,19,-1
 236 234 l 1,20,21
 187 248 187 248 171 280.5 c 128,-1,22
 155 313 155 313 155 377 c 2,23,-1
 155 565 l 2,24,25
 155 625 155 625 138.5 657.5 c 128,-1,26
 122 690 122 690 82 703 c 1,27,-1
 82 715 l 1,28,29
 189 715 189 715 235 684 c 128,-1,30
 281 653 281 653 281 559 c 2,0,-1
EndSplineSet
EndChar

StartChar: asciitilde
Encoding: 94 126 97
Width: 556
Flags: W
TeX: 320 -182
HStem: 171 96<314.887 435.021> 239 96<120.979 241.113>
LayerCount: 2
Fore
SplineSet
83 169 m 1,0,-1
 47 249 l 1,1,2
 92 335 92 335 172 335 c 0,3,4
 212 335 212 335 287 301 c 128,-1,5
 362 267 362 267 385 267 c 0,6,7
 412 267 412 267 431.5 285 c 128,-1,8
 451 303 451 303 473 337 c 1,9,-1
 509 257 l 1,10,11
 464 171 464 171 384 171 c 0,12,13
 344 171 344 171 269 205 c 128,-1,14
 194 239 194 239 171 239 c 0,15,16
 144 239 144 239 124.5 221 c 128,-1,17
 105 203 105 203 83 169 c 1,0,-1
EndSplineSet
EndChar

StartChar: exclamdown
Encoding: 95 161 98
Width: 296
Flags: W
TeX: 508 220
HStem: -220 21G<131 165> 357 162<92.7262 203.274>
VStem: 73 150<-196.794 27.9688 381.237 494.763>
LayerCount: 2
Fore
SplineSet
83 -55 m 2,0,-1
 132 299 l 1,1,-1
 164 299 l 1,2,-1
 213 -55 l 2,3,4
 223 -125 223 -125 223 -141 c 0,5,6
 223 -175 223 -175 202.5 -197.5 c 128,-1,7
 182 -220 182 -220 148 -220 c 128,-1,8
 114 -220 114 -220 93.5 -197.5 c 128,-1,9
 73 -175 73 -175 73 -141 c 0,10,11
 73 -125 73 -125 83 -55 c 2,0,-1
229 438 m 128,-1,13
 229 404 229 404 205.5 380.5 c 128,-1,14
 182 357 182 357 148 357 c 128,-1,15
 114 357 114 357 90.5 380.5 c 128,-1,16
 67 404 67 404 67 438 c 128,-1,17
 67 472 67 472 90.5 495.5 c 128,-1,18
 114 519 114 519 148 519 c 128,-1,19
 182 519 182 519 205.5 495.5 c 128,-1,12
 229 472 229 472 229 438 c 128,-1,13
EndSplineSet
EndChar

StartChar: cent
Encoding: 96 162 99
Width: 556
Flags: W
TeX: 607 117
HStem: -12 42<312 407.486> 317 185<312 439> 472 30<312 347.952>
VStem: 45 156<132.338 354.22> 276 36<-121 -12 42 469 502 598> 366 132<338.146 443.739> 488 27<133.352 151.111>
LayerCount: 2
Fore
SplineSet
276 42 m 1,0,-1
 276 469 l 1,1,2
 249 461 249 461 233 441.5 c 128,-1,3
 217 422 217 422 210.5 386 c 128,-1,4
 204 350 204 350 202.5 323.5 c 128,-1,5
 201 297 201 297 201 245 c 0,6,7
 201 78 201 78 276 42 c 1,0,-1
276 -121 m 1,8,-1
 276 -12 l 1,9,10
 170 -2 170 -2 107.5 67 c 128,-1,11
 45 136 45 136 45 245 c 0,12,13
 45 349 45 349 109 420 c 128,-1,14
 173 491 173 491 276 502 c 1,15,-1
 276 598 l 1,16,-1
 312 598 l 1,17,-1
 312 502 l 1,18,19
 345 502 345 502 374 496.5 c 128,-1,20
 403 491 403 491 433 478 c 128,-1,21
 463 465 463 465 480.5 438 c 128,-1,22
 498 411 498 411 498 373 c 0,23,24
 498 317 498 317 439 317 c 0,25,26
 398 317 398 317 382 337.5 c 128,-1,27
 366 358 366 358 366 401 c 0,28,29
 366 469 366 469 312 472 c 1,30,-1
 312 32 l 1,31,32
 319 30 319 30 334 30 c 0,33,34
 439 30 439 30 488 160 c 1,35,-1
 515 148 l 1,36,37
 463 -12 463 -12 312 -12 c 1,38,-1
 312 -121 l 1,39,-1
 276 -121 l 1,8,-1
EndSplineSet
EndChar

StartChar: sterling
Encoding: 97 163 100
Width: 556
Flags: W
TeX: 706 28
HStem: -24 96<252.377 412.057> -12 126<37.5334 142.302> 338 42<44 131 285 421> 670 36<263.982 366.999>
VStem: 124 114<428.5 592> 186 104<131.5 290> 360 110<572.956 656.378> 481 36<154.291 234>
LayerCount: 2
Fore
SplineSet
44 338 m 1,0,-1
 44 380 l 1,1,-1
 131 380 l 1,2,3
 124 414 124 414 124 443 c 0,4,5
 124 546 124 546 187 626 c 128,-1,6
 250 706 250 706 341 706 c 0,7,8
 392 706 392 706 431 682.5 c 128,-1,9
 470 659 470 659 470 612 c 0,10,11
 470 587 470 587 456.5 572.5 c 128,-1,12
 443 558 443 558 418 558 c 0,13,14
 392 558 392 558 378 575.5 c 128,-1,15
 364 593 364 593 360 614 c 128,-1,16
 356 635 356 635 342 652.5 c 128,-1,17
 328 670 328 670 302 670 c 0,18,19
 272 670 272 670 255 640.5 c 128,-1,20
 238 611 238 611 238 573 c 0,21,22
 238 539 238 539 256 464 c 128,-1,23
 274 389 274 389 276 380 c 1,24,-1
 421 380 l 1,25,-1
 421 338 l 1,26,-1
 285 338 l 1,27,28
 290 298 290 298 290 282 c 0,29,30
 290 194 290 194 201 80 c 1,31,32
 257 72 257 72 326 72 c 0,33,34
 399 72 399 72 438.5 115.5 c 128,-1,35
 478 159 478 159 481 234 c 1,36,-1
 517 234 l 1,37,38
 517 -24 517 -24 345 -24 c 0,39,40
 270 -24 270 -24 177 41 c 1,41,42
 162 28 162 28 150 16.5 c 128,-1,43
 138 5 138 5 119.5 -3.5 c 128,-1,44
 101 -12 101 -12 80 -12 c 0,45,46
 54 -12 54 -12 37 6.5 c 128,-1,47
 20 25 20 25 20 52 c 0,48,49
 20 81 20 81 36 97.5 c 128,-1,50
 52 114 52 114 79 114 c 0,51,52
 93 114 93 114 107 110 c 128,-1,53
 121 106 121 106 139.5 99 c 128,-1,54
 158 92 158 92 172 88 c 1,55,56
 186 114 186 114 186 149 c 0,57,58
 186 180 186 180 179 210.5 c 128,-1,59
 172 241 172 241 158 282.5 c 128,-1,60
 144 324 144 324 140 338 c 1,61,-1
 44 338 l 1,0,-1
EndSplineSet
EndChar

StartChar: fraction
Encoding: 224 8260 101
Width: 167
Flags: W
TeX: 715 21
HStem: 702 20G<265.187 333>
LayerCount: 2
Fore
SplineSet
-166 -28 m 1,0,-1
 277 722 l 1,1,-1
 333 722 l 1,2,-1
 -110 -28 l 1,3,-1
 -166 -28 l 1,0,-1
EndSplineSet
EndChar

StartChar: yen
Encoding: 99 165 102
Width: 556
Flags: W
TeX: 694 0
HStem: 0 30<100 204 348 452> 194 42<72 204 348 480> 311 42<72 204 348 480> 664 30<-41 37 210 288 402 480 519 597>
VStem: 204 144<30 194 236 311>
LayerCount: 2
Fore
SplineSet
100 0 m 1,0,-1
 100 30 l 1,1,-1
 204 30 l 1,2,-1
 204 194 l 1,3,-1
 72 194 l 1,4,-1
 72 236 l 1,5,-1
 204 236 l 1,6,-1
 204 311 l 1,7,-1
 72 311 l 1,8,-1
 72 353 l 1,9,-1
 204 353 l 1,10,-1
 37 664 l 1,11,-1
 -41 664 l 1,12,-1
 -41 694 l 1,13,-1
 288 694 l 1,14,-1
 288 664 l 1,15,-1
 210 664 l 1,16,-1
 343 406 l 1,17,-1
 480 664 l 1,18,-1
 402 664 l 1,19,-1
 402 694 l 1,20,-1
 597 694 l 1,21,-1
 597 664 l 1,22,-1
 519 664 l 1,23,-1
 348 353 l 1,24,-1
 480 353 l 1,25,-1
 480 311 l 1,26,-1
 348 311 l 1,27,-1
 348 236 l 1,28,-1
 480 236 l 1,29,-1
 480 194 l 1,30,-1
 348 194 l 1,31,-1
 348 30 l 1,32,-1
 452 30 l 1,33,-1
 452 0 l 1,34,-1
 100 0 l 1,0,-1
EndSplineSet
EndChar

StartChar: florin
Encoding: 200 402 103
Width: 556
Flags: W
TeX: 706 193
HStem: -198 30<49 129.855> 355 36<108 202 347 451> 676 30<399.857 453.968>
VStem: -37 113<-164.038 -80.9392> 455 103<574.922 672.845>
LayerCount: 2
Fore
SplineSet
101 355 m 1,0,-1
 108 391 l 1,1,-1
 207 391 l 1,2,3
 211 465 211 465 237 534 c 128,-1,4
 263 603 263 603 319 654.5 c 128,-1,5
 375 706 375 706 449 706 c 0,6,7
 496 706 496 706 527 681.5 c 128,-1,8
 558 657 558 657 558 613 c 0,9,10
 558 544 558 544 494 544 c 0,11,12
 438 544 438 544 438 593 c 0,13,14
 438 611 438 611 446.5 629.5 c 128,-1,15
 455 648 455 648 455 656 c 0,16,17
 455 676 455 676 433 676 c 0,18,19
 377 676 377 676 363 558 c 2,20,-1
 347 391 l 1,21,-1
 458 391 l 1,22,-1
 451 355 l 1,23,-1
 342 355 l 1,24,-1
 314 98 l 2,25,26
 300 -29 300 -29 235.5 -113.5 c 128,-1,27
 171 -198 171 -198 76 -198 c 0,28,29
 22 -198 22 -198 -7.5 -173.5 c 128,-1,30
 -37 -149 -37 -149 -37 -107 c 0,31,32
 -37 -80 -37 -80 -20 -62 c 128,-1,33
 -3 -44 -3 -44 24 -44 c 128,-1,34
 51 -44 51 -44 67 -59 c 128,-1,35
 83 -74 83 -74 83 -99 c 0,36,37
 83 -109 83 -109 79.5 -124 c 128,-1,38
 76 -139 76 -139 76 -147 c 0,39,40
 76 -156 76 -156 82.5 -162 c 128,-1,41
 89 -168 89 -168 99 -168 c 0,42,43
 129 -168 129 -168 144 -129 c 128,-1,44
 159 -90 159 -90 166 -12 c 2,45,-1
 202 355 l 1,46,-1
 101 355 l 1,0,-1
EndSplineSet
EndChar

StartChar: section
Encoding: 101 167 104
Width: 556
Flags: W
TeX: 727 220
HStem: -220 42<186.783 331.698> 691 36<235.391 347.977>
VStem: 52 116<-143.846 -41.4867> 54 48<390.754 574.664> 140 48<510.203 630.934> 365 117<567.025 659.585> 387 48<-100.764 8.95569> 456 48<-62.0811 132.252>
LayerCount: 2
Fore
SplineSet
295 691 m 0,0,1
 251 691 251 691 219.5 661 c 128,-1,2
 188 631 188 631 188 584 c 0,3,4
 188 548 188 548 205.5 517 c 128,-1,5
 223 486 223 486 251 461.5 c 128,-1,6
 279 437 279 437 312.5 412 c 128,-1,7
 346 387 346 387 379.5 356 c 128,-1,8
 413 325 413 325 441 288 c 128,-1,9
 469 251 469 251 486.5 195 c 128,-1,10
 504 139 504 139 504 72 c 0,11,12
 504 -64 504 -64 434.5 -142 c 128,-1,13
 365 -220 365 -220 247 -220 c 0,14,15
 162 -220 162 -220 107 -178.5 c 128,-1,16
 52 -137 52 -137 52 -70 c 0,17,18
 52 -40 52 -40 70 -19 c 128,-1,19
 88 2 88 2 118 2 c 0,20,21
 178 2 178 2 178 -63 c 0,22,23
 178 -73 178 -73 173 -93 c 128,-1,24
 168 -113 168 -113 168 -122 c 0,25,26
 168 -149 168 -149 196.5 -163.5 c 128,-1,27
 225 -178 225 -178 257 -178 c 0,28,29
 311 -178 311 -178 349 -144.5 c 128,-1,30
 387 -111 387 -111 387 -58 c 0,31,32
 387 -26 387 -26 368.5 4 c 128,-1,33
 350 34 350 34 321 59 c 128,-1,34
 292 84 292 84 256 111 c 128,-1,35
 220 138 220 138 184.5 170.5 c 128,-1,36
 149 203 149 203 120 240 c 128,-1,37
 91 277 91 277 72.5 330.5 c 128,-1,38
 54 384 54 384 54 446 c 0,39,40
 54 570 54 570 118 648.5 c 128,-1,41
 182 727 182 727 296 727 c 0,42,43
 370 727 370 727 426 691 c 128,-1,44
 482 655 482 655 482 589 c 0,45,46
 482 562 482 562 463.5 544.5 c 128,-1,47
 445 527 445 527 417 527 c 0,48,49
 388 527 388 527 372 545 c 128,-1,50
 356 563 356 563 356 589 c 0,51,52
 356 599 356 599 360.5 617 c 128,-1,53
 365 635 365 635 365 643 c 0,54,55
 365 665 365 665 345.5 678 c 128,-1,56
 326 691 326 691 295 691 c 0,0,1
171 647 m 1,57,-1
 169 649 l 1,58,59
 102 589 102 589 102 484 c 0,60,61
 102 422 102 422 136.5 367.5 c 128,-1,62
 171 313 171 313 219.5 273 c 128,-1,63
 268 233 268 233 317 193 c 128,-1,64
 366 153 366 153 400.5 101.5 c 128,-1,65
 435 50 435 50 435 -9 c 0,66,67
 435 -53 435 -53 420 -101 c 1,68,-1
 422 -103 l 1,69,70
 456 -43 456 -43 456 19 c 0,71,72
 456 75 456 75 438.5 122 c 128,-1,73
 421 169 421 169 393 201.5 c 128,-1,74
 365 234 365 234 331.5 263 c 128,-1,75
 298 292 298 292 264.5 320 c 128,-1,76
 231 348 231 348 203 377.5 c 128,-1,77
 175 407 175 407 157.5 447.5 c 128,-1,78
 140 488 140 488 140 537 c 0,79,80
 140 600 140 600 171 647 c 1,57,-1
EndSplineSet
EndChar

StartChar: currency
Encoding: 98 164 105
Width: 556
Flags: W
TeX: 598 -96
HStem: 99 96<203.136 352.864> 499 96<203.136 352.864>
VStem: 29 104<266.006 427.994> 423 104<266.006 427.994>
LayerCount: 2
Fore
SplineSet
80 87 m 1,0,-1
 19 148 l 1,1,-1
 75 203 l 1,2,3
 29 266 29 266 29 347 c 128,-1,4
 29 428 29 428 75 491 c 1,5,-1
 19 546 l 1,6,-1
 80 607 l 1,7,-1
 138 552 l 1,8,9
 197 595 197 595 278 595 c 128,-1,10
 359 595 359 595 418 552 c 1,11,-1
 476 607 l 1,12,-1
 537 546 l 1,13,-1
 481 491 l 1,14,15
 527 428 527 428 527 347 c 128,-1,16
 527 266 527 266 481 203 c 1,17,-1
 537 148 l 1,18,-1
 476 87 l 1,19,-1
 418 142 l 1,20,21
 359 99 359 99 278 99 c 128,-1,22
 197 99 197 99 138 142 c 1,23,-1
 80 87 l 1,0,-1
133 347 m 128,-1,25
 133 284 133 284 175.5 239.5 c 128,-1,26
 218 195 218 195 278 195 c 128,-1,27
 338 195 338 195 380.5 239.5 c 128,-1,28
 423 284 423 284 423 347 c 128,-1,29
 423 410 423 410 380.5 454.5 c 128,-1,30
 338 499 338 499 278 499 c 128,-1,31
 218 499 218 499 175.5 454.5 c 128,-1,24
 133 410 133 410 133 347 c 128,-1,25
EndSplineSet
EndChar

StartChar: quotesingle
Encoding: 7 39 106
Width: 222
Flags: W
TeX: 727 -403
HStem: 396 331<87.0439 134.956>
VStem: 59 104<458.453 719.38>
LayerCount: 2
Fore
SplineSet
160 625 m 2,0,-1
 139 438 l 2,1,2
 135 396 135 396 111 396 c 128,-1,3
 87 396 87 396 83 438 c 2,4,-1
 62 625 l 2,5,6
 59 648 59 648 59 668 c 0,7,8
 59 727 59 727 111 727 c 128,-1,9
 163 727 163 727 163 668 c 0,10,11
 163 648 163 648 160 625 c 2,0,-1
EndSplineSet
EndChar

StartChar: quotedblleft
Encoding: 214 8220 107
Width: 481
Flags: W
TeX: 727 -403
HStem: 396 156<87.7815 189.826 320.781 422.826> 707 20G<144 186.286 377 419.286>
VStem: 33 182<434.319 528.84> 266 182<434.319 528.84>
LayerCount: 2
Fore
SplineSet
410 727 m 1,0,-1
 423 699 l 1,1,2
 376 678 376 678 346.5 635 c 128,-1,3
 317 592 317 592 320 542 c 1,4,5
 345 552 345 552 371 552 c 0,6,7
 402 552 402 552 425 531 c 128,-1,8
 448 510 448 510 448 477 c 0,9,10
 448 441 448 441 424 418.5 c 128,-1,11
 400 396 400 396 364 396 c 0,12,13
 313 396 313 396 289.5 431 c 128,-1,14
 266 466 266 466 266 518 c 0,15,16
 266 588 266 588 305 642 c 128,-1,17
 344 696 344 696 410 727 c 1,0,-1
177 727 m 1,18,-1
 190 699 l 1,19,20
 143 678 143 678 113.5 635 c 128,-1,21
 84 592 84 592 87 542 c 1,22,23
 112 552 112 552 138 552 c 0,24,25
 169 552 169 552 192 531 c 128,-1,26
 215 510 215 510 215 477 c 0,27,28
 215 441 215 441 191 418.5 c 128,-1,29
 167 396 167 396 131 396 c 0,30,31
 80 396 80 396 56.5 431 c 128,-1,32
 33 466 33 466 33 518 c 0,33,34
 33 588 33 588 72 642 c 128,-1,35
 111 696 111 696 177 727 c 1,18,-1
EndSplineSet
EndChar

StartChar: guillemotleft
Encoding: 105 171 108
Width: 426
Flags: W
TeX: 408 -64
LayerCount: 2
Fore
SplineSet
21 218 m 1,0,-1
 21 254 l 1,1,-1
 205 408 l 1,2,-1
 228 389 l 1,3,-1
 141 236 l 1,4,-1
 228 83 l 1,5,-1
 205 64 l 1,6,-1
 21 218 l 1,0,-1
198 218 m 1,7,-1
 198 254 l 1,8,-1
 382 408 l 1,9,-1
 405 389 l 1,10,-1
 318 236 l 1,11,-1
 405 83 l 1,12,-1
 382 64 l 1,13,-1
 198 218 l 1,7,-1
EndSplineSet
EndChar

StartChar: guilsinglleft
Encoding: 222 8249 109
Width: 259
Flags: W
TeX: 408 -64
VStem: 26 207
LayerCount: 2
Fore
SplineSet
26 218 m 1,0,-1
 26 254 l 1,1,-1
 210 408 l 1,2,-1
 233 389 l 1,3,-1
 146 236 l 1,4,-1
 233 83 l 1,5,-1
 210 64 l 1,6,-1
 26 218 l 1,0,-1
EndSplineSet
EndChar

StartChar: guilsinglright
Encoding: 223 8250 110
Width: 259
Flags: W
TeX: 408 -64
VStem: 26 207
LayerCount: 2
Fore
SplineSet
233 254 m 1,0,-1
 233 218 l 1,1,-1
 49 64 l 1,2,-1
 26 83 l 1,3,-1
 113 236 l 1,4,-1
 26 389 l 1,5,-1
 49 408 l 1,6,-1
 233 254 l 1,0,-1
EndSplineSet
EndChar

StartChar: f_i
Encoding: 227 64257 111
Width: 648
GlyphClass: 3
Flags: W
TeX: 727 0
HStem: 0 30<345 417 561 633> 460 30<345 416.625>
VStem: 87 144<490 605.796> 377.101 128.617<590.551 682.056> 417 144<30 460>
LayerCount: 2
Fore
SplineSet
231 558 m 6,0,1
 231 624 231 624 257 663 c 4,2,3
 280 698 280 698 329.94140625 703.225097656 c 4,4,5
 379.864276662 707.987053858 379.864276662 707.987053858 377.615234375 641.736328125 c 6,6,-1
 377.100585938 626.576171875 l 6,7,8
 375 578 375 578 436.118164062 576.450195312 c 4,9,10
 460 576 460 576 482.91796875 589.650390625 c 4,11,12
 506 603 506 603 505.717773438 626.849609375 c 4,13,14
 506 670 506 670 466 698 c 4,15,16
 421 730 421 730 320.258367231 729.029119527 c 4,17,18
 317 729 317 729 314 729 c 4,19,20
 276 728 276 728 213.5 706 c 4,21,22
 90 664 90 664 87 490 c 4,23,-1
 103 490 l 4,24,-1
 231 490 l 4,25,-1
 231 558 l 6,0,1
87 490 m 20,26,-1
 15 490 l 5,27,-1
 15 460 l 5,28,-1
 87 460 l 5,29,-1
 87 30 l 5,30,-1
 15 30 l 5,31,-1
 15 0 l 5,32,-1
 314 0 l 5,33,-1
 314 30 l 5,34,-1
 231 30 l 5,35,-1
 231 460 l 5,36,-1
 314 460 l 5,37,-1
 314 490 l 5,38,-1
 231 490 l 5,39,-1
 87 490 l 20,26,-1
345 0 m 5,40,-1
 345 30 l 5,41,-1
 417 30 l 5,42,-1
 417 460 l 5,43,-1
 345 460 l 5,44,-1
 345 490 l 5,45,-1
 407 490 l 6,46,47
 484 490 484 490 561 496 c 5,48,-1
 561 30 l 5,49,-1
 633 30 l 5,50,-1
 633 0 l 5,51,-1
 345 0 l 5,40,-1
EndSplineSet
LCarets2: 1 0
Ligature2: "'liga' Ligatures standard dans Latin lookup 0" f i
EndChar

StartChar: f_l
Encoding: 228 64258 112
Width: 648
GlyphClass: 3
Flags: W
TeX: 727 0
HStem: 0 30<15 87 231 314 336 417 561 633> 460 30<15 87 231 314> 688 50<280.988 416.583>
VStem: 87 144<30 460 490 614.416> 417 144<30 682.23>
LayerCount: 2
Fore
SplineSet
87 490 m 5,0,1
 87 543 87 543 104 601.5 c 4,2,3
 124 672 124 672 217.5 708 c 4,4,5
 293 738 293 738 398.013671875 738 c 6,6,-1
 407 738 l 6,7,8
 484 738 484 738 561 744 c 5,9,-1
 561 30 l 5,10,-1
 633 30 l 5,11,-1
 633 0 l 5,12,-1
 610 0 l 5,13,-1
 336 0 l 5,14,-1
 336 30 l 5,15,-1
 417 30 l 5,16,-1
 417 667.555312619 l 5,17,18
 404 688 404 688 348 688 c 4,19,20
 294 688 294 688 253 643 c 4,21,22
 231 619 231 619 231 558 c 6,23,-1
 231 490 l 5,24,-1
 314 490 l 5,25,-1
 314 460 l 5,26,-1
 231 460 l 5,27,-1
 231 30 l 5,28,-1
 314 30 l 5,29,-1
 314 0 l 5,30,-1
 15 0 l 5,31,-1
 15 30 l 5,32,-1
 87 30 l 5,33,-1
 87 460 l 5,34,-1
 15 460 l 5,35,-1
 15 490 l 5,36,-1
 87 490 l 5,0,1
EndSplineSet
LCarets2: 1 0
Ligature2: "'liga' Ligatures standard dans Latin lookup 0" f l
EndChar

StartChar: endash
Encoding: 209 8211 113
Width: 500
Flags: W
TeX: 263 -209
HStem: 191 90<0 500>
LayerCount: 2
Fore
SplineSet
0 191 m 1,0,-1
 0 281 l 1,1,-1
 500 281 l 1,2,-1
 500 191 l 1,3,-1
 0 191 l 1,0,-1
EndSplineSet
EndChar

StartChar: dagger
Encoding: 217 8224 114
Width: 556
Flags: W
TeX: 727 144
HStem: 364 138<63.5024 170.387 385.613 492.498> 412 42<185.248 254 302 370.752> 707 20G<261.5 294.5>
VStem: 194 168<-122.246 105.111 583.264 697.083> 254 48<207.865 412 454 539.75>
LayerCount: 2
Fore
SplineSet
194 -60 m 0,0,1
 194 -17 194 -17 224 156 c 128,-1,2
 254 329 254 329 254 412 c 1,3,4
 231 412 231 412 177 388 c 128,-1,5
 123 364 123 364 104 364 c 0,6,7
 76 364 76 364 61.5 384.5 c 128,-1,8
 47 405 47 405 47 433 c 0,9,10
 47 460 47 460 63 481 c 128,-1,11
 79 502 79 502 105 502 c 0,12,13
 126 502 126 502 176 478 c 128,-1,14
 226 454 226 454 254 454 c 1,15,16
 254 487 254 487 227 554 c 128,-1,17
 200 621 200 621 200 649 c 0,18,19
 200 683 200 683 222.5 705 c 128,-1,20
 245 727 245 727 278 727 c 128,-1,21
 311 727 311 727 333.5 705 c 128,-1,22
 356 683 356 683 356 649 c 0,23,24
 356 621 356 621 329 554 c 128,-1,25
 302 487 302 487 302 454 c 1,26,27
 330 454 330 454 380 478 c 128,-1,28
 430 502 430 502 451 502 c 0,29,30
 477 502 477 502 493 481 c 128,-1,31
 509 460 509 460 509 433 c 0,32,33
 509 405 509 405 494.5 384.5 c 128,-1,34
 480 364 480 364 452 364 c 0,35,36
 433 364 433 364 379 388 c 128,-1,37
 325 412 325 412 302 412 c 1,38,39
 302 329 302 329 332 156 c 128,-1,40
 362 -17 362 -17 362 -60 c 0,41,42
 362 -99 362 -99 339.5 -123 c 128,-1,43
 317 -147 317 -147 278 -147 c 128,-1,44
 239 -147 239 -147 216.5 -123 c 128,-1,45
 194 -99 194 -99 194 -60 c 0,0,1
EndSplineSet
EndChar

StartChar: daggerdbl
Encoding: 218 8225 115
Width: 556
Flags: W
TeX: 727 144
HStem: 75 138<64.0179 172.918 383.082 491.982> 123 42<185.097 254 302 370.903> 375 138<64.0179 172.918 383.082 491.982> 423 42<185.097 254 302 370.903> 707 20G<261.5 294.5>
VStem: 200 156<-125.856 5.04602 579.134 703.885> 236 84<165.753 422.091> 254 48<32.1215 123 165 289.216 290.754 423 465 553.046>
LayerCount: 2
Fore
SplineSet
278 727 m 128,-1,1
 311 727 311 727 332 706.5 c 128,-1,2
 353 686 353 686 353 652 c 0,3,4
 353 624 353 624 327.5 562.5 c 128,-1,5
 302 501 302 501 302 465 c 1,6,7
 329 465 329 465 378.5 489 c 128,-1,8
 428 513 428 513 450 513 c 0,9,10
 476 513 476 513 492.5 492 c 128,-1,11
 509 471 509 471 509 444 c 0,12,13
 509 416 509 416 494.5 395.5 c 128,-1,14
 480 375 480 375 451 375 c 0,15,16
 428 375 428 375 378.5 399 c 128,-1,17
 329 423 329 423 302 423 c 1,18,19
 302 394 302 394 311 354 c 128,-1,20
 320 314 320 314 320 290 c 0,21,22
 320 265 320 265 311 227 c 128,-1,23
 302 189 302 189 302 165 c 1,24,25
 329 165 329 165 378.5 189 c 128,-1,26
 428 213 428 213 450 213 c 0,27,28
 476 213 476 213 492.5 192 c 128,-1,29
 509 171 509 171 509 144 c 0,30,31
 509 116 509 116 494.5 95.5 c 128,-1,32
 480 75 480 75 451 75 c 0,33,34
 428 75 428 75 378.5 99 c 128,-1,35
 329 123 329 123 302 123 c 1,36,37
 302 82 302 82 329 18.5 c 128,-1,38
 356 -45 356 -45 356 -72 c 0,39,40
 356 -106 356 -106 334.5 -126.5 c 128,-1,41
 313 -147 313 -147 278 -147 c 128,-1,42
 243 -147 243 -147 221.5 -126.5 c 128,-1,43
 200 -106 200 -106 200 -72 c 0,44,45
 200 -45 200 -45 227 18.5 c 128,-1,46
 254 82 254 82 254 123 c 1,47,48
 227 123 227 123 177.5 99 c 128,-1,49
 128 75 128 75 105 75 c 0,50,51
 76 75 76 75 61.5 95.5 c 128,-1,52
 47 116 47 116 47 144 c 0,53,54
 47 171 47 171 63.5 192 c 128,-1,55
 80 213 80 213 106 213 c 0,56,57
 128 213 128 213 177.5 189 c 128,-1,58
 227 165 227 165 254 165 c 1,59,60
 254 189 254 189 245 227 c 128,-1,61
 236 265 236 265 236 290 c 0,62,63
 236 314 236 314 245 354 c 128,-1,64
 254 394 254 394 254 423 c 1,65,66
 227 423 227 423 177.5 399 c 128,-1,67
 128 375 128 375 105 375 c 0,68,69
 76 375 76 375 61.5 395.5 c 128,-1,70
 47 416 47 416 47 444 c 0,71,72
 47 471 47 471 63.5 492 c 128,-1,73
 80 513 80 513 106 513 c 0,74,75
 128 513 128 513 177.5 489 c 128,-1,76
 227 465 227 465 254 465 c 1,77,78
 254 501 254 501 228.5 562.5 c 128,-1,79
 203 624 203 624 203 652 c 0,80,81
 203 686 203 686 224 706.5 c 128,-1,0
 245 727 245 727 278 727 c 128,-1,1
EndSplineSet
EndChar

StartChar: periodcentered
Encoding: 117 183 116
Width: 278
Flags: W
TeX: 368 -248
HStem: 197 168<82.6035 195.396>
VStem: 55 168<224.604 337.396>
LayerCount: 2
Fore
SplineSet
55 281 m 128,-1,1
 55 316 55 316 79.5 340.5 c 128,-1,2
 104 365 104 365 139 365 c 128,-1,3
 174 365 174 365 198.5 340.5 c 128,-1,4
 223 316 223 316 223 281 c 128,-1,5
 223 246 223 246 198.5 221.5 c 128,-1,6
 174 197 174 197 139 197 c 128,-1,7
 104 197 104 197 79.5 221.5 c 128,-1,0
 55 246 55 246 55 281 c 128,-1,1
EndSplineSet
EndChar

StartChar: paragraph
Encoding: 116 182 117
Width: 593
Flags: W
TeX: 712 184
HStem: -185 14<200 244.495> 698 14<314 384 491 558>
VStem: 26 288<409.372 595.913> 95 102<-153.881 -73.9562> 299 15<-17.3203 289> 384 107<-5.49072 698>
LayerCount: 2
Fore
SplineSet
314 712 m 2,0,-1
 558 712 l 1,1,-1
 558 698 l 1,2,-1
 491 698 l 1,3,-1
 491 147 l 2,4,5
 491 -48 491 -48 387 -125 c 0,6,7
 304 -185 304 -185 200 -185 c 0,8,9
 166 -185 166 -185 143 -175.5 c 128,-1,10
 120 -166 120 -166 110.5 -151 c 128,-1,11
 101 -136 101 -136 98 -125 c 128,-1,12
 95 -114 95 -114 95 -104 c 0,13,14
 95 -76 95 -76 113.5 -62 c 128,-1,15
 132 -48 132 -48 159 -48 c 0,16,17
 212 -48 212 -48 212 -85 c 0,18,19
 212 -100 212 -100 203 -126 c 0,20,21
 197 -144 197 -144 197 -146 c 0,22,23
 197 -154 197 -154 206 -154 c 0,24,25
 212 -154 212 -154 222 -150 c 128,-1,26
 232 -146 232 -146 249.5 -128 c 128,-1,27
 267 -110 267 -110 278 -81 c 0,28,29
 299 -27 299 -27 299 147 c 2,30,-1
 299 289 l 1,31,32
 207 291 207 291 150 313 c 0,33,34
 97 334 97 334 61.5 386 c 128,-1,35
 26 438 26 438 26 503 c 0,36,37
 26 562 26 562 55 609.5 c 128,-1,38
 84 657 84 657 130 678 c 0,39,40
 207 712 207 712 314 712 c 2,0,-1
384 147 m 2,41,-1
 384 698 l 1,42,-1
 314 698 l 1,43,-1
 314 147 l 2,44,45
 314 64 314 64 311 17 c 128,-1,46
 308 -30 308 -30 296.5 -74 c 128,-1,47
 285 -118 285 -118 262 -140 c 128,-1,48
 239 -162 239 -162 200 -171 c 1,49,50
 269 -168 269 -168 314 -126 c 0,51,52
 334 -107 334 -107 347 -85.5 c 128,-1,53
 360 -64 360 -64 372 -4 c 128,-1,54
 384 56 384 56 384 147 c 2,41,-1
EndSplineSet
EndChar

StartChar: bullet
Encoding: 219 8226 118
Width: 500
Flags: W
TeX: 536 -179
HStem: 179 358<164.011 336.194>
VStem: 71 358<272.011 443.989>
LayerCount: 2
Fore
SplineSet
71 358 m 128,-1,1
 71 432 71 432 123.5 484.5 c 128,-1,2
 176 537 176 537 250 537 c 128,-1,3
 324 537 324 537 377 484.5 c 128,-1,4
 430 432 430 432 429 358 c 0,5,6
 430 284 430 284 377 231.5 c 128,-1,7
 324 179 324 179 250 179 c 128,-1,8
 176 179 176 179 123.5 231.5 c 128,-1,0
 71 284 71 284 71 358 c 128,-1,1
EndSplineSet
EndChar

StartChar: quotesinglbase
Encoding: 213 8218 119
Width: 222
Flags: W
TeX: 132 192
HStem: -6 156<45.1738 147.219>
VStem: 20 182<17.1602 111.681>
LayerCount: 2
Fore
SplineSet
58 -181 m 1,0,-1
 45 -153 l 1,1,2
 92 -132 92 -132 121.5 -89 c 128,-1,3
 151 -46 151 -46 148 4 c 1,4,5
 123 -6 123 -6 97 -6 c 0,6,7
 66 -6 66 -6 43 15 c 128,-1,8
 20 36 20 36 20 69 c 0,9,10
 20 105 20 105 44 127.5 c 128,-1,11
 68 150 68 150 104 150 c 0,12,13
 155 150 155 150 178.5 115 c 128,-1,14
 202 80 202 80 202 28 c 0,15,16
 202 -42 202 -42 163 -96 c 128,-1,17
 124 -150 124 -150 58 -181 c 1,0,-1
EndSplineSet
EndChar

StartChar: quotedblbase
Encoding: 216 8222 120
Width: 481
Flags: W
TeX: 132 192
HStem: -6 156<58.1738 160.219 291.174 393.219>
VStem: 33 182<17.1602 111.681> 266 182<17.1602 111.681>
LayerCount: 2
Fore
SplineSet
71 -181 m 1,0,-1
 58 -153 l 1,1,2
 105 -132 105 -132 134.5 -89 c 128,-1,3
 164 -46 164 -46 161 4 c 1,4,5
 136 -6 136 -6 110 -6 c 0,6,7
 79 -6 79 -6 56 15 c 128,-1,8
 33 36 33 36 33 69 c 0,9,10
 33 105 33 105 57 127.5 c 128,-1,11
 81 150 81 150 117 150 c 0,12,13
 168 150 168 150 191.5 115 c 128,-1,14
 215 80 215 80 215 28 c 0,15,16
 215 -42 215 -42 176 -96 c 128,-1,17
 137 -150 137 -150 71 -181 c 1,0,-1
304 -181 m 1,18,-1
 291 -153 l 1,19,20
 338 -132 338 -132 367.5 -89 c 128,-1,21
 397 -46 397 -46 394 4 c 1,22,23
 369 -6 369 -6 343 -6 c 0,24,25
 312 -6 312 -6 289 15 c 128,-1,26
 266 36 266 36 266 69 c 0,27,28
 266 105 266 105 290 127.5 c 128,-1,29
 314 150 314 150 350 150 c 0,30,31
 401 150 401 150 424.5 115 c 128,-1,32
 448 80 448 80 448 28 c 0,33,34
 448 -42 448 -42 409 -96 c 128,-1,35
 370 -150 370 -150 304 -181 c 1,18,-1
EndSplineSet
EndChar

StartChar: quotedblright
Encoding: 215 8221 121
Width: 481
Flags: W
TeX: 727 -403
HStem: 571 156<58.1738 160.219 291.174 393.219>
VStem: 33 182<594.16 688.681> 266 182<594.16 688.681>
LayerCount: 2
Fore
SplineSet
71 396 m 1,0,-1
 58 424 l 1,1,2
 105 445 105 445 134.5 488 c 128,-1,3
 164 531 164 531 161 581 c 1,4,5
 136 571 136 571 110 571 c 0,6,7
 79 571 79 571 56 592 c 128,-1,8
 33 613 33 613 33 646 c 0,9,10
 33 682 33 682 57 704.5 c 128,-1,11
 81 727 81 727 117 727 c 0,12,13
 168 727 168 727 191.5 692 c 128,-1,14
 215 657 215 657 215 605 c 0,15,16
 215 535 215 535 176 481 c 128,-1,17
 137 427 137 427 71 396 c 1,0,-1
304 396 m 1,18,-1
 291 424 l 1,19,20
 338 445 338 445 367.5 488 c 128,-1,21
 397 531 397 531 394 581 c 1,22,23
 369 571 369 571 343 571 c 0,24,25
 312 571 312 571 289 592 c 128,-1,26
 266 613 266 613 266 646 c 0,27,28
 266 682 266 682 290 704.5 c 128,-1,29
 314 727 314 727 350 727 c 0,30,31
 401 727 401 727 424.5 692 c 128,-1,32
 448 657 448 657 448 605 c 0,33,34
 448 535 448 535 409 481 c 128,-1,35
 370 427 370 427 304 396 c 1,18,-1
EndSplineSet
EndChar

StartChar: guillemotright
Encoding: 121 187 122
Width: 426
Flags: W
TeX: 408 -64
LayerCount: 2
Fore
SplineSet
405 254 m 1,0,-1
 405 218 l 1,1,-1
 221 64 l 1,2,-1
 198 83 l 1,3,-1
 285 236 l 1,4,-1
 198 389 l 1,5,-1
 221 408 l 1,6,-1
 405 254 l 1,0,-1
228 254 m 1,7,-1
 228 218 l 1,8,-1
 44 64 l 1,9,-1
 21 83 l 1,10,-1
 108 236 l 1,11,-1
 21 389 l 1,12,-1
 44 408 l 1,13,-1
 228 254 l 1,7,-1
EndSplineSet
EndChar

StartChar: ellipsis
Encoding: 220 8230 123
Width: 1000
Flags: W
TeX: 132 6
HStem: -12 162<111.726 222.274 444.726 555.274 777.726 888.274>
VStem: 86 162<13.7262 124.274> 419 162<13.7262 124.274> 752 162<13.7262 124.274>
CounterMasks: 1 70
LayerCount: 2
Fore
SplineSet
86 69 m 128,-1,1
 86 103 86 103 109.5 126.5 c 128,-1,2
 133 150 133 150 167 150 c 128,-1,3
 201 150 201 150 224.5 126.5 c 128,-1,4
 248 103 248 103 248 69 c 128,-1,5
 248 35 248 35 224.5 11.5 c 128,-1,6
 201 -12 201 -12 167 -12 c 128,-1,7
 133 -12 133 -12 109.5 11.5 c 128,-1,0
 86 35 86 35 86 69 c 128,-1,1
419 69 m 128,-1,9
 419 103 419 103 442.5 126.5 c 128,-1,10
 466 150 466 150 500 150 c 128,-1,11
 534 150 534 150 557.5 126.5 c 128,-1,12
 581 103 581 103 581 69 c 128,-1,13
 581 35 581 35 557.5 11.5 c 128,-1,14
 534 -12 534 -12 500 -12 c 128,-1,15
 466 -12 466 -12 442.5 11.5 c 128,-1,8
 419 35 419 35 419 69 c 128,-1,9
752 69 m 128,-1,17
 752 103 752 103 775.5 126.5 c 128,-1,18
 799 150 799 150 833 150 c 128,-1,19
 867 150 867 150 890.5 126.5 c 128,-1,20
 914 103 914 103 914 69 c 128,-1,21
 914 35 914 35 890.5 11.5 c 128,-1,22
 867 -12 867 -12 833 -12 c 128,-1,23
 799 -12 799 -12 775.5 11.5 c 128,-1,16
 752 35 752 35 752 69 c 128,-1,17
EndSplineSet
EndChar

StartChar: perthousand
Encoding: 221 8240 124
Width: 1000
Flags: W
TeX: 715 21
HStem: -12 30<454.673 521.327 802.673 869.327> 290 30<454.673 521.327 802.673 869.327> 374 30<130.673 197.327> 676 30<130.673 197.327> 702 20G<508.187 576>
VStem: 10 96<448.295 631.705> 222 96<448.295 631.705> 334 96<62.2946 245.705> 546 96<62.2946 245.705> 682 96<62.2946 245.705> 894 96<62.2946 245.705>
LayerCount: 2
Fore
SplineSet
10 540 m 128,-1,1
 10 613 10 613 51 659.5 c 128,-1,2
 92 706 92 706 164 706 c 128,-1,3
 236 706 236 706 277 659.5 c 128,-1,4
 318 613 318 613 318 540 c 128,-1,5
 318 467 318 467 277 420.5 c 128,-1,6
 236 374 236 374 164 374 c 128,-1,7
 92 374 92 374 51 420.5 c 128,-1,0
 10 467 10 467 10 540 c 128,-1,1
106 540 m 128,-1,9
 106 513 106 513 107.5 496 c 128,-1,10
 109 479 109 479 113.5 454.5 c 128,-1,11
 118 430 118 430 131 417 c 128,-1,12
 144 404 144 404 164 404 c 128,-1,13
 184 404 184 404 197 417 c 128,-1,14
 210 430 210 430 214.5 454.5 c 128,-1,15
 219 479 219 479 220.5 496 c 128,-1,16
 222 513 222 513 222 540 c 128,-1,17
 222 567 222 567 220.5 584 c 128,-1,18
 219 601 219 601 214.5 625.5 c 128,-1,19
 210 650 210 650 197 663 c 128,-1,20
 184 676 184 676 164 676 c 128,-1,21
 144 676 144 676 131 663 c 128,-1,22
 118 650 118 650 113.5 625.5 c 128,-1,23
 109 601 109 601 107.5 584 c 128,-1,8
 106 567 106 567 106 540 c 128,-1,9
430 154 m 128,-1,25
 430 127 430 127 431.5 110 c 128,-1,26
 433 93 433 93 437.5 68.5 c 128,-1,27
 442 44 442 44 455 31 c 128,-1,28
 468 18 468 18 488 18 c 128,-1,29
 508 18 508 18 521 31 c 128,-1,30
 534 44 534 44 538.5 68.5 c 128,-1,31
 543 93 543 93 544.5 110 c 128,-1,32
 546 127 546 127 546 154 c 128,-1,33
 546 181 546 181 544.5 198 c 128,-1,34
 543 215 543 215 538.5 239.5 c 128,-1,35
 534 264 534 264 521 277 c 128,-1,36
 508 290 508 290 488 290 c 128,-1,37
 468 290 468 290 455 277 c 128,-1,38
 442 264 442 264 437.5 239.5 c 128,-1,39
 433 215 433 215 431.5 198 c 128,-1,24
 430 181 430 181 430 154 c 128,-1,25
334 154 m 128,-1,41
 334 227 334 227 375 273.5 c 128,-1,42
 416 320 416 320 488 320 c 128,-1,43
 560 320 560 320 601 273.5 c 128,-1,44
 642 227 642 227 642 154 c 128,-1,45
 642 81 642 81 601 34.5 c 128,-1,46
 560 -12 560 -12 488 -12 c 128,-1,47
 416 -12 416 -12 375 34.5 c 128,-1,40
 334 81 334 81 334 154 c 128,-1,41
778 154 m 128,-1,49
 778 127 778 127 779.5 110 c 128,-1,50
 781 93 781 93 785.5 68.5 c 128,-1,51
 790 44 790 44 803 31 c 128,-1,52
 816 18 816 18 836 18 c 128,-1,53
 856 18 856 18 869 31 c 128,-1,54
 882 44 882 44 886.5 68.5 c 128,-1,55
 891 93 891 93 892.5 110 c 128,-1,56
 894 127 894 127 894 154 c 128,-1,57
 894 181 894 181 892.5 198 c 128,-1,58
 891 215 891 215 886.5 239.5 c 128,-1,59
 882 264 882 264 869 277 c 128,-1,60
 856 290 856 290 836 290 c 128,-1,61
 816 290 816 290 803 277 c 128,-1,62
 790 264 790 264 785.5 239.5 c 128,-1,63
 781 215 781 215 779.5 198 c 128,-1,48
 778 181 778 181 778 154 c 128,-1,49
682 154 m 128,-1,65
 682 227 682 227 723 273.5 c 128,-1,66
 764 320 764 320 836 320 c 128,-1,67
 908 320 908 320 949 273.5 c 128,-1,68
 990 227 990 227 990 154 c 128,-1,69
 990 81 990 81 949 34.5 c 128,-1,70
 908 -12 908 -12 836 -12 c 128,-1,71
 764 -12 764 -12 723 34.5 c 128,-1,64
 682 81 682 81 682 154 c 128,-1,65
77 -28 m 1,72,-1
 520 722 l 1,73,-1
 576 722 l 1,74,-1
 133 -28 l 1,75,-1
 77 -28 l 1,72,-1
EndSplineSet
EndChar

StartChar: questiondown
Encoding: 125 191 125
Width: 481
Flags: W
TeX: 508 220
HStem: -220 30<200.087 286.678> 357 162<202.726 313.274>
VStem: 24 138<-124.996 77.625> 177 162<382.726 493.274> 244 36<208.29 299> 299 110<-158.185 -64.5027>
LayerCount: 2
Fore
SplineSet
280 299 m 1,0,-1
 280 265 l 2,1,2
 280 235 280 235 273.5 213.5 c 128,-1,3
 267 192 267 192 256.5 179 c 128,-1,4
 246 166 246 166 233.5 155 c 128,-1,5
 221 144 221 144 208.5 130.5 c 128,-1,6
 196 117 196 117 185.5 99 c 128,-1,7
 175 81 175 81 168.5 49.5 c 128,-1,8
 162 18 162 18 162 -24 c 0,9,10
 162 -61 162 -61 163.5 -81.5 c 128,-1,11
 165 -102 165 -102 172.5 -131.5 c 128,-1,12
 180 -161 180 -161 199 -175.5 c 128,-1,13
 218 -190 218 -190 248 -190 c 0,14,15
 270 -190 270 -190 284.5 -179.5 c 128,-1,16
 299 -169 299 -169 299 -150 c 0,17,18
 299 -142 299 -142 294 -119 c 128,-1,19
 289 -96 289 -96 289 -84 c 0,20,21
 289 -56 289 -56 304.5 -40 c 128,-1,22
 320 -24 320 -24 349 -24 c 0,23,24
 377 -24 377 -24 393 -44 c 128,-1,25
 409 -64 409 -64 409 -95 c 0,26,27
 409 -153 409 -153 354.5 -186.5 c 128,-1,28
 300 -220 300 -220 239 -220 c 0,29,30
 24 -220 24 -220 24 -19 c 0,31,32
 24 31 24 31 40.5 67 c 128,-1,33
 57 103 57 103 81 121 c 128,-1,34
 105 139 105 139 134 154 c 128,-1,35
 163 169 163 169 187 179.5 c 128,-1,36
 211 190 211 190 227.5 209.5 c 128,-1,37
 244 229 244 229 244 256 c 2,38,-1
 244 299 l 1,39,-1
 280 299 l 1,0,-1
339 438 m 128,-1,41
 339 404 339 404 315.5 380.5 c 128,-1,42
 292 357 292 357 258 357 c 128,-1,43
 224 357 224 357 200.5 380.5 c 128,-1,44
 177 404 177 404 177 438 c 128,-1,45
 177 472 177 472 200.5 495.5 c 128,-1,46
 224 519 224 519 258 519 c 128,-1,47
 292 519 292 519 315.5 495.5 c 128,-1,40
 339 472 339 472 339 438 c 128,-1,41
EndSplineSet
EndChar

StartChar: grave
Encoding: 64 96 126
Width: 278
Flags: W
TeX: 738 -563
HStem: 555 182
VStem: -53 238
LayerCount: 2
Fore
SplineSet
185 555 m 1,0,-1
 129 555 l 1,1,-1
 -24 647 l 2,2,3
 -53 665 -53 665 -53 693 c 0,4,5
 -53 711 -53 711 -40.5 724 c 128,-1,6
 -28 737 -28 737 -5 737 c 0,7,8
 14 737 14 737 28 726.5 c 128,-1,9
 42 716 42 716 68 687 c 2,10,-1
 185 555 l 1,0,-1
EndSplineSet
EndChar

StartChar: acute
Encoding: 114 180 127
Width: 278
Flags: W
TeX: 738 -563
HStem: 555 182
VStem: 93 238
LayerCount: 2
Fore
SplineSet
149 555 m 1,0,-1
 93 555 l 1,1,-1
 210 687 l 2,2,3
 236 716 236 716 250 726.5 c 128,-1,4
 264 737 264 737 283 737 c 0,5,6
 306 737 306 737 318.5 724 c 128,-1,7
 331 711 331 711 331 693 c 0,8,9
 331 665 331 665 302 647 c 2,10,-1
 149 555 l 1,0,-1
EndSplineSet
EndChar

StartChar: circumflex
Encoding: 201 710 128
Width: 278
Flags: W
TeX: 733 -563
HStem: 555 176
LayerCount: 2
Fore
SplineSet
-29 555 m 1,0,-1
 93 731 l 1,1,-1
 185 731 l 1,2,-1
 307 555 l 1,3,-1
 251 555 l 1,4,-1
 139 653 l 1,5,-1
 27 555 l 1,6,-1
 -29 555 l 1,0,-1
EndSplineSet
EndChar

StartChar: tilde
Encoding: 207 732 129
Width: 278
Flags: W
TeX: 700 -586
HStem: 580 78<163.675 269.184> 628 78<8.52948 113.325>
VStem: -44 43<581 618.998> 279 43<667.002 705>
LayerCount: 2
Fore
SplineSet
-1 581 m 1,0,-1
 -44 581 l 1,1,2
 -30 638 -30 638 -4.5 672 c 128,-1,3
 21 706 21 706 71 706 c 0,4,5
 101 706 101 706 158.5 682 c 128,-1,6
 216 658 216 658 233 658 c 0,7,8
 268 658 268 658 279 705 c 1,9,-1
 322 705 l 1,10,11
 307 648 307 648 281.5 614 c 128,-1,12
 256 580 256 580 206 580 c 0,13,14
 176 580 176 580 118.5 604 c 128,-1,15
 61 628 61 628 44 628 c 0,16,17
 26 628 26 628 14 614 c 128,-1,18
 2 600 2 600 -1 581 c 1,0,-1
EndSplineSet
EndChar

StartChar: macron
Encoding: 109 175 130
Width: 278
Flags: W
TeX: 664 -604
HStem: 593 72<-8 286>
VStem: -8 294<593 665>
LayerCount: 2
Fore
SplineSet
-8 593 m 1,0,-1
 -8 665 l 1,1,-1
 286 665 l 1,2,-1
 286 593 l 1,3,-1
 -8 593 l 1,0,-1
EndSplineSet
EndChar

StartChar: breve
Encoding: 203 728 131
Width: 278
Flags: W
TeX: 721 -564
HStem: 557 78<66.8904 211.11> 701 20G<-12 39.5 238.5 290>
VStem: -12 43<672.037 721> 247 43<672.037 721>
LayerCount: 2
Fore
SplineSet
247 721 m 1,0,-1
 290 721 l 1,1,2
 286 646 286 646 248.5 601.5 c 128,-1,3
 211 557 211 557 139 557 c 128,-1,4
 67 557 67 557 29.5 601.5 c 128,-1,5
 -8 646 -8 646 -12 721 c 1,6,-1
 31 721 l 1,7,8
 48 635 48 635 139 635 c 128,-1,9
 230 635 230 635 247 721 c 1,0,-1
EndSplineSet
EndChar

StartChar: dotaccent
Encoding: 204 729 132
Width: 278
Flags: W
TeX: 683 -575
HStem: 563 132<93.1112 184.889>
VStem: 73 132<583.111 674.889>
LayerCount: 2
Fore
SplineSet
73 629 m 128,-1,1
 73 656 73 656 92.5 675.5 c 128,-1,2
 112 695 112 695 139 695 c 128,-1,3
 166 695 166 695 185.5 675.5 c 128,-1,4
 205 656 205 656 205 629 c 128,-1,5
 205 602 205 602 185.5 582.5 c 128,-1,6
 166 563 166 563 139 563 c 128,-1,7
 112 563 112 563 92.5 582.5 c 128,-1,0
 73 602 73 602 73 629 c 128,-1,1
EndSplineSet
EndChar

StartChar: dieresis
Encoding: 102 168 133
Width: 278
Flags: W
TeX: 683 -575
HStem: 562 132<-11.8888 79.8888 198.111 289.889>
VStem: -32 132<582.111 673.889> 178 132<582.111 673.889>
LayerCount: 2
Fore
SplineSet
-32 628 m 128,-1,1
 -32 655 -32 655 -12.5 674.5 c 128,-1,2
 7 694 7 694 34 694 c 128,-1,3
 61 694 61 694 80.5 674.5 c 128,-1,4
 100 655 100 655 100 628 c 128,-1,5
 100 601 100 601 80.5 581.5 c 128,-1,6
 61 562 61 562 34 562 c 128,-1,7
 7 562 7 562 -12.5 581.5 c 128,-1,0
 -32 601 -32 601 -32 628 c 128,-1,1
178 628 m 128,-1,9
 178 655 178 655 197.5 674.5 c 128,-1,10
 217 694 217 694 244 694 c 128,-1,11
 271 694 271 694 290.5 674.5 c 128,-1,12
 310 655 310 655 310 628 c 128,-1,13
 310 601 310 601 290.5 581.5 c 128,-1,14
 271 562 271 562 244 562 c 128,-1,15
 217 562 217 562 197.5 581.5 c 128,-1,8
 178 601 178 601 178 628 c 128,-1,9
EndSplineSet
EndChar

StartChar: ring
Encoding: 205 730 134
Width: 278
Flags: W
TeX: 746 -546
HStem: 538 48<96.0731 181.927> 702 48<96.0731 181.927>
VStem: 33 48<601.073 686.927> 197 48<601.073 686.927>
LayerCount: 2
Fore
SplineSet
33 644 m 128,-1,1
 33 688 33 688 64 719 c 128,-1,2
 95 750 95 750 139 750 c 128,-1,3
 183 750 183 750 214 719 c 128,-1,4
 245 688 245 688 245 644 c 128,-1,5
 245 600 245 600 214 569 c 128,-1,6
 183 538 183 538 139 538 c 128,-1,7
 95 538 95 538 64 569 c 128,-1,0
 33 600 33 600 33 644 c 128,-1,1
197 644 m 128,-1,9
 197 668 197 668 180 685 c 128,-1,10
 163 702 163 702 139 702 c 128,-1,11
 115 702 115 702 98 685 c 128,-1,12
 81 668 81 668 81 644 c 128,-1,13
 81 620 81 620 98 603 c 128,-1,14
 115 586 115 586 139 586 c 128,-1,15
 163 586 163 586 180 603 c 128,-1,8
 197 620 197 620 197 644 c 128,-1,9
EndSplineSet
EndChar

StartChar: cedilla
Encoding: 118 184 135
Width: 278
Flags: W
TeX: 0 220
HStem: -220 42<50.2643 169.358> -20 20G<123.224 174>
VStem: 174 96<-172.148 -109.392>
LayerCount: 2
Fore
SplineSet
41 -202 m 1,0,-1
 57 -165 l 1,1,2
 91 -178 91 -178 121 -178 c 0,3,4
 174 -178 174 -178 174 -138 c 0,5,6
 174 -121 174 -121 160.5 -111.5 c 128,-1,7
 147 -102 147 -102 130 -102 c 128,-1,8
 113 -102 113 -102 100 -106 c 1,9,-1
 89 -98 l 1,10,-1
 132 0 l 1,11,-1
 174 0 l 1,12,-1
 146 -65 l 1,13,14
 163 -60 163 -60 184 -60 c 0,15,16
 221 -60 221 -60 245.5 -76.5 c 128,-1,17
 270 -93 270 -93 270 -130 c 0,18,19
 270 -220 270 -220 128 -220 c 0,20,21
 88 -220 88 -220 41 -202 c 1,0,-1
EndSplineSet
EndChar

StartChar: hungarumlaut
Encoding: 208 733 136
Width: 278
Flags: W
TeX: 738 -563
HStem: 555 182<197 202>
LayerCount: 2
Fore
SplineSet
45 555 m 1,0,-1
 -11 555 l 1,1,-1
 106 687 l 2,2,3
 132 716 132 716 146 726.5 c 128,-1,4
 160 737 160 737 179 737 c 0,5,6
 202 737 202 737 214.5 724 c 128,-1,7
 227 711 227 711 227 693 c 0,8,9
 227 665 227 665 198 647 c 2,10,-1
 45 555 l 1,0,-1
253 555 m 1,11,-1
 197 555 l 1,12,-1
 314 687 l 2,13,14
 340 716 340 716 354 726.5 c 128,-1,15
 368 737 368 737 387 737 c 0,16,17
 410 737 410 737 422.5 724 c 128,-1,18
 435 711 435 711 435 693 c 0,19,20
 435 665 435 665 406 647 c 2,21,-1
 253 555 l 1,11,-1
EndSplineSet
EndChar

StartChar: ogonek
Encoding: 206 731 137
Width: 278
Flags: W
TeX: 3 220
HStem: -220 42<103 187.552> -20 20G<110.5 191>
VStem: 17 90<-169.498 -72.5835>
LayerCount: 2
Fore
SplineSet
202 -142 m 1,0,-1
 232 -150 l 1,1,2
 207 -188 207 -188 180 -204 c 128,-1,3
 153 -220 153 -220 109 -220 c 0,4,5
 97 -220 97 -220 84.5 -217.5 c 128,-1,6
 72 -215 72 -215 55 -207 c 128,-1,7
 38 -199 38 -199 27.5 -180.5 c 128,-1,8
 17 -162 17 -162 17 -135 c 0,9,10
 17 -94 17 -94 50 -59 c 128,-1,11
 83 -24 83 -24 138 0 c 1,12,-1
 191 0 l 1,13,14
 107 -72 107 -72 107 -131 c 0,15,16
 107 -153 107 -153 117.5 -165.5 c 128,-1,17
 128 -178 128 -178 147 -178 c 0,18,19
 179 -178 179 -178 202 -142 c 1,0,-1
EndSplineSet
EndChar

StartChar: caron
Encoding: 202 711 138
Width: 278
Flags: W
TeX: 733 -563
HStem: 555 176
LayerCount: 2
Fore
SplineSet
93 555 m 1,0,-1
 -29 731 l 1,1,-1
 27 731 l 1,2,-1
 139 633 l 1,3,-1
 251 731 l 1,4,-1
 307 731 l 1,5,-1
 185 555 l 1,6,-1
 93 555 l 1,0,-1
EndSplineSet
EndChar

StartChar: emdash
Encoding: 210 8212 139
Width: 1000
Flags: W
TeX: 263 -209
HStem: 191 90<130 870>
LayerCount: 2
Fore
SplineSet
130 191 m 1,0,-1
 130 281 l 1,1,-1
 870 281 l 1,2,-1
 870 191 l 1,3,-1
 130 191 l 1,0,-1
EndSplineSet
EndChar

StartChar: AE
Encoding: 132 198 140
Width: 1056
Flags: W
TeX: 715 0
HStem: 0 30<4 88 130 226 350 446 602 810.404> 262 30<256 446> 350 30<602 689.012> 489 21G<930 968> 685 30<328 412 444 446 602 790.759>
VStem: 446 156<30 262 292 350 380 679> 767 30<199 280.947 451.686 525> 938 30<489 550.729> 966 30<175.743 241>
LayerCount: 2
Fore
SplineSet
4 0 m 1,0,-1
 4 30 l 1,1,-1
 88 30 l 1,2,-1
 412 685 l 1,3,-1
 328 685 l 1,4,-1
 328 715 l 1,5,-1
 968 715 l 1,6,-1
 968 489 l 1,7,-1
 938 489 l 1,8,9
 922 598 922 598 855.5 641.5 c 128,-1,10
 789 685 789 685 674 685 c 2,11,-1
 602 685 l 1,12,-1
 602 380 l 1,13,14
 767 380 767 380 767 525 c 1,15,-1
 797 525 l 1,16,-1
 797 199 l 1,17,-1
 767 199 l 1,18,19
 767 283 767 283 726 316.5 c 128,-1,20
 685 350 685 350 602 350 c 1,21,-1
 602 30 l 1,22,-1
 707 30 l 2,23,24
 753 30 753 30 793 40 c 128,-1,25
 833 50 833 50 871 72.5 c 128,-1,26
 909 95 909 95 934 138 c 128,-1,27
 959 181 959 181 966 241 c 1,28,-1
 996 241 l 1,29,-1
 996 0 l 1,30,-1
 350 0 l 1,31,-1
 350 30 l 1,32,-1
 446 30 l 1,33,-1
 446 262 l 1,34,-1
 242 262 l 1,35,-1
 130 30 l 1,36,-1
 226 30 l 1,37,-1
 226 0 l 1,38,-1
 4 0 l 1,0,-1
446 292 m 1,39,-1
 446 679 l 1,40,-1
 444 679 l 1,41,-1
 256 292 l 1,42,-1
 446 292 l 1,39,-1
EndSplineSet
Substitution2: "sous-table 'c2sc' Capitales vers petites capitales dans Latin lookup 0" ae.sc
EndChar

StartChar: ordfeminine
Encoding: 104 170 141
Width: 385
Flags: W
TeX: 706 -398
HStem: 398 36<101.5 207.529 340.771 378> 682 24<136.648 216.432>
VStem: 22 104<439.359 538.496> 44 84<619.86 670.14> 228 104<448.343 580 596.695 669.622>
LayerCount: 2
Fore
SplineSet
332 616 m 2,0,-1
 332 479 l 2,1,2
 332 449 332 449 340.5 438.5 c 128,-1,3
 349 428 349 428 378 428 c 1,4,-1
 378 404 l 1,5,6
 342 398 342 398 301 398 c 0,7,8
 266 398 266 398 250.5 408 c 128,-1,9
 235 418 235 418 230 445 c 1,10,-1
 228 445 l 1,11,12
 217 398 217 398 128 398 c 0,13,14
 75 398 75 398 48.5 423 c 128,-1,15
 22 448 22 448 22 493 c 0,16,17
 22 526 22 526 38 543 c 128,-1,18
 54 560 54 560 85 569 c 0,19,20
 96 572 96 572 146.5 582 c 128,-1,21
 197 592 197 592 228 604 c 1,22,-1
 228 635 l 2,23,24
 228 658 228 658 217 670 c 128,-1,25
 206 682 206 682 175 682 c 0,26,27
 147 682 147 682 136.5 670.5 c 128,-1,28
 126 659 126 659 128 645 c 128,-1,29
 130 631 130 631 121 619.5 c 128,-1,30
 112 608 112 608 86 608 c 0,31,32
 44 608 44 608 44 641 c 0,33,34
 44 676 44 676 84 691 c 128,-1,35
 124 706 124 706 174 706 c 0,36,37
 214 706 214 706 239 703 c 128,-1,38
 264 700 264 700 287 691.5 c 128,-1,39
 310 683 310 683 321 664 c 128,-1,40
 332 645 332 645 332 616 c 2,0,-1
228 528 m 2,41,-1
 228 580 l 1,42,-1
 180 561 l 2,43,44
 152 550 152 550 139 535 c 128,-1,45
 126 520 126 520 126 492 c 0,46,47
 126 434 126 434 170 434 c 0,48,49
 228 434 228 434 228 528 c 2,41,-1
EndSplineSet
EndChar

StartChar: Lslash
Encoding: 191 321 142
Width: 722
Flags: W
TeX: 715 0
HStem: 0 30<30 126 282 501.167> 685 30<30 126 282 378>
VStem: 126 156<30 259 336 368 445 685> 658 30<181.533 250>
LayerCount: 2
Fore
SplineSet
30 0 m 1,0,-1
 30 30 l 1,1,-1
 126 30 l 1,2,-1
 126 259 l 1,3,-1
 30 192 l 1,4,-1
 30 269 l 1,5,-1
 126 336 l 1,6,-1
 126 685 l 1,7,-1
 30 685 l 1,8,-1
 30 715 l 1,9,-1
 378 715 l 1,10,-1
 378 685 l 1,11,-1
 282 685 l 1,12,-1
 282 445 l 1,13,-1
 470 577 l 1,14,-1
 470 500 l 1,15,-1
 282 368 l 1,16,-1
 282 30 l 1,17,-1
 399 30 l 2,18,19
 445 30 445 30 485 40 c 128,-1,20
 525 50 525 50 563 73.5 c 128,-1,21
 601 97 601 97 626 142 c 128,-1,22
 651 187 651 187 658 250 c 1,23,-1
 688 250 l 1,24,-1
 688 0 l 1,25,-1
 30 0 l 1,0,-1
EndSplineSet
EndChar

StartChar: Oslash
Encoding: 150 216 143
Width: 870
Flags: W
TeX: 727 12
HStem: -12 30<359.315 511.657> 697 30<358.343 510.31>
VStem: 60 176<222.481 493.399> 634 176<221.9 494.283>
LayerCount: 2
Fore
SplineSet
249 201 m 1,0,-1
 609 558 l 1,1,2
 566 697 566 697 435 697 c 0,3,4
 390 697 390 697 355.5 681.5 c 128,-1,5
 321 666 321 666 300 636.5 c 128,-1,6
 279 607 279 607 265.5 575 c 128,-1,7
 252 543 252 543 246 500.5 c 128,-1,8
 240 458 240 458 238 427 c 128,-1,9
 236 396 236 396 236 358 c 0,10,11
 236 265 236 265 249 201 c 1,0,-1
621 514 m 1,12,-1
 261 157 l 1,13,14
 304 18 304 18 435 18 c 0,15,16
 480 18 480 18 514.5 33.5 c 128,-1,17
 549 49 549 49 570 78.5 c 128,-1,18
 591 108 591 108 604.5 140 c 128,-1,19
 618 172 618 172 624 214.5 c 128,-1,20
 630 257 630 257 632 288 c 128,-1,21
 634 319 634 319 634 358 c 0,22,23
 634 450 634 450 621 514 c 1,12,-1
63 17 m 1,24,-1
 151 104 l 1,25,26
 60 206 60 206 60 358 c 0,27,28
 60 521 60 521 162.5 624 c 128,-1,29
 265 727 265 727 435 727 c 0,30,31
 590 727 590 727 691 639 c 1,32,-1
 780 727 l 1,33,-1
 807 698 l 1,34,-1
 719 611 l 1,35,36
 810 512 810 512 810 358 c 0,37,38
 810 194 810 194 707.5 91 c 128,-1,39
 605 -12 605 -12 435 -12 c 0,40,41
 278 -12 278 -12 179 76 c 1,42,-1
 90 -12 l 1,43,-1
 63 17 l 1,24,-1
EndSplineSet
Substitution2: "sous-table 'c2sc' Capitales vers petites capitales dans Latin lookup 0" oslash.sc
EndChar

StartChar: OE
Encoding: 193 338 144
Width: 1167
Flags: W
TeX: 721 6
HStem: -12 30<358.343 507.449> 0 30<727 935.404> 350 30<727 814.012> 489 21G<1055 1093> 685 30<727 915.759> 697 30<358.343 507.449>
VStem: 60 176<221.9 493.399> 571 156<69.5176 350 380 645.482> 892 30<199 280.947 451.686 525> 1063 30<489 550.729> 1091 30<175.743 241>
LayerCount: 2
Fore
SplineSet
727 685 m 1,0,-1
 727 380 l 1,1,2
 892 380 892 380 892 525 c 1,3,-1
 922 525 l 1,4,-1
 922 199 l 1,5,-1
 892 199 l 1,6,7
 892 283 892 283 851 316.5 c 128,-1,8
 810 350 810 350 727 350 c 1,9,-1
 727 30 l 1,10,-1
 832 30 l 2,11,12
 878 30 878 30 918 40 c 128,-1,13
 958 50 958 50 996 72.5 c 128,-1,14
 1034 95 1034 95 1059 138 c 128,-1,15
 1084 181 1084 181 1091 241 c 1,16,-1
 1121 241 l 1,17,-1
 1121 0 l 1,18,-1
 679 0 l 2,19,20
 631 0 631 0 549 -6 c 128,-1,21
 467 -12 467 -12 435 -12 c 0,22,23
 265 -12 265 -12 162.5 91 c 128,-1,24
 60 194 60 194 60 358 c 0,25,26
 60 521 60 521 162.5 624 c 128,-1,27
 265 727 265 727 435 727 c 0,28,29
 467 727 467 727 549 721 c 128,-1,30
 631 715 631 715 679 715 c 2,31,-1
 1093 715 l 1,32,-1
 1093 489 l 1,33,-1
 1063 489 l 1,34,35
 1047 598 1047 598 980.5 641.5 c 128,-1,36
 914 685 914 685 799 685 c 2,37,-1
 727 685 l 1,0,-1
571 209 m 2,38,-1
 571 506 l 2,39,40
 571 544 571 544 569 567.5 c 128,-1,41
 567 591 567 591 559.5 618.5 c 128,-1,42
 552 646 552 646 538 661 c 128,-1,43
 524 676 524 676 498 686.5 c 128,-1,44
 472 697 472 697 435 697 c 0,45,46
 390 697 390 697 355.5 681.5 c 128,-1,47
 321 666 321 666 300 636.5 c 128,-1,48
 279 607 279 607 265.5 575 c 128,-1,49
 252 543 252 543 246 500.5 c 128,-1,50
 240 458 240 458 238 427 c 128,-1,51
 236 396 236 396 236 358 c 0,52,53
 236 319 236 319 238 288 c 128,-1,54
 240 257 240 257 246 214.5 c 128,-1,55
 252 172 252 172 265.5 140 c 128,-1,56
 279 108 279 108 300 78.5 c 128,-1,57
 321 49 321 49 355.5 33.5 c 128,-1,58
 390 18 390 18 435 18 c 0,59,60
 472 18 472 18 498 28.5 c 128,-1,61
 524 39 524 39 538 54 c 128,-1,62
 552 69 552 69 559.5 96.5 c 128,-1,63
 567 124 567 124 569 147.5 c 128,-1,64
 571 171 571 171 571 209 c 2,38,-1
EndSplineSet
Substitution2: "sous-table 'c2sc' Capitales vers petites capitales dans Latin lookup 0" oe.sc
EndChar

StartChar: ordmasculine
Encoding: 120 186 145
Width: 398
Flags: W
TeX: 706 -398
HStem: 398 24<162.001 235.796> 682 24<162.407 235.796>
VStem: 22 114<470.709 629.817> 262 114<472.057 631.943>
LayerCount: 2
Fore
SplineSet
262 552 m 128,-1,1
 262 584 262 584 261 600.5 c 128,-1,2
 260 617 260 617 254.5 639.5 c 128,-1,3
 249 662 249 662 235 672 c 128,-1,4
 221 682 221 682 199 682 c 128,-1,5
 177 682 177 682 163 672 c 128,-1,6
 149 662 149 662 143.5 639.5 c 128,-1,7
 138 617 138 617 137 600.5 c 128,-1,8
 136 584 136 584 136 552 c 128,-1,9
 136 520 136 520 137 503.5 c 128,-1,10
 138 487 138 487 143.5 464.5 c 128,-1,11
 149 442 149 442 163 432 c 128,-1,12
 177 422 177 422 199 422 c 128,-1,13
 221 422 221 422 235 432 c 128,-1,14
 249 442 249 442 254.5 464.5 c 128,-1,15
 260 487 260 487 261 503.5 c 128,-1,0
 262 520 262 520 262 552 c 128,-1,1
376 552 m 128,-1,17
 376 484 376 484 327.5 441 c 128,-1,18
 279 398 279 398 199 398 c 0,19,20
 118 398 118 398 70 440 c 128,-1,21
 22 482 22 482 22 552 c 0,22,23
 22 619 22 619 71 662.5 c 128,-1,24
 120 706 120 706 199 706 c 0,25,26
 279 706 279 706 327.5 663 c 128,-1,16
 376 620 376 620 376 552 c 128,-1,17
EndSplineSet
EndChar

StartChar: ae
Encoding: 164 230 146
Width: 870
Flags: W
TeX: 502 12
HStem: -12 48<164 305.182 543.549 709.65> 270 30<492 677> 339 141.5<110.383 177.589> 472 30<214.98 321.991 543.802 641.126>
VStem: 45 144<54.5079 226.562> 79 113<352.923 449.27> 348 144<102.775 270 300 301 322.322 421.834> 677 156<300 378.946>
LayerCount: 2
Fore
SplineSet
492 300 m 1,0,-1
 677 300 l 1,1,-1
 677 346 l 2,2,3
 677 472 677 472 595 472 c 0,4,5
 575 472 575 472 558.5 465 c 128,-1,6
 542 458 542 458 532 450 c 128,-1,7
 522 442 522 442 514.5 424 c 128,-1,8
 507 406 507 406 503 395.5 c 128,-1,9
 499 385 499 385 496.5 361.5 c 128,-1,10
 494 338 494 338 493.5 330.5 c 128,-1,11
 493 323 493 323 492 300 c 1,0,-1
45 147 m 0,12,13
 45 192 45 192 61 219.5 c 128,-1,14
 77 247 77 247 108.5 261 c 128,-1,15
 140 275 140 275 174 282.5 c 128,-1,16
 208 290 208 290 258.5 302 c 128,-1,17
 309 314 309 314 348 331 c 1,18,-1
 348 393 l 2,19,20
 348 472 348 472 271 472 c 0,21,22
 233 472 233 472 215.5 458.5 c 128,-1,23
 198 445 198 445 195.5 425.5 c 128,-1,24
 193 406 193 406 192 386 c 128,-1,25
 191 366 191 366 178 352.5 c 128,-1,26
 165 339 165 339 134 339 c 0,27,28
 79 339 79 339 79 393 c 0,29,30
 79 424 79 424 98 446.5 c 128,-1,31
 117 469 117 469 148.5 480.5 c 128,-1,32
 180 492 180 492 211 497 c 128,-1,33
 242 502 242 502 274 502 c 0,34,35
 384 502 384 502 424 439 c 1,36,37
 490 502 490 502 601 502 c 0,38,39
 702 502 702 502 767.5 440 c 128,-1,40
 833 378 833 378 833 270 c 1,41,-1
 492 270 l 1,42,-1
 492 227 l 2,43,44
 492 188 492 188 496.5 157.5 c 128,-1,45
 501 127 501 127 514.5 96 c 128,-1,46
 528 65 528 65 556.5 47.5 c 128,-1,47
 585 30 585 30 627 30 c 0,48,49
 742 30 742 30 797 150 c 1,50,-1
 824 138 l 1,51,52
 764 -12 764 -12 601 -12 c 0,53,54
 442 -12 442 -12 377 102 c 1,55,56
 343 -12 343 -12 203 -12 c 0,57,58
 125 -12 125 -12 85 30 c 128,-1,59
 45 72 45 72 45 147 c 0,12,13
348 215 m 2,60,-1
 348 301 l 1,61,-1
 267 270 l 2,62,63
 226 255 226 255 207.5 225.5 c 128,-1,64
 189 196 189 196 189 132 c 0,65,66
 189 36 189 36 258 36 c 0,67,68
 289 36 289 36 309 54 c 128,-1,69
 329 72 329 72 336.5 105.5 c 128,-1,70
 344 139 344 139 346 161 c 128,-1,71
 348 183 348 183 348 215 c 2,60,-1
EndSplineSet
Substitution2: "sous-table 'smcp' Bas-de-casse vers petites capitales dans Latin lookup 0" ae.sc
EndChar

StartChar: dotlessi
Encoding: 190 305 147
Width: 334
Flags: W
TeX: 490 0
HStem: 0 30<23 95 239 311> 460 30<23 94.625>
VStem: 95 144<30 460>
LayerCount: 2
Fore
SplineSet
23 0 m 1,0,-1
 23 30 l 1,1,-1
 95 30 l 1,2,-1
 95 460 l 1,3,-1
 23 460 l 1,4,-1
 23 490 l 1,5,-1
 85 490 l 2,6,7
 162 490 162 490 239 496 c 1,8,-1
 239 30 l 1,9,-1
 311 30 l 1,10,-1
 311 0 l 1,11,-1
 23 0 l 1,0,-1
EndSplineSet
EndChar

StartChar: lslash
Encoding: 192 322 148
Width: 334
Flags: W
TeX: 715 0
HStem: 0 30<23 95 239 311> 685 30<23 94.625>
VStem: 95 144<30 320 376 423 479 685>
LayerCount: 2
Fore
SplineSet
23 0 m 1,0,-1
 23 30 l 1,1,-1
 95 30 l 1,2,-1
 95 320 l 1,3,-1
 23 268 l 1,4,-1
 23 324 l 1,5,-1
 95 376 l 1,6,-1
 95 685 l 1,7,-1
 23 685 l 1,8,-1
 23 715 l 1,9,-1
 85 715 l 2,10,11
 162 715 162 715 239 721 c 1,12,-1
 239 479 l 1,13,-1
 311 530 l 1,14,-1
 311 474 l 1,15,-1
 239 423 l 1,16,-1
 239 30 l 1,17,-1
 311 30 l 1,18,-1
 311 0 l 1,19,-1
 23 0 l 1,0,-1
EndSplineSet
EndChar

StartChar: oslash
Encoding: 182 248 149
Width: 610
Flags: W
TeX: 502 12
HStem: -12 30<252.57 360.379> 472 30<249.621 358.94>
VStem: 45 156<176.927 355.687> 409 156<134.313 314.281>
LayerCount: 2
Fore
SplineSet
33 14 m 1,0,-1
 100 78 l 1,1,2
 45 144 45 144 45 245 c 0,3,4
 45 357 45 357 118 429.5 c 128,-1,5
 191 502 191 502 305 502 c 0,6,7
 409 502 409 502 481 440 c 1,8,-1
 549 505 l 1,9,-1
 577 475 l 1,10,-1
 509 411 l 1,11,12
 565 343 565 343 565 245 c 0,13,14
 565 133 565 133 492 60.5 c 128,-1,15
 419 -12 419 -12 305 -12 c 0,16,17
 197 -12 197 -12 128 48 c 1,18,-1
 61 -15 l 1,19,-1
 33 14 l 1,0,-1
408 315 m 1,20,-1
 206 123 l 1,21,22
 221 18 221 18 305 18 c 0,23,24
 330 18 330 18 348.5 25.5 c 128,-1,25
 367 33 367 33 378 51.5 c 128,-1,26
 389 70 389 70 396 86.5 c 128,-1,27
 403 103 403 103 405.5 135 c 128,-1,28
 408 167 408 167 408.5 186.5 c 128,-1,29
 409 206 409 206 409 245 c 0,30,31
 409 293 409 293 408 315 c 1,20,-1
202 175 m 1,32,-1
 404 367 l 1,33,34
 396 418 396 418 373.5 445 c 128,-1,35
 351 472 351 472 305 472 c 0,36,37
 280 472 280 472 261.5 464.5 c 128,-1,38
 243 457 243 457 232 438.5 c 128,-1,39
 221 420 221 420 214 403.5 c 128,-1,40
 207 387 207 387 204.5 355 c 128,-1,41
 202 323 202 323 201.5 303.5 c 128,-1,42
 201 284 201 284 201 245 c 0,43,44
 201 198 201 198 202 175 c 1,32,-1
EndSplineSet
Substitution2: "sous-table 'smcp' Bas-de-casse vers petites capitales dans Latin lookup 0" oslash.sc
EndChar

StartChar: oe
Encoding: 194 339 150
Width: 907
Flags: W
TeX: 502 12
HStem: -12 42<603.027 747.011> -12 30<246.207 352.846> 270 30<543 714> 472 30<246.845 353.602 588.853 681.032>
VStem: 45 156<131.088 355.687> 398.5 144.5<99.4502 270 300 424.352> 714 156<300 378.946>
LayerCount: 2
Fore
SplineSet
543 300 m 1,0,-1
 714 300 l 1,1,-1
 714 346 l 2,2,3
 714 472 714 472 638 472 c 0,4,5
 616 472 616 472 600 464.5 c 128,-1,6
 584 457 584 457 574 440.5 c 128,-1,7
 564 424 564 424 558 411 c 128,-1,8
 552 398 552 398 549 372 c 128,-1,9
 546 346 546 346 545 336 c 128,-1,10
 544 326 544 326 543 300 c 1,0,-1
870 270 m 1,11,-1
 543 270 l 1,12,-1
 543 227 l 2,13,14
 543 30 543 30 671 30 c 0,15,16
 783 30 783 30 838 150 c 1,17,-1
 864 138 l 1,18,19
 835 64 835 64 778.5 26 c 128,-1,20
 722 -12 722 -12 645 -12 c 0,21,22
 526 -12 526 -12 469 59 c 1,23,24
 411 -12 411 -12 305 -12 c 0,25,26
 188 -12 188 -12 116.5 58 c 128,-1,27
 45 128 45 128 45 245 c 0,28,29
 45 357 45 357 118 429.5 c 128,-1,30
 191 502 191 502 305 502 c 0,31,32
 407 502 407 502 470 435 c 1,33,34
 538 502 538 502 642 502 c 0,35,36
 741 502 741 502 805.5 440 c 128,-1,37
 870 378 870 378 870 270 c 1,11,-1
201 245 m 128,-1,39
 201 206 201 206 201.5 186.5 c 128,-1,40
 202 167 202 167 204.5 135 c 128,-1,41
 207 103 207 103 213.5 86.5 c 128,-1,42
 220 70 220 70 230.5 51.5 c 128,-1,43
 241 33 241 33 258.5 25.5 c 128,-1,44
 276 18 276 18 300 18 c 128,-1,45
 324 18 324 18 341.5 25.5 c 128,-1,46
 359 33 359 33 369.5 51.5 c 128,-1,47
 380 70 380 70 386.5 86.5 c 128,-1,48
 393 103 393 103 395.5 135 c 128,-1,49
 398 167 398 167 398.5 186.5 c 128,-1,50
 399 206 399 206 399 245 c 128,-1,51
 399 284 399 284 398.5 303.5 c 128,-1,52
 398 323 398 323 395.5 355 c 128,-1,53
 393 387 393 387 386.5 403.5 c 128,-1,54
 380 420 380 420 369.5 438.5 c 128,-1,55
 359 457 359 457 341.5 464.5 c 128,-1,56
 324 472 324 472 300 472 c 128,-1,57
 276 472 276 472 258.5 464.5 c 128,-1,58
 241 457 241 457 230.5 438.5 c 128,-1,59
 220 420 220 420 213.5 403.5 c 128,-1,60
 207 387 207 387 204.5 355 c 128,-1,61
 202 323 202 323 201.5 303.5 c 128,-1,38
 201 284 201 284 201 245 c 128,-1,39
EndSplineSet
Substitution2: "sous-table 'smcp' Bas-de-casse vers petites capitales dans Latin lookup 0" oe.sc
EndChar

StartChar: germandbls
Encoding: 157 223 151
Width: 630
Flags: W
TeX: 727 6
HStem: -12 48<344.978 422.075> 0 30<23 95 239 287> 420 30<310 383.361> 697 30<272.844 370.102>
VStem: 95 144<30 616.574> 296 30<56.5214 132> 409 150<512.293 658.936> 436 150<88.3333 339.62>
LayerCount: 2
Fore
SplineSet
23 0 m 1,0,-1
 23 30 l 1,1,-1
 95 30 l 1,2,-1
 95 515 l 2,3,4
 95 616 95 616 159 671.5 c 128,-1,5
 223 727 223 727 343 727 c 0,6,7
 559 727 559 727 559 582 c 0,8,9
 559 536 559 536 530 503 c 128,-1,10
 501 470 501 470 461.5 456 c 128,-1,11
 422 442 422 442 376 440 c 1,12,-1
 376 438 l 1,13,14
 490 427 490 427 538 378.5 c 128,-1,15
 586 330 586 330 586 216 c 0,16,17
 586 156 586 156 571.5 107.5 c 128,-1,18
 557 59 557 59 517 23.5 c 128,-1,19
 477 -12 477 -12 416 -12 c 0,20,21
 350 -12 350 -12 323 25.5 c 128,-1,22
 296 63 296 63 296 132 c 1,23,-1
 326 132 l 1,24,25
 327 113 327 113 328 102.5 c 128,-1,26
 329 92 329 92 333.5 73.5 c 128,-1,27
 338 55 338 55 349.5 45.5 c 128,-1,28
 361 36 361 36 379 36 c 0,29,30
 415 36 415 36 425.5 64.5 c 128,-1,31
 436 93 436 93 436 159 c 2,32,-1
 436 213 l 2,33,34
 436 245 436 245 435.5 260.5 c 128,-1,35
 435 276 435 276 434 300.5 c 128,-1,36
 433 325 433 325 429.5 337 c 128,-1,37
 426 349 426 349 420 365.5 c 128,-1,38
 414 382 414 382 405 389.5 c 128,-1,39
 396 397 396 397 383 405.5 c 128,-1,40
 370 414 370 414 351.5 417 c 128,-1,41
 333 420 333 420 310 420 c 1,42,-1
 310 450 l 1,43,44
 365 450 365 450 387 475.5 c 128,-1,45
 409 501 409 501 409 560 c 0,46,47
 409 601 409 601 404 628 c 128,-1,48
 399 655 399 655 378 676 c 128,-1,49
 357 697 357 697 320 697 c 0,50,51
 277 697 277 697 258 666.5 c 128,-1,52
 239 636 239 636 239 591 c 2,53,-1
 239 30 l 1,54,-1
 287 30 l 1,55,-1
 287 0 l 1,56,-1
 23 0 l 1,0,-1
EndSplineSet
EndChar

StartChar: divide
Encoding: 181 247 152
Width: 600
Flags: W
TeX: 514 12
HStem: -38 168<244.16 355.84> 201 104<47 553> 376 168<244.16 355.84>
VStem: 216 168<-9.83984 101.84 404.16 515.84>
CounterMasks: 1 e0
LayerCount: 2
Fore
SplineSet
47 201 m 1,0,-1
 47 305 l 1,1,-1
 553 305 l 1,2,-1
 553 201 l 1,3,-1
 47 201 l 1,0,-1
216 460 m 128,-1,5
 216 494 216 494 241 519 c 128,-1,6
 266 544 266 544 300 544 c 128,-1,7
 334 544 334 544 359 519 c 128,-1,8
 384 494 384 494 384 460 c 128,-1,9
 384 426 384 426 359 401 c 128,-1,10
 334 376 334 376 300 376 c 128,-1,11
 266 376 266 376 241 401 c 128,-1,4
 216 426 216 426 216 460 c 128,-1,5
216 46 m 128,-1,13
 216 80 216 80 241 105 c 128,-1,14
 266 130 266 130 300 130 c 128,-1,15
 334 130 334 130 359 105 c 128,-1,16
 384 80 384 80 384 46 c 128,-1,17
 384 12 384 12 359 -13 c 128,-1,18
 334 -38 334 -38 300 -38 c 128,-1,19
 266 -38 266 -38 241 -13 c 128,-1,12
 216 12 216 12 216 46 c 128,-1,13
EndSplineSet
EndChar

StartChar: threequarters
Encoding: 124 190 153
Width: 834
Flags: W
TeX: 715 21
HStem: 0 21G<610 724> 123 30<490 610 724 764> 273.5 20.7002<91.818 195.854> 491.301 20.6992<89.2002 174.672> 680.301 20.6992<111.501 193.742> 702 20G<590.187 658>
VStem: 10.9004 66.5996<308.684 361.25> 40.6006 63<613.806 669.155> 216.101 99.8994<558.907 658.341> 241.301 108<337.847 451.456> 610 114<0 123 153 310> 764 24<72 123 153 200>
LayerCount: 2
Fore
SplineSet
196.30078125 507.5 m 1,0,1
 264.700195312 501.200195312 264.700195312 501.200195312 307 470.150390625 c 128,-1,2
 349.30078125 439.100585938 349.30078125 439.100585938 349.30078125 395.900390625 c 0,3,4
 349.30078125 346.400390625 349.30078125 346.400390625 297.55078125 309.950195312 c 128,-1,5
 245.80078125 273.5 245.80078125 273.5 158.5 273.5 c 0,6,7
 92.80078125 273.5 92.80078125 273.5 51.8505859375 295.55078125 c 128,-1,8
 10.900390625 317.600585938 10.900390625 317.600585938 10.900390625 351.80078125 c 0,9,10
 10.900390625 370.700195312 10.900390625 370.700195312 24.400390625 381.950195312 c 128,-1,11
 37.900390625 393.200195312 37.900390625 393.200195312 60.400390625 393.200195312 c 0,12,13
 81.1005859375 393.200195312 81.1005859375 393.200195312 95.05078125 383.75 c 128,-1,14
 109 374.30078125 109 374.30078125 109 359.900390625 c 0,15,16
 109 346.400390625 109 346.400390625 93.25 337.400390625 c 128,-1,17
 77.5 328.400390625 77.5 328.400390625 77.5 321.200195312 c 0,18,19
 77.5 307.700195312 77.5 307.700195312 100.900390625 300.950195312 c 128,-1,20
 124.30078125 294.200195312 124.30078125 294.200195312 149.5 294.200195312 c 0,21,22
 193.600585938 294.200195312 193.600585938 294.200195312 217.450195312 320.30078125 c 128,-1,23
 241.30078125 346.400390625 241.30078125 346.400390625 241.30078125 395.900390625 c 0,24,25
 241.30078125 443.600585938 241.30078125 443.600585938 217 467.450195312 c 128,-1,26
 192.700195312 491.30078125 192.700195312 491.30078125 137.80078125 491.30078125 c 2,27,-1
 89.2001953125 491.30078125 l 1,28,-1
 89.2001953125 512 l 1,29,-1
 125.200195312 512 l 2,30,31
 216.100585938 512 216.100585938 512 216.100585938 607.400390625 c 0,32,33
 216.100585938 647.900390625 216.100585938 647.900390625 200.80078125 664.100585938 c 128,-1,34
 185.5 680.30078125 185.5 680.30078125 154.900390625 680.30078125 c 0,35,36
 133.30078125 680.30078125 133.30078125 680.30078125 118.450195312 674 c 128,-1,37
 103.600585938 667.700195312 103.600585938 667.700195312 103.600585938 656.900390625 c 0,38,39
 103.600585938 651.5 103.600585938 651.5 113.05078125 642.5 c 128,-1,40
 122.5 633.5 122.5 633.5 122.5 622.700195312 c 0,41,42
 122.5 608.30078125 122.5 608.30078125 111.25 601.100585938 c 128,-1,43
 100 593.900390625 100 593.900390625 83.80078125 593.900390625 c 0,44,45
 65.80078125 593.900390625 65.80078125 593.900390625 53.2001953125 604.25 c 128,-1,46
 40.6005859375 614.600585938 40.6005859375 614.600585938 40.6005859375 629.900390625 c 0,47,48
 40.6005859375 657.80078125 40.6005859375 657.80078125 77.05078125 679.400390625 c 128,-1,49
 113.5 701 113.5 701 172 701 c 0,50,51
 236.80078125 701 236.80078125 701 276.400390625 673.55078125 c 128,-1,52
 316 646.100585938 316 646.100585938 316 608.30078125 c 0,53,54
 316 575.900390625 316 575.900390625 284.05078125 549.350585938 c 128,-1,55
 252.100585938 522.80078125 252.100585938 522.80078125 196.30078125 511.100585938 c 1,56,-1
 196.30078125 507.5 l 1,0,1
610 153 m 1,57,-1
 610 310 l 1,58,-1
 608 310 l 1,59,-1
 490 153 l 1,60,-1
 610 153 l 1,57,-1
610 0 m 1,61,-1
 610 123 l 1,62,-1
 460 123 l 1,63,-1
 460 150 l 1,64,-1
 662 424 l 1,65,-1
 724 424 l 1,66,-1
 724 153 l 1,67,-1
 764 153 l 1,68,-1
 764 200 l 1,69,-1
 788 200 l 1,70,-1
 788 72 l 1,71,-1
 764 72 l 1,72,-1
 764 123 l 1,73,-1
 724 123 l 1,74,-1
 724 0 l 1,75,-1
 610 0 l 1,61,-1
159 -28 m 1,76,-1
 602 722 l 1,77,-1
 658 722 l 1,78,-1
 215 -28 l 1,79,-1
 159 -28 l 1,76,-1
EndSplineSet
EndChar

StartChar: onequarter
Encoding: 122 188 154
Width: 834
Flags: W
TeX: 715 21
HStem: 0 21G<610 724> 123 30<490 610 724 764> 282 24<58 114 228 280> 702 20G<590.187 658>
VStem: 114 114<306 610> 610 114<0 123 153 310> 764 24<72 123 153 200>
LayerCount: 2
Fore
SplineSet
610 153 m 1,0,-1
 610 310 l 1,1,-1
 608 310 l 1,2,-1
 490 153 l 1,3,-1
 610 153 l 1,0,-1
610 0 m 1,4,-1
 610 123 l 1,5,-1
 460 123 l 1,6,-1
 460 150 l 1,7,-1
 662 424 l 1,8,-1
 724 424 l 1,9,-1
 724 153 l 1,10,-1
 764 153 l 1,11,-1
 764 200 l 1,12,-1
 788 200 l 1,13,-1
 788 72 l 1,14,-1
 764 72 l 1,15,-1
 764 123 l 1,16,-1
 724 123 l 1,17,-1
 724 0 l 1,18,-1
 610 0 l 1,4,-1
159 -28 m 1,19,-1
 602 722 l 1,20,-1
 658 722 l 1,21,-1
 215 -28 l 1,22,-1
 159 -28 l 1,19,-1
58 282 m 1,23,-1
 58 306 l 1,24,-1
 114 306 l 1,25,-1
 114 610 l 1,26,27
 91 590 91 590 56 568 c 1,28,-1
 46 589 l 1,29,30
 150 661 150 661 181 706 c 1,31,-1
 228 706 l 1,32,-1
 228 306 l 1,33,-1
 280 306 l 1,34,-1
 280 282 l 1,35,-1
 58 282 l 1,23,-1
EndSplineSet
EndChar

StartChar: one.superior
Encoding: 119 185 155
Width: 383
Flags: W
TeX: 706 -282
HStem: 441 23<82 148 261 323>
VStem: 148 113<464 815>
LayerCount: 2
Fore
SplineSet
82 441 m 1,0,-1
 82 464 l 1,1,-1
 148 464 l 1,2,-1
 148 815 l 1,3,4
 127 795 127 795 89 768 c 1,5,-1
 78 785 l 1,6,7
 116 812 116 812 161 851.5 c 128,-1,8
 206 891 206 891 226 915 c 1,9,-1
 261 915 l 1,10,-1
 261 464 l 1,11,-1
 323 464 l 1,12,-1
 323 441 l 1,13,-1
 82 441 l 1,0,-1
EndSplineSet
EndChar

StartChar: multiply
Encoding: 149 215 156
Width: 600
Flags: W
TeX: 479 -23
LayerCount: 2
Fore
SplineSet
228 253 m 1,0,-1
 66 415 l 1,1,-1
 138 487 l 1,2,-1
 300 325 l 1,3,-1
 462 487 l 1,4,-1
 534 415 l 1,5,-1
 371 253 l 1,6,-1
 534 91 l 1,7,-1
 462 19 l 1,8,-1
 300 182 l 1,9,-1
 138 19 l 1,10,-1
 66 91 l 1,11,-1
 228 253 l 1,0,-1
EndSplineSet
EndChar

StartChar: registered
Encoding: 108 174 157
Width: 490
Flags: W
TeX: 730 -358
HStem: 358 10<203.509 286.491> 446 4<317.5 342.272> 448 4<162 193 220 251> 551 4<220 257.41> 640 4<162 193 220 257.688> 720 10<203.509 286.491>
VStem: 59 10<502.509 585.491> 193 27<452 551 555 640> 279 31<568.435 630.761> 421 10<502.509 586.362>
LayerCount: 2
Fore
SplineSet
59 544 m 128,-1,1
 59 621 59 621 113.5 675.5 c 128,-1,2
 168 730 168 730 245 730 c 128,-1,3
 322 730 322 730 376.5 675 c 128,-1,4
 431 620 431 620 431 544 c 0,5,6
 431 467 431 467 376.5 412.5 c 128,-1,7
 322 358 322 358 245 358 c 128,-1,8
 168 358 168 358 113.5 412.5 c 128,-1,0
 59 467 59 467 59 544 c 128,-1,1
193 452 m 1,9,-1
 193 640 l 1,10,-1
 162 640 l 1,11,-1
 162 644 l 1,12,-1
 214 644 l 2,13,14
 218 644 218 644 227 644.5 c 128,-1,15
 236 645 236 645 241 645 c 0,16,17
 277 645 277 645 292 633 c 0,18,19
 310 619 310 619 310 598 c 0,20,21
 310 591 310 591 307 583.5 c 128,-1,22
 304 576 304 576 292.5 566.5 c 128,-1,23
 281 557 281 557 262 555 c 1,24,-1
 262 554 l 1,25,26
 306 546 306 546 313 522 c 0,27,28
 315 514 315 514 316.5 494.5 c 128,-1,29
 318 475 318 475 319 469 c 0,30,31
 323 450 323 450 335 450 c 0,32,33
 344 450 344 450 350 456 c 1,34,-1
 352 453 l 1,35,36
 343 446 343 446 328 446 c 0,37,38
 307 446 307 446 299 456 c 128,-1,39
 291 466 291 466 289 488 c 2,40,-1
 287 514 l 2,41,42
 284 551 284 551 248 551 c 2,43,-1
 220 551 l 1,44,-1
 220 452 l 1,45,-1
 251 452 l 1,46,-1
 251 448 l 1,47,-1
 162 448 l 1,48,-1
 162 452 l 1,49,-1
 193 452 l 1,9,-1
220 640 m 1,50,-1
 220 555 l 1,51,-1
 245 555 l 2,52,53
 279 555 279 555 279 598 c 0,54,55
 279 624 279 624 268 632.5 c 128,-1,56
 257 641 257 641 238 641 c 0,57,58
 224 641 224 641 220 640 c 1,50,-1
69 544 m 128,-1,60
 69 471 69 471 120.5 419.5 c 128,-1,61
 172 368 172 368 245 368 c 128,-1,62
 318 368 318 368 369.5 419.5 c 128,-1,63
 421 471 421 471 421 544 c 128,-1,64
 421 617 421 617 369.5 668.5 c 128,-1,65
 318 720 318 720 245 720 c 128,-1,66
 172 720 172 720 120.5 668.5 c 128,-1,59
 69 617 69 617 69 544 c 128,-1,60
EndSplineSet
EndChar

StartChar: Thorn
Encoding: 156 222 158
Width: 722
Flags: W
TeX: 715 0
HStem: 0 30<30 126 282 378> 208 30<282 453.492> 570 30<282 453.492> 685 30<30 126 282 378>
VStem: 126 156<30 208 238 570 600 685> 516 176<310.346 503.167>
LayerCount: 2
Fore
SplineSet
282 570 m 1,0,-1
 282 238 l 1,1,-1
 369 238 l 2,2,3
 453 238 453 238 484.5 275 c 128,-1,4
 516 312 516 312 516 404 c 128,-1,5
 516 496 516 496 484.5 533 c 128,-1,6
 453 570 453 570 369 570 c 2,7,-1
 282 570 l 1,0,-1
30 0 m 1,8,-1
 30 30 l 1,9,-1
 126 30 l 1,10,-1
 126 685 l 1,11,-1
 30 685 l 1,12,-1
 30 715 l 1,13,-1
 378 715 l 1,14,-1
 378 685 l 1,15,-1
 282 685 l 1,16,-1
 282 600 l 1,17,-1
 423 600 l 2,18,19
 451 600 451 600 466.5 599.5 c 128,-1,20
 482 599 482 599 514 595.5 c 128,-1,21
 546 592 546 592 566.5 585 c 128,-1,22
 587 578 587 578 613 563.5 c 128,-1,23
 639 549 639 549 654.5 529 c 128,-1,24
 670 509 670 509 681 477 c 128,-1,25
 692 445 692 445 692 404 c 0,26,27
 692 354 692 354 674 317 c 128,-1,28
 656 280 656 280 629 259.5 c 128,-1,29
 602 239 602 239 561.5 227 c 128,-1,30
 521 215 521 215 484.5 211.5 c 128,-1,31
 448 208 448 208 402 208 c 2,32,-1
 282 208 l 1,33,-1
 282 30 l 1,34,-1
 378 30 l 1,35,-1
 378 0 l 1,36,-1
 30 0 l 1,8,-1
EndSplineSet
Substitution2: "sous-table 'c2sc' Capitales vers petites capitales dans Latin lookup 0" thorn.sc
EndChar

StartChar: brokenbar
Encoding: 100 166 159
Width: 222
Flags: W
TeX: 661 89
VStem: 59 104<-89 161 411 661>
LayerCount: 2
Fore
SplineSet
59 -89 m 1,0,-1
 59 161 l 1,1,-1
 163 161 l 1,2,-1
 163 -89 l 1,3,-1
 59 -89 l 1,0,-1
59 411 m 1,4,-1
 59 661 l 1,5,-1
 163 661 l 1,6,-1
 163 411 l 1,7,-1
 59 411 l 1,4,-1
EndSplineSet
EndChar

StartChar: Eth
Encoding: 142 208 160
Width: 870
Flags: W
TeX: 715 0
HStem: 0 30<30 126 282 482.836> 348 42<30 126 282 442> 685 30<30 126 282 490.192>
VStem: 126 156<30 348 390 685> 634 176<203.264 510.343>
LayerCount: 2
Fore
SplineSet
30 0 m 1,0,-1
 30 30 l 1,1,-1
 126 30 l 1,2,-1
 126 348 l 1,3,-1
 30 348 l 1,4,-1
 30 390 l 1,5,-1
 126 390 l 1,6,-1
 126 685 l 1,7,-1
 30 685 l 1,8,-1
 30 715 l 1,9,-1
 417 715 l 2,10,11
 606 715 606 715 708 632.5 c 128,-1,12
 810 550 810 550 810 357 c 0,13,14
 810 258 810 258 782.5 187.5 c 128,-1,15
 755 117 755 117 701.5 76.5 c 128,-1,16
 648 36 648 36 578.5 18 c 128,-1,17
 509 0 509 0 417 0 c 2,18,-1
 30 0 l 1,0,-1
282 348 m 1,19,-1
 282 30 l 1,20,-1
 339 30 l 2,21,22
 377 30 377 30 401.5 31.5 c 128,-1,23
 426 33 426 33 460 39.5 c 128,-1,24
 494 46 494 46 516 58.5 c 128,-1,25
 538 71 538 71 562.5 95 c 128,-1,26
 587 119 587 119 601 153.5 c 128,-1,27
 615 188 615 188 624.5 239.5 c 128,-1,28
 634 291 634 291 634 357 c 128,-1,29
 634 423 634 423 625 475 c 128,-1,30
 616 527 616 527 602 561 c 128,-1,31
 588 595 588 595 565.5 619.5 c 128,-1,32
 543 644 543 644 523 656.5 c 128,-1,33
 503 669 503 669 474 675.5 c 128,-1,34
 445 682 445 682 425.5 683.5 c 128,-1,35
 406 685 406 685 377 685 c 2,36,-1
 282 685 l 1,37,-1
 282 390 l 1,38,-1
 442 390 l 1,39,-1
 442 348 l 1,40,-1
 282 348 l 1,19,-1
EndSplineSet
Substitution2: "sous-table 'c2sc' Capitales vers petites capitales dans Latin lookup 0" eth.sc
EndChar

StartChar: onehalf
Encoding: 123 189 161
Width: 834
Flags: W
TeX: 715 21
HStem: -0.200195 77.4004<549.9 740.7> 248.2 81.8994<522.077 560.419> 282 24<58 114 228 280> 389.5 34.2002<555.385 660.43> 702 20G<577.187 645>
VStem: 114 114<306 610> 498.6 95.4004<261.661 328.991> 693 97.2002<249.163 361.599>
LayerCount: 2
Fore
SplineSet
522 344.5 m 1,0,1
 522.900390625 330.099609375 522.900390625 330.099609375 527.400390625 330.099609375 c 0,2,3
 528.299804688 331.900390625 528.299804688 331.900390625 543.599609375 340.900390625 c 0,4,5
 551.700195312 344.5 551.700195312 344.5 560.700195312 345.400390625 c 0,6,7
 594 345.400390625 594 345.400390625 594 299.5 c 0,8,9
 594 274.299804688 594 274.299804688 582.299804688 261.25 c 128,-1,10
 570.599609375 248.200195312 570.599609375 248.200195312 551.700195312 248.200195312 c 0,11,12
 524.700195312 248.200195312 524.700195312 248.200195312 511.200195312 268.900390625 c 0,13,14
 492.299804688 291.400390625 492.299804688 291.400390625 498.599609375 320.200195312 c 0,15,16
 501.299804688 377.799804688 501.299804688 377.799804688 543.599609375 401.200195312 c 0,17,18
 585 423.700195312 585 423.700195312 652.5 423.700195312 c 0,19,20
 713.700195312 423.700195312 713.700195312 423.700195312 751.950195312 392.650390625 c 128,-1,21
 790.200195312 361.599609375 790.200195312 361.599609375 790.200195312 310.299804688 c 0,22,23
 790.200195312 275.200195312 790.200195312 275.200195312 762.299804688 241 c 128,-1,24
 734.400390625 206.799804688 734.400390625 206.799804688 693 180.700195312 c 0,25,26
 589.5 115 589.5 115 549.900390625 77.2001953125 c 1,27,-1
 691.200195312 77.2001953125 l 2,28,29
 729 77.2001953125 729 77.2001953125 751.049804688 92.0498046875 c 128,-1,30
 773.099609375 106.900390625 773.099609375 106.900390625 782.099609375 127.599609375 c 1,31,-1
 798.299804688 123.099609375 l 1,32,-1
 740.700195312 -0.2001953125 l 1,33,-1
 474.299804688 -0.2001953125 l 1,34,-1
 472.5 19.599609375 l 1,35,-1
 568.799804688 102.400390625 l 2,36,37
 595.799804688 125.799804688 595.799804688 125.799804688 612 142.900390625 c 0,38,39
 628.200195312 158.200195312 628.200195312 158.200195312 649.799804688 183.849609375 c 128,-1,40
 671.400390625 209.5 671.400390625 209.5 682.200195312 235.599609375 c 128,-1,41
 693 261.700195312 693 261.700195312 693 289.599609375 c 0,42,43
 693 331.900390625 693 331.900390625 671.849609375 360.700195312 c 128,-1,44
 650.700195312 389.5 650.700195312 389.5 608.849609375 389.5 c 128,-1,45
 567 389.5 567 389.5 545.400390625 378.700195312 c 0,46,47
 524.700195312 367.900390625 524.700195312 367.900390625 522 344.5 c 1,0,1
146 -28 m 1,48,-1
 589 722 l 1,49,-1
 645 722 l 1,50,-1
 202 -28 l 1,51,-1
 146 -28 l 1,48,-1
58 282 m 1,52,-1
 58 306 l 1,53,-1
 114 306 l 1,54,-1
 114 610 l 1,55,56
 91 590 91 590 56 568 c 1,57,-1
 46 589 l 1,58,59
 150 661 150 661 181 706 c 1,60,-1
 228 706 l 1,61,-1
 228 306 l 1,62,-1
 280 306 l 1,63,-1
 280 282 l 1,64,-1
 58 282 l 1,52,-1
EndSplineSet
EndChar

StartChar: minus
Encoding: 226 8722 162
Width: 600
Flags: W
TeX: 284 -218
HStem: 201 104<47 553>
LayerCount: 2
Fore
SplineSet
47 201 m 1,0,-1
 47 305 l 1,1,-1
 553 305 l 1,2,-1
 553 201 l 1,3,-1
 47 201 l 1,0,-1
EndSplineSet
EndChar

StartChar: ccedilla
Encoding: 165 231 163
Width: 556
Flags: W
TeX: 502 220
HStem: -220 42<207.264 326.358> -10 40<261.697 285> 472 30<249.621 347.829>
VStem: 45 156<130.357 355.687> 331 96<-172.148 -109.392> 366 132<338.146 442.862>
LayerCount: 2
Fore
SplineSet
198 -202 m 1,0,-1
 214 -165 l 1,1,2
 248 -178 248 -178 278 -178 c 0,3,4
 331 -178 331 -178 331 -138 c 0,5,6
 331 -121 331 -121 317.5 -111.5 c 128,-1,7
 304 -102 304 -102 287 -102 c 128,-1,8
 270 -102 270 -102 257 -106 c 1,9,-1
 246 -98 l 1,10,-1
 285 -10 l 1,11,12
 176 -5 176 -5 110.5 64 c 128,-1,13
 45 133 45 133 45 245 c 128,-1,14
 45 357 45 357 118 429.5 c 128,-1,15
 191 502 191 502 305 502 c 0,16,17
 339 502 339 502 369 497 c 128,-1,18
 399 492 399 492 430 479 c 128,-1,19
 461 466 461 466 479.5 439 c 128,-1,20
 498 412 498 412 498 373 c 0,21,22
 498 317 498 317 439 317 c 0,23,24
 398 317 398 317 382 337.5 c 128,-1,25
 366 358 366 358 366 401 c 0,26,27
 366 472 366 472 305 472 c 0,28,29
 280 472 280 472 261.5 464.5 c 128,-1,30
 243 457 243 457 232 438.5 c 128,-1,31
 221 420 221 420 214 403.5 c 128,-1,32
 207 387 207 387 204.5 355 c 128,-1,33
 202 323 202 323 201.5 303.5 c 128,-1,34
 201 284 201 284 201 245 c 0,35,36
 201 218 201 218 202.5 196.5 c 128,-1,37
 204 175 204 175 208 148.5 c 128,-1,38
 212 122 212 122 221.5 102.5 c 128,-1,39
 231 83 231 83 245 65.5 c 128,-1,40
 259 48 259 48 281.5 39 c 128,-1,41
 304 30 304 30 334 30 c 0,42,43
 439 30 439 30 488 160 c 1,44,-1
 515 148 l 1,45,46
 466 0 466 0 327 -10 c 1,47,-1
 303 -65 l 1,48,49
 320 -60 320 -60 341 -60 c 0,50,51
 378 -60 378 -60 402.5 -76.5 c 128,-1,52
 427 -93 427 -93 427 -130 c 0,53,54
 427 -220 427 -220 285 -220 c 0,55,56
 245 -220 245 -220 198 -202 c 1,0,-1
EndSplineSet
Substitution2: "sous-table 'smcp' Bas-de-casse vers petites capitales dans Latin lookup 0" ccedilla.sc
EndChar

StartChar: eth
Encoding: 174 240 164
Width: 610
Flags: W
TeX: 774 12
HStem: -12 30<252.371 358.178> 460 30<252.373 358.933> 706 30<116.933 140.651>
VStem: 45 156<129.547 352.744> 406.5 158.5<149.715 418.444>
LayerCount: 2
Fore
SplineSet
97 573 m 1,0,-1
 235 644 l 1,1,2
 164 688 164 688 97 706 c 1,3,-1
 123 736 l 1,4,5
 238 710 238 710 301 677 c 1,6,-1
 431 744 l 1,7,-1
 469 712 l 1,8,-1
 351 652 l 1,9,10
 455 595 455 595 510 498.5 c 128,-1,11
 565 402 565 402 565 296 c 0,12,13
 565 146 565 146 498 67 c 128,-1,14
 431 -12 431 -12 305 -12 c 0,15,16
 182 -12 182 -12 113.5 59 c 128,-1,17
 45 130 45 130 45 245 c 0,18,19
 43 347 43 347 111 418.5 c 128,-1,20
 179 490 179 490 291 490 c 0,21,22
 357 490 357 490 389 452 c 1,23,-1
 391 452 l 1,24,25
 377 501 377 501 346 543.5 c 128,-1,26
 315 586 315 586 276 613 c 1,27,-1
 134 541 l 1,28,-1
 97 573 l 1,0,-1
201 239 m 128,-1,30
 201 207 201 207 201.5 190.5 c 128,-1,31
 202 174 202 174 203.5 146 c 128,-1,32
 205 118 205 118 209 103.5 c 128,-1,33
 213 89 213 89 220.5 70 c 128,-1,34
 228 51 228 51 239 41.5 c 128,-1,35
 250 32 250 32 266.5 25 c 128,-1,36
 283 18 283 18 305 18 c 128,-1,37
 327 18 327 18 343.5 25 c 128,-1,38
 360 32 360 32 371 41.5 c 128,-1,39
 382 51 382 51 389.5 70 c 128,-1,40
 397 89 397 89 401 103.5 c 128,-1,41
 405 118 405 118 406.5 146 c 128,-1,42
 408 174 408 174 408.5 190.5 c 128,-1,43
 409 207 409 207 409 239 c 128,-1,44
 409 271 409 271 408.5 287.5 c 128,-1,45
 408 304 408 304 406.5 332 c 128,-1,46
 405 360 405 360 401 374.5 c 128,-1,47
 397 389 397 389 389.5 408 c 128,-1,48
 382 427 382 427 371 436.5 c 128,-1,49
 360 446 360 446 343.5 453 c 128,-1,50
 327 460 327 460 305 460 c 128,-1,51
 283 460 283 460 266.5 453 c 128,-1,52
 250 446 250 446 239 436.5 c 128,-1,53
 228 427 228 427 220.5 408 c 128,-1,54
 213 389 213 389 209 374.5 c 128,-1,55
 205 360 205 360 203.5 332 c 128,-1,56
 202 304 202 304 201.5 287.5 c 128,-1,29
 201 271 201 271 201 239 c 128,-1,30
EndSplineSet
Substitution2: "sous-table 'smcp' Bas-de-casse vers petites capitales dans Latin lookup 0" eth.sc
EndChar

StartChar: plusminus
Encoding: 111 177 165
Width: 600
Flags: W
TeX: 502 0
HStem: 0 104<47 553> 272 104<47 248 352 553>
VStem: 248 104<141 272 376 506>
LayerCount: 2
Fore
SplineSet
248 376 m 1,0,-1
 248 506 l 1,1,-1
 352 506 l 1,2,-1
 352 376 l 1,3,-1
 553 376 l 1,4,-1
 553 272 l 1,5,-1
 352 272 l 1,6,-1
 352 141 l 1,7,-1
 248 141 l 1,8,-1
 248 272 l 1,9,-1
 47 272 l 1,10,-1
 47 376 l 1,11,-1
 248 376 l 1,0,-1
47 0 m 1,12,-1
 47 104 l 1,13,-1
 553 104 l 1,14,-1
 553 0 l 1,15,-1
 47 0 l 1,12,-1
EndSplineSet
EndChar

StartChar: Ccedilla
Encoding: 133 199 166
Width: 758
Flags: W
TeX: 727 220
HStem: -220 42<344.264 463.358> -11 29<361.803 421 464 513.48> 697 30<367.577 519.074>
VStem: 60 168<220.634 490.091> 468 96<-172.148 -109.392> 671 30<174.469 248 466 535.547>
LayerCount: 2
Fore
SplineSet
335 -202 m 1,0,-1
 351 -165 l 1,1,2
 385 -178 385 -178 415 -178 c 0,3,4
 468 -178 468 -178 468 -138 c 0,5,6
 468 -121 468 -121 454.5 -111.5 c 128,-1,7
 441 -102 441 -102 424 -102 c 128,-1,8
 407 -102 407 -102 394 -106 c 1,9,-1
 383 -98 l 1,10,-1
 421 -11 l 1,11,12
 257 -7 257 -7 158.5 95.5 c 128,-1,13
 60 198 60 198 60 358 c 0,14,15
 60 521 60 521 162.5 624 c 128,-1,16
 265 727 265 727 435 727 c 0,17,18
 550 727 550 727 701 669 c 1,19,-1
 701 466 l 1,20,-1
 671 466 l 1,21,22
 664 560 664 560 598 628.5 c 128,-1,23
 532 697 532 697 446 697 c 0,24,25
 228 697 228 697 228 358 c 0,26,27
 228 325 228 325 229 299 c 128,-1,28
 230 273 230 273 235 236 c 128,-1,29
 240 199 240 199 248.5 171 c 128,-1,30
 257 143 257 143 272.5 113 c 128,-1,31
 288 83 288 83 310 63 c 128,-1,32
 332 43 332 43 365 30.5 c 128,-1,33
 398 18 398 18 439 18 c 0,34,35
 526 18 526 18 596 87 c 128,-1,36
 666 156 666 156 676 248 c 1,37,-1
 706 248 l 1,38,-1
 706 46 l 1,39,40
 586 -4 586 -4 464 -10 c 1,41,-1
 440 -65 l 1,42,43
 457 -60 457 -60 478 -60 c 0,44,45
 515 -60 515 -60 539.5 -76.5 c 128,-1,46
 564 -93 564 -93 564 -130 c 0,47,48
 564 -220 564 -220 422 -220 c 0,49,50
 382 -220 382 -220 335 -202 c 1,0,-1
EndSplineSet
Substitution2: "sous-table 'c2sc' Capitales vers petites capitales dans Latin lookup 0" ccedilla.sc
EndChar

StartChar: thorn
Encoding: 188 254 167
Width: 648
Flags: W
TeX: 715 220
HStem: -220 30<18 90 234 306> -12 36<291.348 405.054> 466 36<296.139 405.054> 685 30<18 89.7422>
VStem: 90 144<-190 53 77.6877 397.875 421 685> 447 156<128.56 361.44>
LayerCount: 2
Fore
SplineSet
18 -220 m 1,0,-1
 18 -190 l 1,1,-1
 90 -190 l 1,2,-1
 90 685 l 1,3,-1
 18 685 l 1,4,-1
 18 715 l 1,5,-1
 80 715 l 2,6,7
 158 715 158 715 234 721 c 1,8,-1
 234 421 l 1,9,-1
 236 421 l 1,10,11
 276 502 276 502 379 502 c 0,12,13
 484 502 484 502 543.5 427.5 c 128,-1,14
 603 353 603 353 603 245 c 128,-1,15
 603 137 603 137 543.5 62.5 c 128,-1,16
 484 -12 484 -12 379 -12 c 0,17,18
 281 -12 281 -12 236 53 c 1,19,-1
 234 53 l 1,20,-1
 234 -190 l 1,21,-1
 306 -190 l 1,22,-1
 306 -220 l 1,23,-1
 18 -220 l 1,0,-1
447 245 m 128,-1,25
 447 284 447 284 446.5 303 c 128,-1,26
 446 322 446 322 443.5 353 c 128,-1,27
 441 384 441 384 434.5 400 c 128,-1,28
 428 416 428 416 417.5 433.5 c 128,-1,29
 407 451 407 451 389 458.5 c 128,-1,30
 371 466 371 466 347 466 c 0,31,32
 327 466 327 466 309 457 c 128,-1,33
 291 448 291 448 272.5 426 c 128,-1,34
 254 404 254 404 242.5 357.5 c 128,-1,35
 231 311 231 311 231 245 c 0,36,37
 231 190 231 190 237 149.5 c 128,-1,38
 243 109 243 109 252.5 85.5 c 128,-1,39
 262 62 262 62 277.5 47.5 c 128,-1,40
 293 33 293 33 309 28.5 c 128,-1,41
 325 24 325 24 347 24 c 0,42,43
 371 24 371 24 389 31.5 c 128,-1,44
 407 39 407 39 417.5 56.5 c 128,-1,45
 428 74 428 74 434.5 90 c 128,-1,46
 441 106 441 106 443.5 137 c 128,-1,47
 446 168 446 168 446.5 187 c 128,-1,24
 447 206 447 206 447 245 c 128,-1,25
EndSplineSet
Substitution2: "sous-table 'smcp' Bas-de-casse vers petites capitales dans Latin lookup 0" thorn.sc
EndChar

StartChar: copyright
Encoding: 103 169 168
Width: 800
Flags: W
TeX: 730 14
HStem: -12 78<287.23 515.755> 148 24<380.23 479.736> 543 24<380.24 482.739> 649 78<287.23 512.707>
VStem: 31 84<240.003 474.703> 194 120<255.979 450.769> 535 24<454 486.484> 685 84<239.687 474.387>
LayerCount: 2
Fore
SplineSet
115 357 m 0,0,1
 115 233 115 233 195.5 149.5 c 128,-1,2
 276 66 276 66 401 66 c 128,-1,3
 526 66 526 66 605.5 149 c 128,-1,4
 685 232 685 232 685 357 c 0,5,6
 685 481 685 481 604 565 c 128,-1,7
 523 649 523 649 401 649 c 0,8,9
 276 649 276 649 195.5 565.5 c 128,-1,10
 115 482 115 482 115 357 c 0,0,1
577 270 m 1,11,-1
 558 181 l 1,12,13
 499 148 499 148 420 148 c 0,14,15
 315 148 315 148 254.5 203 c 128,-1,16
 194 258 194 258 194 361 c 0,17,18
 194 396 194 396 207 431 c 128,-1,19
 220 466 220 466 245.5 497 c 128,-1,20
 271 528 271 528 316 547.5 c 128,-1,21
 361 567 361 567 418 567 c 0,22,23
 514 567 514 567 559 532 c 1,24,-1
 559 454 l 1,25,-1
 535 454 l 1,26,27
 514 543 514 543 431 543 c 0,28,29
 373 543 373 543 344 496.5 c 128,-1,30
 315 450 315 450 314 367 c 0,31,32
 312 172 312 172 430 172 c 0,33,34
 471 172 471 172 502.5 198.5 c 128,-1,35
 534 225 534 225 551 270 c 1,36,-1
 577 270 l 1,11,-1
31 357 m 0,37,38
 31 511 31 511 139 619 c 128,-1,39
 247 727 247 727 400 727 c 128,-1,40
 553 727 553 727 661 619 c 128,-1,41
 769 511 769 511 769 357 c 0,42,43
 769 204 769 204 661 96 c 128,-1,44
 553 -12 553 -12 400 -12 c 128,-1,45
 247 -12 247 -12 139 96 c 128,-1,46
 31 204 31 204 31 357 c 0,37,38
EndSplineSet
EndChar

StartChar: logicalnot
Encoding: 106 172 169
Width: 600
Flags: W
TeX: 384 -106
HStem: 305 104<47 449>
VStem: 449 104<108 305>
LayerCount: 2
Fore
SplineSet
449 108 m 1,0,-1
 449 305 l 1,1,-1
 47 305 l 1,2,-1
 47 409 l 1,3,-1
 553 409 l 1,4,-1
 553 108 l 1,5,-1
 449 108 l 1,0,-1
EndSplineSet
EndChar

StartChar: two.superior
Encoding: 112 178 170
Width: 401
Flags: W
TeX: 706 -282
HStem: 441 86<94 306> 717 91<63.085 105.688> 874 38<100.095 216.811>
VStem: 37 106<731.956 806.768> 253 108<721.706 838.883>
LayerCount: 2
Fore
SplineSet
63 824 m 5,0,1
 64 808 64 808 69 808 c 0,2,3
 70 810 70 810 87 820 c 0,4,5
 96 824 96 824 106 825 c 0,6,7
 143 825 143 825 143 774 c 0,8,9
 143 746 143 746 130 731.5 c 128,-1,10
 117 717 117 717 96 717 c 0,11,12
 66 717 66 717 51 740 c 0,13,14
 30 765 30 765 37 797 c 0,15,16
 40 861 40 861 87 887 c 0,17,18
 133 912 133 912 208 912 c 0,19,20
 276 912 276 912 318.5 877.5 c 128,-1,21
 361 843 361 843 361 786 c 0,22,23
 361 747 361 747 330 709 c 128,-1,24
 299 671 299 671 253 642 c 0,25,26
 138 569 138 569 94 527 c 1,27,-1
 251 527 l 2,28,29
 293 527 293 527 317.5 543.5 c 128,-1,30
 342 560 342 560 352 583 c 1,31,-1
 370 578 l 1,32,-1
 306 441 l 1,33,-1
 10 441 l 1,34,-1
 8 463 l 1,35,-1
 115 555 l 2,36,37
 145 581 145 581 163 600 c 0,38,39
 181 617 181 617 205 645.5 c 128,-1,40
 229 674 229 674 241 703 c 128,-1,41
 253 732 253 732 253 763 c 0,42,43
 253 810 253 810 229.5 842 c 128,-1,44
 206 874 206 874 159.5 874 c 128,-1,45
 113 874 113 874 89 862 c 0,46,47
 66 850 66 850 63 824 c 5,0,1
EndSplineSet
EndChar

StartChar: three.superior
Encoding: 113 179 171
Width: 420
Flags: W
TeX: 700 -276
HStem: 433 23<106.908 222.504> 675 23<104 198.969> 885 23<128.778 220.158>
VStem: 17 74<474.039 530.5> 50 70<811.118 870.693> 245 111<752.739 858.475> 273 120<507.092 627.831>
LayerCount: 2
Fore
SplineSet
223 693 m 1,0,1
 299 686 299 686 346 651.5 c 128,-1,2
 393 617 393 617 393 569 c 0,3,4
 393 514 393 514 335.5 473.5 c 128,-1,5
 278 433 278 433 181 433 c 0,6,7
 108 433 108 433 62.5 457.5 c 128,-1,8
 17 482 17 482 17 520 c 0,9,10
 17 541 17 541 32 553.5 c 128,-1,11
 47 566 47 566 72 566 c 0,12,13
 95 566 95 566 110.5 555.5 c 128,-1,14
 126 545 126 545 126 529 c 0,15,16
 126 514 126 514 108.5 504 c 128,-1,17
 91 494 91 494 91 486 c 0,18,19
 91 471 91 471 117 463.5 c 128,-1,20
 143 456 143 456 171 456 c 0,21,22
 220 456 220 456 246.5 485 c 128,-1,23
 273 514 273 514 273 569 c 0,24,25
 273 622 273 622 246 648.5 c 128,-1,26
 219 675 219 675 158 675 c 2,27,-1
 104 675 l 1,28,-1
 104 698 l 1,29,-1
 144 698 l 2,30,31
 245 698 245 698 245 804 c 0,32,33
 245 849 245 849 228 867 c 128,-1,34
 211 885 211 885 177 885 c 0,35,36
 153 885 153 885 136.5 878 c 128,-1,37
 120 871 120 871 120 859 c 0,38,39
 120 853 120 853 130.5 843 c 128,-1,40
 141 833 141 833 141 821 c 0,41,42
 141 805 141 805 128.5 797 c 128,-1,43
 116 789 116 789 98 789 c 0,44,45
 78 789 78 789 64 800.5 c 128,-1,46
 50 812 50 812 50 829 c 0,47,48
 50 860 50 860 90.5 884 c 128,-1,49
 131 908 131 908 196 908 c 0,50,51
 268 908 268 908 312 877.5 c 128,-1,52
 356 847 356 847 356 805 c 0,53,54
 356 769 356 769 320.5 739.5 c 128,-1,55
 285 710 285 710 223 697 c 1,56,-1
 223 693 l 1,0,1
EndSplineSet
EndChar

StartChar: trademark
Encoding: 225 8482 172
Width: 1000
Flags: W
TeX: 715 -311
HStem: 313 24<96 141.258 260.742 305 446 487.566 539.784 580 774 817.774 937.773 983> 628 87<15 45.1758 355.789 386> 691 24<66.3977 149 253 334.268 426 465.448 939.319 985>
VStem: 15 24<628 661.223> 149 104<346.224 691> 362 24<628 661.223> 499 30<352.929 595> 825 104<346.739 596>
LayerCount: 2
Fore
SplineSet
96 313 m 1,0,-1
 96 337 l 1,1,2
 134 339 134 339 141.5 346 c 128,-1,3
 149 353 149 353 149 381 c 2,4,-1
 149 691 l 1,5,-1
 102 691 l 2,6,7
 52 691 52 691 39 628 c 1,8,-1
 15 628 l 1,9,-1
 15 715 l 1,10,-1
 386 715 l 1,11,-1
 386 628 l 1,12,-1
 362 628 l 1,13,14
 349 691 349 691 298 691 c 2,15,-1
 253 691 l 1,16,-1
 253 381 l 2,17,18
 253 353 253 353 260.5 346 c 128,-1,19
 268 339 268 339 305 337 c 1,20,-1
 305 313 l 1,21,-1
 96 313 l 1,0,-1
665 313 m 1,22,-1
 531 595 l 1,23,-1
 529 595 l 1,24,-1
 529 409 l 2,25,26
 529 366 529 366 537 352.5 c 128,-1,27
 545 339 545 339 580 337 c 1,28,-1
 580 313 l 1,29,-1
 446 313 l 1,30,-1
 446 337 l 1,31,32
 482 339 482 339 490.5 352.5 c 128,-1,33
 499 366 499 366 499 409 c 2,34,-1
 499 638 l 1,35,36
 473 691 473 691 426 691 c 1,37,-1
 426 715 l 1,38,-1
 577 715 l 1,39,-1
 711 440 l 1,40,-1
 856 715 l 1,41,-1
 985 715 l 1,42,-1
 985 691 l 1,43,44
 949 690 949 690 939 681 c 128,-1,45
 929 672 929 672 929 647 c 2,46,-1
 929 381 l 2,47,48
 929 354 929 354 937.5 346.5 c 128,-1,49
 946 339 946 339 983 337 c 1,50,-1
 983 313 l 1,51,-1
 774 313 l 1,52,-1
 774 337 l 1,53,54
 811 339 811 339 818 346 c 128,-1,55
 825 353 825 353 825 381 c 2,56,-1
 825 596 l 1,57,-1
 823 596 l 1,58,-1
 679 313 l 1,59,-1
 665 313 l 1,22,-1
EndSplineSet
EndChar

StartChar: degree
Encoding: 110 176 173
Width: 400
Flags: W
TeX: 706 -420
HStem: 420 54<142.041 257.959> 652 54<142.041 257.959>
VStem: 57 54<505.041 620.959> 289 54<505.041 620.959>
LayerCount: 2
Fore
SplineSet
57 563 m 128,-1,1
 57 622 57 622 99 664 c 128,-1,2
 141 706 141 706 200 706 c 128,-1,3
 259 706 259 706 301 664 c 128,-1,4
 343 622 343 622 343 563 c 128,-1,5
 343 504 343 504 301 462 c 128,-1,6
 259 420 259 420 200 420 c 128,-1,7
 141 420 141 420 99 462 c 128,-1,0
 57 504 57 504 57 563 c 128,-1,1
111 563 m 128,-1,9
 111 526 111 526 137 500 c 128,-1,10
 163 474 163 474 200 474 c 128,-1,11
 237 474 237 474 263 500 c 128,-1,12
 289 526 289 526 289 563 c 128,-1,13
 289 600 289 600 263 626 c 128,-1,14
 237 652 237 652 200 652 c 128,-1,15
 163 652 163 652 137 626 c 128,-1,8
 111 600 111 600 111 563 c 128,-1,9
EndSplineSet
EndChar

StartChar: mu
Encoding: 115 181 174
Width: 667
Flags: W
TeX: 490 220
HStem: -220 21G<120.5 158> -12 48<255.622 359.707> 0 30<572 644> 460 30<23 94.625 356 427.742>
VStem: 71 138<-196.79 2.86084> 95 144<52.5635 460> 428 144<30 70 90.7158 460>
LayerCount: 2
Fore
SplineSet
572 496 m 1,0,-1
 572 30 l 1,1,-1
 644 30 l 1,2,-1
 644 0 l 1,3,4
 495 -2 495 -2 428 -6 c 1,5,-1
 428 70 l 1,6,-1
 426 70 l 1,7,8
 401 30 401 30 358.5 9 c 128,-1,9
 316 -12 316 -12 267 -12 c 0,10,11
 215 -12 215 -12 193 6 c 1,12,13
 209 -95 209 -95 209 -126 c 0,14,15
 209 -175 209 -175 193 -197.5 c 128,-1,16
 177 -220 177 -220 139 -220 c 0,17,18
 102 -220 102 -220 86 -197.5 c 128,-1,19
 70 -175 70 -175 71 -126 c 0,20,21
 71 -122 71 -122 83 1 c 128,-1,22
 95 124 95 124 95 200 c 2,23,-1
 95 460 l 1,24,-1
 23 460 l 1,25,-1
 23 490 l 1,26,-1
 85 490 l 2,27,28
 162 490 162 490 239 496 c 1,29,-1
 239 123 l 2,30,31
 239 71 239 71 259.5 53.5 c 128,-1,32
 280 36 280 36 317 36 c 0,33,34
 367 36 367 36 397.5 77 c 128,-1,35
 428 118 428 118 428 196 c 2,36,-1
 428 460 l 1,37,-1
 356 460 l 1,38,-1
 356 490 l 1,39,-1
 418 490 l 2,40,41
 496 490 496 490 572 496 c 1,0,-1
EndSplineSet
EndChar

StartChar: uni00AD
Encoding: 107 173 231
Width: 370
Flags: W
TeX: 0 0
HStem: 185 66<92 278>
VStem: 92 186<185 251>
LayerCount: 2
Fore
SplineSet
92 185 m 1,0,-1
 92 251 l 1,1,-1
 278 251 l 1,2,-1
 278 185 l 1,3,-1
 92 185 l 1,0,-1
EndSplineSet
EndChar

StartChar: f_f
Encoding: 232 64256 232
Width: 704
GlyphClass: 3
Flags: W
HStem: 0 30<15 87 231 314 367 439 583 666> 460 30<15 87 231 314 367 439 583 666> 549 158.5<686.391 771.695> 661 30<243.045 304.336> 697 30<596.61 659.967>
VStem: 87 144<30 460 490 611.551> 324.519 101.882<532.343 636.779> 439 144<30 460 490 647.551> 675 126<561.25 678.203>
LayerCount: 2
Fore
SplineSet
15 0 m 5,0,-1
 15 30 l 5,1,-1
 87 30 l 5,2,-1
 87 460 l 5,3,-1
 15 460 l 5,4,-1
 15 490 l 5,5,-1
 87 490 l 5,6,-1
 87 515 l 6,7,8
 87 691 87 691 277 691 c 4,9,10
 298 691 298 691 321.78125 685.461914062 c 4,11,12
 346 680 346 680 372.28125 663.461914062 c 4,13,14
 399 647 399 647 412.5 627 c 132,-1,15
 426 607 426 607 426.400390625 581.5 c 4,16,17
 426 526 426 526 376.799804688 525.5 c 4,18,19
 321 526 321 526 324.518554688 564.745117188 c 4,20,21
 325 570 325 570 325.599609375 576.700195312 c 5,22,23
 327 584 327 584 326.526367188 589.977539062 c 4,24,25
 327 614 327 614 313.5 634 c 4,26,27
 305 648 305 648 294.995221408 654.767686479 c 132,-1,28
 284.990442815 661.535372958 284.990442815 661.535372958 270 661 c 4,29,30
 242 660 242 660 236.5 640.5 c 132,-1,31
 231 621 231 621 231 586 c 6,32,-1
 231 490 l 5,33,-1
 314 490 l 5,34,-1
 314 460 l 5,35,-1
 231 460 l 5,36,-1
 231 30 l 5,37,-1
 314 30 l 5,38,-1
 314 0 l 5,39,-1
 15 0 l 5,0,-1
367 0 m 5,40,-1
 367 30 l 5,41,-1
 439 30 l 5,42,-1
 439 460 l 5,43,-1
 367 460 l 5,44,-1
 367 490 l 5,45,-1
 439 490 l 5,46,-1
 439 551 l 6,47,48
 439 727 439 727 639 727 c 4,49,50
 660 727 660 727 684.5 722.5 c 132,-1,51
 709 718 709 718 737 707.5 c 132,-1,52
 765 697 765 697 783 674 c 132,-1,53
 801 651 801 651 801 619 c 4,54,55
 801 549 801 549 739 549 c 4,56,57
 675 549 675 549 675 613 c 4,58,59
 675 633 675 633 674 643.5 c 132,-1,60
 673 654 673 654 669.5 669 c 132,-1,61
 666 684 666 684 656.5 690.5 c 132,-1,62
 647 697 647 697 632 697 c 4,63,64
 602 697 602 697 592.5 677 c 132,-1,65
 583 657 583 657 583 622 c 6,66,-1
 583 490 l 5,67,-1
 666 490 l 5,68,-1
 666 460 l 5,69,-1
 583 460 l 5,70,-1
 583 30 l 5,71,-1
 666 30 l 5,72,-1
 666 0 l 5,73,-1
 367 0 l 5,40,-1
EndSplineSet
LCarets2: 1 0
Ligature2: "'liga' Ligatures standard dans Latin lookup 0" f f
EndChar

StartChar: f_f_i
Encoding: 233 64259 233
Width: 1000
GlyphClass: 3
Flags: W
HStem: 0 30<15 87 231 314 697 769 913 985> 460 30<15 87 231 314 697 768.625> 661 30<243.045 304.336>
VStem: 87 144<30 460 490 611.551> 324.519 101.882<532.343 636.779> 439 144<490 605.796> 729.101 128.617<590.551 682.056> 769 144<30 460>
LayerCount: 2
Fore
SplineSet
583 558 m 2,0,1
 583 624 583 624 609 663 c 0,2,3
 632 698 632 698 681.94140625 703.224609375 c 0,4,5
 731.864257812 707.987304688 731.864257812 707.987304688 729.615234375 641.736328125 c 2,6,-1
 729.100585938 626.576171875 l 2,7,8
 727 578 727 578 788.118164062 576.450195312 c 0,9,10
 812 576 812 576 834.91796875 589.650390625 c 0,11,12
 858 603 858 603 857.717773438 626.849609375 c 0,13,14
 858 670 858 670 818 698 c 0,15,16
 773 730 773 730 672.258789062 729.029296875 c 0,17,18
 669 729 669 729 666 729 c 0,19,20
 628 728 628 728 565.5 706 c 0,21,22
 442 664 442 664 439 490 c 0,23,-1
 455 490 l 0,24,-1
 583 490 l 0,25,-1
 583 558 l 2,0,1
439 490 m 16,26,-1
 367 490 l 1,27,-1
 367 460 l 1,28,-1
 439 460 l 1,29,-1
 439 30 l 1,30,-1
 367 30 l 1,31,-1
 367 0 l 1,32,-1
 666 0 l 1,33,-1
 666 30 l 1,34,-1
 583 30 l 1,35,-1
 583 460 l 1,36,-1
 666 460 l 1,37,-1
 666 490 l 1,38,-1
 583 490 l 1,39,-1
 439 490 l 16,26,-1
697 0 m 1,40,-1
 697 30 l 1,41,-1
 769 30 l 1,42,-1
 769 460 l 1,43,-1
 697 460 l 1,44,-1
 697 490 l 1,45,-1
 759 490 l 2,46,47
 836 490 836 490 913 496 c 1,48,-1
 913 30 l 1,49,-1
 985 30 l 1,50,-1
 985 0 l 1,51,-1
 697 0 l 1,40,-1
15 0 m 1,52,-1
 15 30 l 1,53,-1
 87 30 l 1,54,-1
 87 460 l 1,55,-1
 15 460 l 1,56,-1
 15 490 l 1,57,-1
 87 490 l 1,58,-1
 87 515 l 2,59,60
 87 691 87 691 277 691 c 0,61,62
 298 691 298 691 321.78125 685.461914062 c 0,63,64
 346 680 346 680 372.28125 663.461914062 c 0,65,66
 399 647 399 647 412.5 627 c 128,-1,67
 426 607 426 607 426.400390625 581.5 c 0,68,69
 426 526 426 526 376.799804688 525.5 c 0,70,71
 321 526 321 526 324.518554688 564.745117188 c 0,72,73
 325 570 325 570 325.599609375 576.700195312 c 1,74,75
 327 584 327 584 326.526367188 589.977539062 c 0,76,77
 327 614 327 614 313.5 634 c 0,78,79
 305 648 305 648 294.995221408 654.767686479 c 128,-1,80
 284.990442815 661.535372958 284.990442815 661.535372958 270 661 c 0,81,82
 242 660 242 660 236.5 640.5 c 128,-1,83
 231 621 231 621 231 586 c 2,84,-1
 231 490 l 1,85,-1
 314 490 l 1,86,-1
 314 460 l 1,87,-1
 231 460 l 1,88,-1
 231 30 l 1,89,-1
 314 30 l 1,90,-1
 314 0 l 1,91,-1
 15 0 l 1,52,-1
EndSplineSet
LCarets2: 2 0 0
Ligature2: "'liga' Ligatures standard dans Latin lookup 0" f f i
EndChar

StartChar: f_f_l
Encoding: 234 64260 234
Width: 1000
GlyphClass: 3
Flags: W
HStem: 0 30<15 87 231 314 367 439 583 666 688 769 913 985> 460 30<15 87 231 314 367 439 583 666> 661 30<243.045 304.336> 688 50<632.988 768.583>
VStem: 87 144<30 460 490 611.551> 324.519 101.882<532.343 636.779> 439 144<30 460 490 614.416> 769 144<30 682.23>
LayerCount: 2
Fore
SplineSet
439 490 m 1,0,1
 439 543 439 543 456 601.5 c 0,2,3
 476 672 476 672 569.5 708 c 0,4,5
 645 738 645 738 750.013671875 738 c 2,6,-1
 759 738 l 2,7,8
 836 738 836 738 913 744 c 1,9,-1
 913 30 l 1,10,-1
 985 30 l 1,11,-1
 985 0 l 1,12,-1
 962 0 l 1,13,-1
 688 0 l 1,14,-1
 688 30 l 1,15,-1
 769 30 l 1,16,-1
 769 667.555664062 l 1,17,18
 756 688 756 688 700 688 c 0,19,20
 646 688 646 688 605 643 c 0,21,22
 583 619 583 619 583 558 c 2,23,-1
 583 490 l 1,24,-1
 666 490 l 1,25,-1
 666 460 l 1,26,-1
 583 460 l 1,27,-1
 583 30 l 1,28,-1
 666 30 l 1,29,-1
 666 0 l 1,30,-1
 367 0 l 1,31,-1
 367 30 l 1,32,-1
 439 30 l 1,33,-1
 439 460 l 1,34,-1
 367 460 l 1,35,-1
 367 490 l 1,36,-1
 439 490 l 1,0,1
15 0 m 1,37,-1
 15 30 l 1,38,-1
 87 30 l 1,39,-1
 87 460 l 1,40,-1
 15 460 l 1,41,-1
 15 490 l 1,42,-1
 87 490 l 1,43,-1
 87 515 l 2,44,45
 87 691 87 691 277 691 c 0,46,47
 298 691 298 691 321.78125 685.461914062 c 0,48,49
 346 680 346 680 372.28125 663.461914062 c 0,50,51
 399 647 399 647 412.5 627 c 128,-1,52
 426 607 426 607 426.400390625 581.5 c 0,53,54
 426 526 426 526 376.799804688 525.5 c 0,55,56
 321 526 321 526 324.518554688 564.745117188 c 0,57,58
 325 570 325 570 325.599609375 576.700195312 c 1,59,60
 327 584 327 584 326.526367188 589.977539062 c 0,61,62
 327 614 327 614 313.5 634 c 0,63,64
 305 648 305 648 294.995221408 654.767686479 c 128,-1,65
 284.990442815 661.535372958 284.990442815 661.535372958 270 661 c 0,66,67
 242 660 242 660 236.5 640.5 c 128,-1,68
 231 621 231 621 231 586 c 2,69,-1
 231 490 l 1,70,-1
 314 490 l 1,71,-1
 314 460 l 1,72,-1
 231 460 l 1,73,-1
 231 30 l 1,74,-1
 314 30 l 1,75,-1
 314 0 l 1,76,-1
 15 0 l 1,37,-1
EndSplineSet
LCarets2: 2 0 0
Ligature2: "'liga' Ligatures standard dans Latin lookup 0" f f l
EndChar

StartChar: zero.superior
Encoding: 235 -1 235
Width: 396
VWidth: 0
HStem: 431 23<168.552 227.514> 890 23<168.552 227.514>
VStem: 27 117<548.134 795.866> 253 117<548.134 795.866>
LayerCount: 2
Fore
SplineSet
27 672 m 128,-1,1
 27 714 27 714 36 754 c 128,-1,2
 45 794 45 794 64 831 c 128,-1,3
 83 868 83 868 117.5 890.5 c 128,-1,4
 152 913 152 913 198 913 c 128,-1,5
 244 913 244 913 278.5 890.5 c 128,-1,6
 313 868 313 868 332.5 831 c 128,-1,7
 352 794 352 794 361 754 c 128,-1,8
 370 714 370 714 370 672 c 128,-1,9
 370 630 370 630 361 590 c 128,-1,10
 352 550 352 550 332.5 513 c 128,-1,11
 313 476 313 476 278.5 453.5 c 128,-1,12
 244 431 244 431 198 431 c 128,-1,13
 152 431 152 431 117.5 453.5 c 128,-1,14
 83 476 83 476 64 513 c 128,-1,15
 45 550 45 550 36 590 c 128,-1,0
 27 630 27 630 27 672 c 128,-1,1
144 672 m 128,-1,17
 144 540 144 540 153 497 c 128,-1,18
 162 454 162 454 198 454 c 128,-1,19
 234 454 234 454 243.5 497 c 128,-1,20
 253 540 253 540 253 672 c 128,-1,21
 253 804 253 804 243.5 847 c 128,-1,22
 234 890 234 890 198 890 c 128,-1,23
 162 890 162 890 153 847 c 128,-1,16
 144 804 144 804 144 672 c 128,-1,17
EndSplineSet
EndChar

StartChar: four.superior
Encoding: 236 -1 236
Width: 386
VWidth: 0
HStem: 584 27<50 179 292 337>
VStem: 179 113<441 584 611 798> 337 23<525 584 611 668>
LayerCount: 2
Fore
SplineSet
179 611 m 1,0,-1
 179 798 l 1,1,-1
 178 798 l 1,2,-1
 50 611 l 1,3,-1
 179 611 l 1,0,-1
179 441 m 1,4,-1
 179 584 l 1,5,-1
 18 584 l 1,6,-1
 18 606 l 1,7,-1
 235 916 l 1,8,-1
 292 916 l 1,9,-1
 292 611 l 1,10,-1
 337 611 l 1,11,-1
 337 668 l 1,12,-1
 360 668 l 1,13,-1
 360 525 l 1,14,-1
 337 525 l 1,15,-1
 337 584 l 1,16,-1
 292 584 l 1,17,-1
 292 441 l 1,18,-1
 179 441 l 1,4,-1
EndSplineSet
EndChar

StartChar: five.superior
Encoding: 237 -1 237
Width: 386
VWidth: 0
HStem: 430 37<100.472 202.131> 708 42<123.073 205.399> 809 100<95 255.463>
VStem: 20 23<541.004 564.522> 227 117<509.49 683.623>
LayerCount: 2
Fore
SplineSet
55 636 m 1,0,-1
 82 909 l 1,1,-1
 219 909 l 2,2,3
 242 909 242 909 251.5 910.5 c 128,-1,4
 261 912 261 912 273 921 c 128,-1,5
 285 930 285 930 293 950 c 1,6,-1
 311 942 l 1,7,8
 302 915 302 915 295.5 898.5 c 128,-1,9
 289 882 289 882 280 866 c 128,-1,10
 271 850 271 850 266 842 c 128,-1,11
 261 834 261 834 249 826.5 c 128,-1,12
 237 819 237 819 229 816 c 128,-1,13
 221 813 221 813 202.5 811 c 128,-1,14
 184 809 184 809 170.5 809 c 128,-1,15
 157 809 157 809 128 809 c 2,16,-1
 95 809 l 1,17,-1
 84 695 l 1,18,-1
 85 694 l 1,19,20
 128 750 128 750 201 750 c 0,21,22
 267 750 267 750 305.5 706.5 c 128,-1,23
 344 663 344 663 344 597 c 0,24,25
 344 523 344 523 297 476.5 c 128,-1,26
 250 430 250 430 175 430 c 0,27,28
 116 430 116 430 74.5 466 c 128,-1,29
 33 502 33 502 20 563 c 1,30,-1
 43 568 l 1,31,32
 58 524 58 524 85 495.5 c 128,-1,33
 112 467 112 467 152 467 c 0,34,35
 177 467 177 467 193 477.5 c 128,-1,36
 209 488 209 488 216 509 c 128,-1,37
 223 530 223 530 225 548 c 128,-1,38
 227 566 227 566 227 593 c 0,39,40
 227 616 227 616 224.5 633 c 128,-1,41
 222 650 222 650 215.5 669 c 128,-1,42
 209 688 209 688 193.5 698 c 128,-1,43
 178 708 178 708 154 708 c 0,44,45
 125 708 125 708 103.5 686 c 128,-1,46
 82 664 82 664 78 634 c 1,47,-1
 55 636 l 1,0,-1
EndSplineSet
EndChar

StartChar: six.superior
Encoding: 238 -1 238
Width: 397
VWidth: 0
HStem: 431 23<172.352 229.074> 714 33<169.358 237.198> 890 23<192.871 261.375>
VStem: 31 113<539.82 699.25 707 782.729> 257 113<510.385 681.125> 271 76<806.747 882.088>
LayerCount: 2
Fore
SplineSet
370 596 m 0,0,1
 370 526 370 526 325 478.5 c 128,-1,2
 280 431 280 431 206 431 c 0,3,4
 157 431 157 431 121.5 452 c 128,-1,5
 86 473 86 473 67 508 c 128,-1,6
 48 543 48 543 39.5 582 c 128,-1,7
 31 621 31 621 31 665 c 0,8,9
 31 711 31 711 42.5 753.5 c 128,-1,10
 54 796 54 796 77 832.5 c 128,-1,11
 100 869 100 869 139.5 891 c 128,-1,12
 179 913 179 913 230 913 c 0,13,14
 279 913 279 913 313 891.5 c 128,-1,15
 347 870 347 870 347 829 c 128,-1,16
 347 788 347 788 305 788 c 0,17,18
 284 788 284 788 273 797.5 c 128,-1,19
 262 807 262 807 262 822 c 0,20,21
 262 830 262 830 266.5 844 c 128,-1,22
 271 858 271 858 271 863 c 0,23,24
 271 877 271 877 258.5 883.5 c 128,-1,25
 246 890 246 890 230 890 c 0,26,27
 144 890 144 890 144 707 c 1,28,-1
 146 707 l 1,29,30
 174 747 174 747 227 747 c 0,31,32
 294 747 294 747 332 704 c 128,-1,33
 370 661 370 661 370 596 c 0,0,1
144 584 m 0,34,35
 144 454 144 454 201 454 c 128,-1,36
 258 454 258 454 257 584 c 0,37,38
 257 607 257 607 256.5 622 c 128,-1,39
 256 637 256 637 253 656 c 128,-1,40
 250 675 250 675 244.5 686.5 c 128,-1,41
 239 698 239 698 228 706 c 128,-1,42
 217 714 217 714 200 714 c 0,43,44
 187 714 187 714 177.5 709 c 128,-1,45
 168 704 168 704 162 693.5 c 128,-1,46
 156 683 156 683 152 672 c 128,-1,47
 148 661 148 661 146.5 644.5 c 128,-1,48
 145 628 145 628 144.5 615.5 c 128,-1,49
 144 603 144 603 144 584 c 0,34,35
EndSplineSet
EndChar

StartChar: seven.superior
Encoding: 239 -1 239
Width: 385
VWidth: 0
HStem: 809 95<68 298>
VStem: 104 125<441 521.435>
LayerCount: 2
Fore
SplineSet
31 756 m 1,0,-1
 68 904 l 1,1,-1
 358 904 l 1,2,3
 298 779 298 779 268 681 c 128,-1,4
 238 583 238 583 229 441 c 1,5,-1
 104 441 l 1,6,7
 113 490 113 490 131.5 536.5 c 128,-1,8
 150 583 150 583 183 637.5 c 128,-1,9
 216 692 216 692 235 719 c 128,-1,10
 254 746 254 746 298 809 c 1,11,-1
 68 809 l 1,12,-1
 51 750 l 1,13,-1
 31 756 l 1,0,-1
EndSplineSet
EndChar

